#
# Wavefront OBJ file
#
# Created by the Simplygon mesh optimization tool from Microsoft.
#

mtllib hp.mtl

g default
s off
s 1
v 2.710402 -1.020516 1.312673
v 3.371918 -0.995755 1.277115
v 2.274784 -0.720150 1.315637
v 3.316045 -1.029927 0.341222
v 3.092303 -0.456427 0.581043
v 2.728197 -0.146567 0.831078
v 3.012187 -0.512211 0.765432
v 2.794012 -0.162036 0.579392
v 2.713411 -0.397699 1.021705
v 2.620069 -0.070765 0.745514
v 2.593253 -0.076975 0.549819
v 2.446775 -0.424466 1.185421
v 2.364694 -0.113616 0.528031
v 2.201523 -0.189914 0.718056
v 2.365885 -0.201985 0.999122
v 2.936081 -0.664178 0.857567
v 3.147030 -0.658446 1.268109
v 3.110437 -0.664191 0.576341
v 2.303329 -0.341672 1.142162
v 2.333804 -0.537466 1.219468
v 1.803412 -1.015933 1.259432
v 0.964479 0.055480 -0.058002
v 0.461557 0.542474 -0.215899
v 0.476706 0.568204 -0.282965
v 2.303120 -0.660012 1.200001
v 2.170048 -0.668041 1.063053
v 2.447545 -0.658788 1.168214
v 0.561332 0.642474 -0.185835
v 1.983280 -0.669882 1.261641
v 2.360683 -0.655540 1.125736
v 1.469991 -0.998951 -1.022705
v 3.370167 -0.698266 1.236302
v 2.039930 -0.643808 0.515294
v 1.983262 -0.664053 0.537731
v 2.097828 -0.638575 0.806054
v 1.499515 -0.664830 0.777178
v 1.458298 -0.721789 1.270150
v 2.133796 -0.312372 0.551801
v 2.160307 -0.370826 1.030101
v 1.747892 -1.020949 1.319123
v 1.493833 -0.721624 1.327285
v 1.493984 -1.022747 1.294888
v 1.457573 -0.719329 0.282954
v 2.522758 -0.508976 0.487836
v 2.814907 -0.124694 -0.091730
v 2.595019 -0.026740 0.277925
v 2.762228 -0.066702 0.302569
v 2.932734 -0.226089 0.360089
v 2.623353 -0.335558 0.432210
v 3.059179 -0.479734 0.426016
v 2.396530 -0.061059 0.303341
v 2.506791 -1.024730 -1.044698
v 3.314874 -0.692994 -1.035858
v 3.370051 -0.995412 -1.019252
v 2.447998 -0.450808 0.483391
v 2.477554 -0.493010 0.455623
v 2.536412 -0.368004 0.166656
v 2.580527 -0.362652 0.166564
v 2.536227 -0.362259 0.163527
v 2.189248 -0.247833 0.492041
v 2.158402 -0.342444 0.166674
v 2.507252 -0.391646 0.154101
v 3.388347 -0.993139 -0.357645
v 2.676782 -0.099702 -0.234030
v 2.761270 -0.290073 -0.461294
v 2.399597 -0.109262 -0.177218
v 2.721230 -0.672033 -0.790923
v 2.876814 -0.660131 -0.522994
v 2.510167 -0.255182 -0.518306
v 2.377243 -0.317646 -0.481021
v 2.820746 -0.690053 -1.025640
v 2.229196 -0.259399 -0.148153
v 3.057438 -0.669938 -0.528048
v 2.200446 -0.570539 -0.346334
v 2.591101 -0.556062 -0.825355
v 3.365379 -0.696271 -0.735568
v 2.970147 -0.349534 0.166226
v 3.059158 -0.628828 0.284057
v 2.610106 -0.361844 0.166458
v 2.958222 -0.546689 -0.376721
v 3.027331 -0.664380 0.524859
v 2.476486 -0.625186 0.487099
v 3.058338 -0.644418 0.134901
v 2.623231 -0.452620 0.166012
v 2.536419 -0.504992 0.216373
v 2.100985 -0.636023 0.135494
v 2.477391 -0.537362 0.477388
v 2.459323 -0.508091 0.487944
v 2.444997 -0.509078 0.488944
v 2.419013 -0.492139 0.457349
v 3.045891 -0.546682 -0.037310
v 2.982511 -0.316382 -0.033548
v 2.101698 -0.629637 0.256013
v 2.124393 -0.537265 0.458236
v 3.060451 -0.452095 0.104362
v 2.399466 -0.641291 -0.732493
v 2.763991 -0.591832 -1.083820
v 2.765761 -0.653172 -1.172967
v 2.565967 -0.709494 -1.068860
v 3.201973 -0.655994 -0.240920
v 2.459391 -0.573129 -0.786961
v 2.507866 -0.642002 -1.038838
v 2.334433 -0.682693 -1.141781
v 2.310512 -0.730253 -1.056359
v 2.310365 -0.618044 -1.050985
v 2.222131 -0.684976 -1.045620
v 2.654147 -0.654029 -1.183447
v 2.971632 -0.637703 0.445614
v 2.981250 -0.310215 0.166400
v 3.086970 -0.507639 0.258902
v 1.495683 -0.669962 -1.019404
v 1.521369 -0.633741 0.254693
v 1.926275 -0.677809 -0.414152
v 2.008958 -0.642003 0.430538
v 2.117047 -0.548915 -0.122861
v 2.090151 -0.482290 0.101673
v 2.225757 -0.642426 -0.406163
v 1.269488 0.040664 0.094710
v 1.251778 0.065152 0.142568
v 1.235427 -0.273394 0.168685
v 1.170778 -0.337588 0.082178
v 0.664339 0.644302 -0.209294
v 1.174892 -0.042636 0.100014
v 1.197539 -0.067484 0.079036
v 1.104581 0.207339 0.124648
v 0.991798 0.024234 0.072050
v 0.582218 0.618701 -0.272032
v 2.062581 -0.507844 0.256716
v 2.141672 -0.313097 0.360786
v 2.099837 -0.630604 0.546873
v 2.174187 -0.627125 0.458773
v 1.495108 -0.969199 -1.064222
vt 0.003642 0.090311
vt 0.005595 0.455819
vt 0.007667 0.190426
vt 0.008167 0.576186
vt 0.008416 0.099345
vt 0.010128 0.282429
vt 0.012452 0.632739
vt 0.021803 0.192220
vt 0.023681 0.296977
vt 0.025126 0.777494
vt 0.026044 0.241157
vt 0.026572 0.990468
vt 0.030986 0.707188
vt 0.045754 0.750983
vt 0.058329 0.919070
vt 0.060526 0.946315
vt 0.066110 0.771220
vt 0.066400 0.874450
vt 0.086120 0.698835
vt 0.086814 0.876974
vt 0.088817 0.796102
vt 0.090737 0.690579
vt 0.096431 0.695241
vt 0.099182 0.791763
vt 0.099499 0.984184
vt 0.100885 0.972951
vt 0.103583 0.687176
vt 0.104781 0.783629
vt 0.109105 0.884333
vt 0.113986 0.176370
vt 0.115508 0.119475
vt 0.130466 0.716091
vt 0.131465 0.118122
vt 0.136025 0.134013
vt 0.143489 0.774704
vt 0.148715 0.864980
vt 0.166243 0.922468
vt 0.170712 0.757240
vt 0.171617 0.122506
vt 0.174629 0.569939
vt 0.175108 0.941059
vt 0.176737 0.900126
vt 0.179826 0.166642
vt 0.193676 0.724049
vt 0.195431 0.916613
vt 0.197414 0.845643
vt 0.203576 0.191007
vt 0.209487 0.911191
vt 0.209802 0.675600
vt 0.210245 0.811228
vt 0.211418 0.091285
vt 0.234752 0.742437
vt 0.237345 0.053135
vt 0.242160 0.873752
vt 0.243807 0.692371
vt 0.248139 0.054448
vt 0.251147 0.778429
vt 0.253721 0.064457
vt 0.255957 0.966652
vt 0.270476 0.993128
vt 0.271716 0.677920
vt 0.279587 0.953640
vt 0.281187 0.748686
vt 0.288628 0.842624
vt 0.293084 0.149337
vt 0.294210 0.725777
vt 0.296418 0.592307
vt 0.296440 0.776849
vt 0.307570 0.932199
vt 0.309032 0.813401
vt 0.309684 0.875211
vt 0.323057 0.704325
vt 0.328048 0.977289
vt 0.333926 0.758678
vt 0.341505 0.990593
vt 0.343828 0.961605
vt 0.351302 0.107158
vt 0.354992 0.745554
vt 0.356499 0.087679
vt 0.360207 0.650283
vt 0.368891 0.717455
vt 0.382666 0.721042
vt 0.384050 0.991654
vt 0.390361 0.893095
vt 0.390361 0.886279
vt 0.401792 0.728884
vt 0.406206 0.975453
vt 0.407282 0.975368
vt 0.407464 0.985195
vt 0.412338 0.968442
vt 0.414616 0.659524
vt 0.414676 0.594323
vt 0.427423 0.439486
vt 0.430635 0.254000
vt 0.433511 0.192015
vt 0.438006 0.675496
vt 0.438175 0.980829
vt 0.441686 0.259508
vt 0.452315 0.870829
vt 0.452567 0.569756
vt 0.458720 0.915998
vt 0.469793 0.857339
vt 0.491512 0.071652
vt 0.501679 0.899127
vt 0.510370 0.762544
vt 0.512275 0.924074
vt 0.512280 0.950070
vt 0.512845 0.717138
vt 0.518209 0.028163
vt 0.519267 0.270374
vt 0.519750 0.431097
vt 0.520477 0.791085
vt 0.521016 0.857158
vt 0.521620 0.677321
vt 0.531181 0.788884
vt 0.531914 0.815220
vt 0.535516 0.753642
vt 0.538060 0.467264
vt 0.538798 0.978580
vt 0.542471 0.963920
vt 0.543129 0.751169
vt 0.544002 0.259388
vt 0.544852 0.262107
vt 0.546261 0.184192
vt 0.547793 0.277870
vt 0.548298 0.975739
vt 0.550524 0.956184
vt 0.550684 0.969546
vt 0.557460 0.241524
vt 0.559116 0.261059
vt 0.563835 0.249732
vt 0.563910 0.976037
vt 0.564334 0.439121
vt 0.566828 0.247571
vt 0.573302 0.259434
vt 0.578833 0.244637
vt 0.585009 0.230542
vt 0.588543 0.218942
vt 0.606478 0.859054
vt 0.608192 0.891850
vt 0.610269 0.363231
vt 0.613457 0.467953
vt 0.614970 0.727241
vt 0.616407 0.857440
vt 0.619050 0.086525
vt 0.627986 0.323343
vt 0.630854 0.671775
vt 0.638357 0.082810
vt 0.642885 0.063389
vt 0.644866 0.574635
vt 0.648048 0.505414
vt 0.653182 0.287982
vt 0.658130 0.353057
vt 0.658601 0.245529
vt 0.661718 0.385634
vt 0.669764 0.003642
vt 0.672103 0.187078
vt 0.672651 0.526058
vt 0.674352 0.785794
vt 0.682509 0.233737
vt 0.683767 0.163798
vt 0.684709 0.096877
vt 0.685399 0.638181
vt 0.688310 0.854406
vt 0.688867 0.046508
vt 0.697778 0.064875
vt 0.701352 0.963945
vt 0.702235 0.280611
vt 0.705385 0.750900
vt 0.708081 0.428035
vt 0.709668 0.955549
vt 0.709839 0.179879
vt 0.710154 0.832008
vt 0.720264 0.058530
vt 0.723650 0.677600
vt 0.724426 0.989533
vt 0.725317 0.882587
vt 0.725872 0.949877
vt 0.726395 0.847256
vt 0.727060 0.917232
vt 0.734035 0.343748
vt 0.736217 0.870870
vt 0.736238 0.065475
vt 0.737437 0.039988
vt 0.743857 0.755402
vt 0.744146 0.555620
vt 0.744432 0.570234
vt 0.746639 0.468486
vt 0.749115 0.867751
vt 0.752589 0.092108
vt 0.753643 0.543696
vt 0.755880 0.807358
vt 0.760982 0.850980
vt 0.761602 0.602805
vt 0.762451 0.947001
vt 0.763513 0.202192
vt 0.765574 0.782213
vt 0.766158 0.973174
vt 0.776396 0.391774
vt 0.777807 0.304001
vt 0.778141 0.348604
vt 0.778912 0.054222
vt 0.783112 0.719716
vt 0.783323 0.223694
vt 0.798564 0.547863
vt 0.801841 0.160436
vt 0.804232 0.664944
vt 0.811943 0.377688
vt 0.812414 0.431921
vt 0.822661 0.653260
vt 0.832587 0.051329
vt 0.834596 0.404899
vt 0.837263 0.370737
vt 0.837589 0.302796
vt 0.838499 0.553448
vt 0.845732 0.576698
vt 0.849086 0.077091
vt 0.853801 0.269939
vt 0.855857 0.690189
vt 0.868297 0.047847
vt 0.870447 0.306838
vt 0.875204 0.858496
vt 0.875393 0.501689
vt 0.886431 0.086349
vt 0.902579 0.367981
vt 0.904220 0.536202
vt 0.904306 0.075907
vt 0.905278 0.470892
vt 0.909086 0.272113
vt 0.915525 0.364016
vt 0.917633 0.315517
vt 0.923143 0.553876
vt 0.924166 0.515159
vt 0.932629 0.249429
vt 0.938667 0.322143
vt 0.954179 0.991623
vt 0.954980 0.976701
vt 0.974164 0.569142
vt 0.979766 0.316899
vt 0.991526 0.099918
vt 0.991659 0.581010
vn -0.999949 -0.002996 0.009647
vn -0.998515 0.040284 -0.036680
vn -0.994546 0.032776 -0.099017
vn -0.991307 -0.128208 -0.029547
vn -0.990806 0.095280 0.096053
vn -0.984821 0.036999 -0.169585
vn -0.976371 0.201581 0.077880
vn -0.967063 0.233212 0.101985
vn -0.960233 0.262373 -0.095463
vn -0.953146 -0.108932 0.282216
vn -0.869424 -0.493889 0.013275
vn -0.866141 0.015887 0.499546
vn -0.849277 0.348178 0.396864
vn -0.848597 0.521741 -0.087575
vn -0.845771 0.004104 -0.533530
vn -0.796174 0.059812 -0.602104
vn -0.788181 0.213046 0.577393
vn -0.778016 0.588660 -0.219478
vn -0.743607 -0.220774 -0.631117
vn -0.730848 0.505741 -0.458352
vn -0.724951 -0.311546 0.614317
vn -0.716425 0.114255 0.688245
vn -0.703985 0.497030 -0.507313
vn -0.693978 -0.244373 -0.677256
vn -0.686130 0.016990 0.727281
vn -0.645962 -0.546050 0.533443
vn -0.638770 0.447720 0.625716
vn -0.630285 0.769246 -0.104892
vn -0.606107 0.783907 0.134626
vn -0.590447 -0.723487 -0.357686
vn -0.588982 -0.319832 0.742165
vn -0.563221 0.588578 0.579964
vn -0.548349 0.724637 -0.417390
vn -0.533776 0.842636 0.071054
vn -0.529760 0.817120 -0.227310
vn -0.524436 -0.266935 0.808525
vn -0.518511 -0.163878 0.839220
vn -0.513767 0.250029 0.820688
vn -0.488749 -0.015637 0.872284
vn -0.486607 0.246181 0.838218
vn -0.477433 0.148874 0.865964
vn -0.445566 -0.465268 0.764851
vn -0.438568 0.782059 -0.442767
vn -0.385295 0.811599 0.439153
vn -0.383388 -0.923379 -0.019634
vn -0.354423 0.910044 -0.214953
vn -0.336159 0.941803 0.001799
vn -0.318159 0.397089 0.860869
vn -0.294712 0.937035 -0.187377
vn -0.247530 -0.399260 -0.882791
vn -0.226568 0.951181 -0.209574
vn -0.203075 0.979145 -0.005932
vn -0.200296 0.343636 -0.917494
vn -0.183231 0.982770 0.024278
vn -0.159369 -0.344122 -0.925301
vn -0.159335 0.887152 -0.433097
vn -0.155937 -0.445536 -0.881579
vn -0.154412 0.823426 0.546009
vn -0.148139 0.988404 -0.033347
vn -0.132602 -0.498520 -0.856677
vn -0.129418 -0.831418 -0.540367
vn -0.106675 0.338990 0.934722
vn -0.104829 -0.040717 -0.993656
vn -0.104250 0.992244 0.067706
vn -0.103892 0.339737 0.934765
vn -0.103853 0.988462 0.110265
vn -0.078260 0.723720 -0.685642
vn -0.065920 0.948052 0.311211
vn -0.063683 0.997870 0.014143
vn -0.063586 0.017912 0.997815
vn -0.060580 0.789023 -0.611369
vn -0.058120 0.831960 0.551784
vn -0.055068 0.992145 -0.112320
vn -0.054842 -0.037884 0.997776
vn -0.041903 0.149381 0.987891
vn -0.038203 -0.025066 -0.998956
vn -0.037821 -0.288009 -0.956881
vn -0.033474 -0.106345 0.993766
vn -0.028095 0.998589 -0.045056
vn -0.025387 -0.259590 0.965385
vn -0.021417 -0.328815 0.944151
vn -0.021109 0.151729 0.988197
vn -0.019983 0.917513 -0.397202
vn -0.019603 -0.999714 -0.013681
vn -0.017945 -0.265513 -0.963940
vn -0.016249 -0.016498 -0.999732
vn -0.010743 0.848287 0.529428
vn -0.008647 0.999240 -0.038014
vn -0.007934 -0.999961 0.003859
vn -0.007568 -0.999946 -0.007065
vn -0.004645 0.999983 0.003513
vn -0.003319 0.999963 0.007885
vn -0.002752 0.999996 -0.001064
vn -0.002449 -0.123821 0.992301
vn -0.001068 -0.999952 -0.009685
vn 0.000000 0.000000 -1.000000
vn 0.000000 0.000000 1.000000
vn 0.000000 1.000000 0.000000
vn 0.000232 -0.999951 -0.009891
vn 0.003400 0.999425 -0.033744
vn 0.004876 -0.416953 -0.908915
vn 0.007786 0.290553 0.956827
vn 0.008059 0.464130 -0.885730
vn 0.010447 0.852403 0.522782
vn 0.013008 0.004783 -0.999904
vn 0.015902 -0.020964 -0.999654
vn 0.019760 -0.640753 0.767493
vn 0.023967 -0.999707 0.003264
vn 0.026067 -0.029953 -0.999211
vn 0.026441 0.978237 0.205799
vn 0.026807 0.000899 0.999640
vn 0.032836 0.997127 0.068261
vn 0.034480 0.212257 0.976605
vn 0.035334 -0.051307 -0.998058
vn 0.037301 -0.218564 -0.975109
vn 0.048442 -0.392349 -0.918540
vn 0.052645 0.997117 0.054640
vn 0.056040 -0.370341 -0.927204
vn 0.072692 -0.135085 0.988164
vn 0.074153 0.515334 0.853776
vn 0.074282 0.078188 0.994167
vn 0.076911 0.131808 0.988287
vn 0.086383 -0.083053 0.992794
vn 0.088233 0.024170 0.995807
vn 0.090700 0.131208 -0.987197
vn 0.090899 0.995761 0.014018
vn 0.092017 -0.387303 -0.917349
vn 0.093200 0.647261 0.756549
vn 0.096009 -0.343732 -0.934147
vn 0.100918 0.989006 -0.108090
vn 0.108854 -0.240357 -0.964562
vn 0.111289 0.240929 -0.964141
vn 0.115739 0.058805 -0.991537
vn 0.116709 -0.386892 0.914710
vn 0.116792 0.058666 -0.991422
vn 0.123733 0.173274 -0.977070
vn 0.131122 -0.134125 -0.982251
vn 0.133566 -0.949709 -0.283217
vn 0.142622 -0.142537 0.979460
vn 0.143110 0.129431 0.981207
vn 0.145886 0.954261 -0.260967
vn 0.152165 0.059528 -0.986561
vn 0.155235 0.534682 -0.830673
vn 0.157748 0.861017 0.483492
vn 0.160506 0.096543 0.982302
vn 0.178854 -0.982811 -0.045760
vn 0.193309 0.981000 -0.016430
vn 0.193870 0.978706 -0.067441
vn 0.210777 0.463260 0.860792
vn 0.235385 0.385242 0.892290
vn 0.250818 0.967933 -0.014022
vn 0.262607 0.068808 0.962446
vn 0.263930 0.799150 -0.540092
vn 0.307052 0.013232 -0.951601
vn 0.324412 -0.174064 -0.929763
vn 0.329147 0.931459 -0.155073
vn 0.331660 0.482406 -0.810732
vn 0.341409 -0.114120 -0.932961
vn 0.354552 0.913708 0.198572
vn 0.365906 0.903126 -0.224668
vn 0.398640 0.811999 0.426314
vn 0.411664 0.841102 -0.350827
vn 0.415231 0.779107 -0.469654
vn 0.419019 0.717477 -0.556461
vn 0.427470 0.538614 0.726061
vn 0.444320 0.493546 -0.747658
vn 0.446751 -0.157256 0.880729
vn 0.516337 0.845332 -0.137152
vn 0.520892 0.103938 -0.847271
vn 0.525701 0.222613 0.821025
vn 0.536051 0.677605 0.503489
vn 0.545361 0.825281 -0.146603
vn 0.554368 0.036452 -0.831473
vn 0.557665 0.222027 0.799821
vn 0.567172 0.291170 -0.770413
vn 0.574137 0.664584 -0.478222
vn 0.575144 0.612039 -0.542787
vn 0.621820 -0.781738 0.047189
vn 0.641894 -0.069719 0.763617
vn 0.654310 0.740799 -0.151972
vn 0.686515 0.649030 -0.327806
vn 0.712524 0.567829 -0.412164
vn 0.726620 0.314361 0.610902
vn 0.743745 -0.311604 0.591394
vn 0.790079 0.270087 0.550298
vn 0.818412 0.469633 0.331130
vn 0.826615 0.562764 0.002326
vn 0.832089 0.517935 -0.198420
vn 0.891998 -0.311116 0.327943
vn 0.893624 0.445945 -0.050678
vn 0.906149 -0.048276 0.420194
vn 0.919656 0.391210 -0.034468
vn 0.942581 0.333744 0.012500
vn 0.946996 0.209433 0.243590
vn 0.959232 0.146584 -0.241633
vn 0.997871 -0.065037 -0.004802
usemtl (null)
f 1/147/111 2/121/121 3/150/75
f 2/4/178 1/2/89 4/40/108
f 5/133/186 6/155/171 7/142/185
f 6/155/171 5/133/186 8/141/166
f 9/170/174 7/142/185 6/155/171
f 10/153/110 6/155/171 8/141/166
f 8/141/166 11/146/143 10/153/110
f 9/170/174 6/155/171 12/199/150
f 13/152/47 14/168/29 10/153/110
f 11/146/143 13/152/47 10/153/110
f 12/199/150 6/155/171 15/181/58
f 6/155/171 10/153/110 15/181/58
f 15/181/58 10/153/110 14/168/29
f 16/96/91 17/114/128 18/86/126
f 7/142/185 16/151/179 18/118/191
f 15/181/58 19/201/183 20/208/145
f 19/201/27 15/181/58 14/168/29
f 1/147/111 3/150/75 21/186/119
f 22/234/127 23/224/30 24/227/60
f 25/213/25 20/208/22 26/214/12
f 7/142/185 9/170/174 16/151/179
f 16/96/91 27/100/93 17/114/128
f 9/170/174 27/209/167 16/151/179
f 9/170/174 12/199/150 27/209/167
f 25/34/92 17/1/128 27/31/93
f 27/209/167 12/199/150 20/208/145
f 24/105/28 23/117/41 28/115/48
f 25/34/92 29/43/72 17/1/128
f 12/199/150 15/181/58 20/208/145
f 27/209/167 20/208/145 30/212/107
f 25/34/92 27/31/93 30/33/98
f 30/212/107 20/208/145 25/213/184
f 19/201/27 26/214/12 20/208/22
f 31/94/84 1/2/89 21/9/99
f 18/86/126 17/114/128 32/108/193
f 2/121/121 17/114/128 3/150/75
f 2/121/121 32/108/140 17/114/128
f 33/56/159 34/58/68 35/51/54
f 34/58/68 29/43/72 35/51/54
f 36/30/34 37/8/66 29/5/72
f 38/160/9 35/204/5 39/200/13
f 26/39/117 35/51/54 29/43/72
f 29/158/72 40/191/139 21/186/119
f 35/204/5 26/214/12 39/200/13
f 26/39/117 29/43/72 25/34/92
f 19/201/27 39/200/13 26/214/12
f 37/8/66 41/3/64 29/5/72
f 40/191/139 29/158/72 41/188/70
f 41/3/70 42/11/10 40/6/139
f 37/8/4 42/11/10 41/3/70
f 21/186/119 3/150/75 29/158/72
f 36/65/34 29/43/72 34/58/68
f 29/158/72 3/150/75 17/114/128
f 36/30/34 42/11/10 37/8/4
f 14/168/29 38/160/9 39/200/13
f 43/47/1 42/11/10 36/30/34
f 42/11/95 21/9/99 40/6/139
f 14/168/29 39/200/13 19/201/27
f 31/94/84 21/9/99 42/11/95
f 8/141/166 44/125/142 11/146/143
f 45/50/172 46/35/73 47/38/161
f 48/44/165 49/32/102 50/49/170
f 47/38/161 51/28/44 48/44/165
f 46/35/73 51/28/44 47/38/161
f 52/162/105 53/206/109 54/196/114
f 11/146/143 44/125/142 55/135/125
f 55/135/125 44/125/142 56/130/176
f 57/88/40 58/89/80 59/87/81
f 48/44/165 51/28/44 49/32/102
f 51/28/44 46/35/73 45/50/172
f 55/135/125 60/154/53 11/146/143
f 11/146/143 60/154/53 13/152/135
f 59/87/81 58/89/80 61/84/17
f 59/87/81 61/84/17 62/90/74
f 57/88/40 59/87/81 62/90/74
f 58/144/96 57/139/85 61/113/77
f 4/40/108 54/92/146 63/67/196
f 2/4/178 4/40/108 63/67/196
f 64/46/141 45/50/172 65/54/177
f 64/46/141 51/28/44 45/50/172
f 66/36/46 51/28/44 64/46/141
f 67/69/160 65/54/177 68/71/162
f 64/46/141 69/48/71 66/36/46
f 66/163/46 69/187/71 70/194/23
f 53/206/109 52/162/105 71/190/106
f 72/175/18 66/163/46 70/194/23
f 68/211/162 73/217/130 53/206/168
f 72/175/18 70/194/23 74/207/20
f 67/69/160 75/62/153 65/54/177
f 54/92/146 53/91/168 76/80/192
f 65/54/177 69/48/71 64/46/141
f 75/62/153 69/48/71 65/54/177
f 63/67/196 54/92/146 76/80/192
f 77/26/118 78/15/116 79/41/131
f 5/133/136 44/125/142 8/141/166
f 68/71/162 65/54/177 80/64/182
f 5/133/136 81/111/132 82/110/133
f 83/10/144 77/21/123 84/18/94
f 44/125/142 5/133/136 82/110/133
f 77/21/123 79/20/97 84/18/94
f 68/211/162 80/220/182 73/217/130
f 84/37/129 79/41/131 78/15/116
f 78/15/116 85/42/101 84/37/129
f 83/10/144 84/18/94 86/12/78
f 87/128/124 82/127/122 50/176/170
f 84/37/129 85/42/101 62/45/57
f 44/27/104 50/49/170 56/23/113
f 84/37/94 62/45/74 86/60/78
f 50/176/170 44/132/134 87/128/124
f 85/97/38 57/88/40 62/90/74
f 50/49/170 49/32/102 56/23/113
f 44/125/142 82/110/133 88/123/63
f 88/126/42 87/128/124 44/132/134
f 62/90/74 61/84/17 86/99/78
f 88/131/63 89/134/175 55/135/125
f 56/130/19 88/131/63 55/135/125
f 90/19/82 88/22/87 56/23/113
f 90/19/82 56/23/113 49/32/102
f 89/134/175 87/129/180 90/136/103
f 88/126/42 90/119/26 87/128/124
f 82/110/133 89/122/175 88/123/63
f 89/120/152 82/127/122 87/128/124
f 57/139/85 85/140/101 61/113/77
f 91/68/190 80/64/182 92/57/188
f 55/135/125 89/134/175 90/136/103
f 78/180/116 93/106/50 85/140/101
f 93/106/79 78/180/147 86/107/100
f 94/157/15 55/135/125 90/136/103
f 91/68/190 92/57/188 95/63/194
f 90/19/82 49/32/102 94/13/65
f 93/106/50 61/113/77 85/140/101
f 96/216/35 74/207/20 70/194/23
f 53/206/168 67/202/160 68/211/162
f 71/190/148 67/202/160 53/206/168
f 97/73/156 71/76/148 98/75/164
f 97/73/156 67/69/160 71/76/148
f 52/162/105 99/166/115 71/190/106
f 100/70/151 91/68/190 83/74/144
f 80/64/182 91/68/190 100/70/151
f 97/73/156 75/62/153 67/69/160
f 101/156/43 97/184/156 102/165/83
f 53/91/168 73/72/130 100/61/151
f 73/72/130 80/66/182 100/61/151
f 101/59/43 75/62/153 97/73/156
f 101/59/43 69/48/71 75/62/153
f 102/165/83 99/166/157 103/149/86
f 69/187/71 101/215/43 70/194/23
f 70/194/23 101/215/43 96/216/35
f 99/166/115 104/148/55 103/149/86
f 101/215/43 105/226/49 96/216/35
f 102/223/83 105/226/49 101/215/43
f 103/233/86 105/226/49 102/223/83
f 53/91/168 100/61/151 76/80/192
f 106/232/67 96/216/35 105/226/49
f 76/80/192 100/61/151 32/7/193
f 107/174/61 98/183/138 99/166/115
f 107/174/56 97/184/156 98/183/164
f 71/76/106 99/83/115 98/75/138
f 107/174/56 102/165/83 97/184/156
f 99/166/115 102/165/24 107/174/61
f 32/7/193 63/67/196 76/80/192
f 108/167/149 50/176/170 82/127/122
f 86/107/100 78/180/147 83/178/144
f 78/78/147 108/81/149 81/82/112
f 108/167/149 82/127/122 81/171/112
f 50/176/170 108/167/149 78/195/189
f 95/17/194 109/24/187 77/21/123
f 78/78/147 81/82/112 100/70/151
f 91/68/190 95/63/194 83/74/144
f 83/10/144 95/17/194 77/21/123
f 50/176/170 78/195/189 110/198/195
f 77/26/118 109/25/187 110/16/195
f 109/52/187 48/44/165 110/55/195
f 110/55/195 48/44/165 50/49/170
f 4/40/108 1/2/89 31/94/84
f 83/74/144 78/78/147 100/70/151
f 5/133/136 18/118/173 81/111/132
f 18/86/126 100/70/151 81/82/112
f 78/15/116 77/26/118 110/16/195
f 7/142/185 18/118/191 5/133/186
f 32/108/193 100/70/151 18/86/126
f 63/67/196 32/7/193 2/4/178
f 45/50/172 92/57/188 65/54/177
f 80/64/182 65/54/177 92/57/188
f 54/92/146 4/40/108 52/93/90
f 104/148/55 99/166/115 52/162/105
f 47/38/161 92/57/188 45/50/172
f 92/57/188 47/38/161 109/52/187
f 47/38/161 48/44/165 109/52/187
f 95/63/194 92/57/188 109/52/187
f 111/124/33 112/79/52 113/103/88
f 106/145/67 52/162/105 111/124/33
f 106/145/67 111/124/33 113/103/88
f 104/148/55 52/162/105 106/145/67
f 103/149/86 104/148/55 106/145/67
f 105/226/49 103/233/86 106/232/67
f 113/219/88 112/222/52 86/197/100
f 86/197/100 112/222/52 114/193/163
f 113/219/88 86/197/7 115/203/14
f 74/207/20 113/219/88 115/203/14
f 86/197/7 116/185/8 115/203/14
f 106/145/67 113/103/88 117/109/51
f 113/219/88 74/207/20 117/210/51
f 118/239/169 33/241/159 114/238/163
f 119/221/120 120/225/39 34/205/68
f 118/239/169 114/238/163 121/230/158
f 119/177/120 33/236/159 122/116/181
f 117/210/51 96/216/35 106/232/67
f 96/216/35 117/210/51 74/207/20
f 118/239/169 122/240/181 33/241/159
f 121/230/158 114/238/163 112/228/155
f 118/239/169 22/234/127 122/240/181
f 120/225/39 119/221/120 123/231/37
f 121/230/158 124/235/137 118/239/169
f 121/230/158 123/231/16 124/235/137
f 122/116/181 125/164/62 119/177/120
f 126/229/31 119/221/120 125/218/62
f 123/231/37 119/221/120 126/229/31
f 123/231/37 126/229/31 124/235/45
f 127/112/154 122/116/181 22/85/127
f 22/234/127 118/239/169 124/235/137
f 112/79/52 36/65/34 34/58/68
f 120/225/39 112/228/36 34/205/68
f 43/77/1 36/65/34 112/79/52
f 120/225/39 121/230/21 112/228/36
f 31/94/2 42/11/10 43/47/1
f 86/197/100 114/193/163 93/192/79
f 33/189/159 93/192/79 114/193/163
f 121/230/21 120/225/39 123/231/37
f 61/113/17 128/104/6 129/102/32
f 128/104/6 94/101/15 129/102/32
f 35/51/54 130/53/59 33/56/159
f 93/106/50 94/101/15 128/104/6
f 128/104/6 61/113/77 93/106/50
f 130/172/3 35/204/5 38/160/9
f 86/197/78 61/169/17 116/185/8
f 33/189/159 131/179/69 93/192/79
f 130/182/59 131/179/69 33/189/159
f 94/157/15 131/161/11 130/172/3
f 130/172/3 38/160/9 94/157/15
f 52/162/105 132/138/76 111/124/33
f 94/157/15 38/160/9 60/154/53
f 131/179/11 94/173/15 93/192/50
f 43/77/1 112/79/52 111/124/33
f 31/137/2 111/124/33 132/138/76
f 31/94/2 43/47/1 111/95/33
f 60/154/53 55/135/125 94/157/15
f 72/175/18 115/203/14 116/185/8
f 72/175/18 74/207/20 115/203/14
f 33/236/159 119/177/120 34/237/68
f 61/169/17 129/159/32 72/175/18
f 51/143/44 72/175/18 129/159/32
f 61/169/17 72/175/18 116/185/8
f 129/14/32 94/13/65 49/32/102
f 49/32/102 51/28/44 129/14/32
f 60/154/53 38/160/9 14/168/29
f 60/154/53 14/168/29 13/152/47
f 52/93/90 4/40/108 31/94/84
f 31/94/84 132/98/76 52/93/90
f 66/36/46 72/29/18 51/28/44
f 125/218/62 23/224/41 126/229/31
f 127/112/154 22/85/127 24/105/60
f 28/115/48 125/164/62 122/116/181
f 28/115/48 122/116/181 127/112/154
f 22/234/127 126/229/31 23/224/30
f 24/105/28 28/115/48 127/112/154
f 125/164/62 28/115/48 23/117/41
f 126/229/31 22/234/127 124/235/45
