#
# Wavefront OBJ file
#
# Created by the Simplygon mesh optimization tool from Microsoft.
#

mtllib hp.mtl

g default
s off
s 1
v 0.048081 0.169095 -0.008317
v -0.026949 0.192056 0.136047
v 0.069242 0.172671 0.234899
v -0.048691 0.148180 -0.052515
v -0.069909 0.172865 0.234240
v -0.101863 0.115487 -0.042104
v 0.104299 0.104765 -0.052206
v 0.004180 0.076169 -0.143691
v 0.027857 0.050539 -0.155872
v 0.100621 0.145392 0.046036
v 0.032488 0.060082 -0.191311
v -0.026656 0.050696 -0.167578
v -0.015548 0.083150 -0.201653
v -0.120621 -0.027481 -0.107124
v 0.130641 -0.071547 0.176120
v 0.005198 0.075396 0.281748
v 0.120312 -0.180307 0.177018
v 0.027136 -0.135339 0.220667
v -0.115170 -0.179857 0.184510
v -0.142765 -0.071576 0.154139
v 0.079789 -0.049363 -0.143579
v 0.026728 -0.102843 -0.154369
v 0.035271 -0.023002 -0.258484
v 0.023486 0.016160 -0.276453
v 0.004330 0.005514 -0.167964
v -0.115259 -0.191125 -0.098388
v 0.114498 -0.191653 -0.098349
v -0.005987 -0.043388 -0.205833
v -0.041614 -0.012383 -0.227982
v -0.048655 -0.092727 -0.153749
v -0.037794 0.016545 -0.256996
v 0.104211 -0.197193 0.156516
v 0.138079 -0.060629 -0.086325
v 0.162215 -0.092902 0.067408
v -0.163338 -0.081596 0.067260
v 0.004905 -0.022869 -0.279409
v 0.003987 -0.050427 -0.247915
v -0.014939 0.026211 -0.278001
v -0.028974 -0.032694 -0.256861
v 0.138766 0.083957 0.045360
v -0.151813 0.038868 0.023118
v -0.151557 -0.060157 -0.053707
vt 0.003577 0.224679
vt 0.027482 0.360012
vt 0.035560 0.292831
vt 0.077796 0.579474
vt 0.080066 0.774556
vt 0.082703 0.107462
vt 0.100772 0.748785
vt 0.120523 0.542639
vt 0.125080 0.700778
vt 0.140903 0.544379
vt 0.152779 0.199495
vt 0.154244 0.427363
vt 0.165414 0.675006
vt 0.167927 0.726592
vt 0.188765 0.373799
vt 0.202444 0.704907
vt 0.211511 0.580077
vt 0.216996 0.762806
vt 0.225754 0.178437
vt 0.229536 0.663370
vt 0.231417 0.003577
vt 0.277091 0.306123
vt 0.285912 0.696504
vt 0.288935 0.548408
vt 0.296546 0.812034
vt 0.306895 0.993634
vt 0.344776 0.204331
vt 0.350415 0.540259
vt 0.365220 0.657075
vt 0.370025 0.784423
vt 0.414276 0.594955
vt 0.422328 0.542154
vt 0.432210 0.247616
vt 0.434053 0.714853
vt 0.482023 0.842884
vt 0.484858 0.155684
vt 0.485251 0.517306
vt 0.521980 0.736743
vt 0.576383 0.575895
vt 0.616002 0.152134
vt 0.627365 0.416771
vt 0.644693 0.477836
vt 0.653400 0.007334
vt 0.667497 0.824004
vt 0.676267 0.634902
vt 0.689765 0.559528
vt 0.695118 0.040976
vt 0.711065 0.992714
vt 0.751229 0.967474
vt 0.779475 0.833700
vt 0.848803 0.454749
vt 0.849280 0.895896
vt 0.859910 0.941363
vt 0.892164 0.589665
vt 0.917039 0.941902
vt 0.917843 0.878996
vt 0.924596 0.770012
vt 0.973369 0.885906
vt 0.973822 0.720374
vt 0.983608 0.772112
vt 0.987517 0.682814
vt 0.991078 0.502118
vn -0.969984 -0.239919 0.039614
vn -0.962421 -0.049606 -0.266992
vn -0.955596 0.114995 -0.271316
vn -0.944610 0.326848 0.029694
vn -0.924783 0.208384 0.318359
vn -0.912558 -0.265132 0.311357
vn -0.887128 0.454027 0.082848
vn -0.856070 0.062578 0.513057
vn -0.770713 0.571942 -0.280862
vn -0.736028 0.168086 -0.655752
vn -0.701078 0.453425 0.550359
vn -0.682592 -0.587605 -0.434497
vn -0.550455 0.293840 -0.781446
vn -0.494314 -0.375066 0.784206
vn -0.406937 -0.822062 0.398267
vn -0.343928 -0.131020 -0.929810
vn -0.330958 -0.917391 -0.221046
vn -0.276414 0.735927 -0.618067
vn -0.257909 0.872231 -0.415566
vn -0.173280 0.984296 -0.033694
vn -0.158915 0.899666 -0.406628
vn -0.122394 -0.023077 -0.992213
vn -0.042346 -0.021472 0.998872
vn -0.023072 -0.371758 -0.928043
vn 0.046696 -0.392976 0.918362
vn 0.063276 -0.736552 0.673415
vn 0.093329 -0.383316 -0.918890
vn 0.137633 0.803912 -0.578604
vn 0.177193 -0.979651 0.094265
vn 0.182466 -0.977167 -0.108861
vn 0.203047 0.931291 -0.302437
vn 0.333467 -0.905038 -0.264018
vn 0.410784 0.640889 -0.648473
vn 0.556705 0.081771 -0.826676
vn 0.651044 0.475860 -0.591354
vn 0.668607 -0.330086 0.666340
vn 0.676190 0.499437 0.541599
vn 0.682897 0.728972 -0.047443
vn 0.728957 0.480201 -0.487881
vn 0.733525 -0.499756 0.460635
vn 0.744453 0.277435 -0.607306
vn 0.792160 0.544778 -0.275137
vn 0.850501 0.044123 0.524120
vn 0.924210 0.043494 -0.379400
vn 0.946265 -0.315665 -0.070272
vn 0.966531 0.246194 0.072160
vn 0.987944 -0.151353 0.032531
usemtl (null)
f 1/42/31 2/51/20 3/54/37
f 4/12/19 2/28/20 1/10/31
f 2/51/20 5/62/11 3/54/37
f 4/12/19 6/15/9 2/28/20
f 2/28/20 6/15/9 5/37/11
f 7/39/39 8/32/28 1/42/31
f 9/31/41 8/32/28 7/39/39
f 7/39/39 1/42/31 10/46/38
f 1/42/31 3/54/37 10/46/38
f 8/55/28 9/53/41 11/52/42
f 12/58/5 8/55/28 13/56/7
f 13/56/33 8/55/28 11/52/42
f 1/10/31 8/2/28 4/12/19
f 4/12/19 8/2/28 12/3/13
f 12/3/13 6/15/9 4/12/19
f 12/3/13 14/11/10 6/15/9
f 15/50/43 3/54/37 16/61/23
f 15/50/43 16/61/23 17/49/36
f 18/40/25 17/47/36 16/41/23
f 16/61/23 3/54/37 5/62/11
f 18/40/25 16/41/23 19/36/15
f 5/37/11 20/33/8 16/41/23
f 16/41/23 20/33/8 19/36/15
f 9/31/41 7/39/39 21/34/34
f 21/34/34 22/30/27 9/31/41
f 11/4/42 23/13/45 24/9/35
f 11/4/42 9/8/41 23/13/45
f 25/17/40 23/13/45 9/8/41
f 9/31/41 22/30/27 25/29/22
f 26/26/17 22/30/27 27/35/32
f 23/13/45 25/17/40 28/20/26
f 25/17/14 12/24/5 28/20/26
f 12/24/5 29/23/6 28/20/26
f 30/6/16 14/11/10 25/1/22
f 22/30/27 30/25/16 25/29/22
f 26/26/17 30/25/16 22/30/27
f 11/52/42 31/57/21 13/56/33
f 25/1/22 14/11/10 12/3/13
f 12/58/5 13/56/7 31/57/3
f 27/35/32 32/48/29 26/26/17
f 26/21/17 14/11/10 30/6/16
f 27/35/32 33/38/44 34/44/47
f 27/35/32 34/44/47 32/48/29
f 32/43/29 17/47/36 18/40/25
f 26/21/17 19/36/15 35/27/1
f 24/9/35 23/13/45 36/14/24
f 36/14/24 23/13/45 37/16/30
f 24/9/35 38/7/18 11/4/42
f 37/16/30 39/18/12 36/14/24
f 24/9/35 36/14/24 38/7/18
f 39/18/12 38/7/18 36/14/24
f 11/4/42 38/7/18 31/5/21
f 37/16/30 23/13/45 28/20/26
f 39/18/12 37/16/30 28/20/26
f 39/18/12 31/5/3 38/7/18
f 29/23/6 39/18/12 28/20/26
f 31/57/3 29/60/6 12/58/5
f 31/57/3 39/59/12 29/60/6
f 17/49/36 32/48/29 34/44/47
f 26/21/17 32/43/29 19/36/15
f 21/34/34 7/39/39 33/38/44
f 21/34/34 33/38/44 27/35/32
f 18/40/25 19/36/15 32/43/29
f 33/38/44 7/39/39 40/45/46
f 21/34/34 27/35/32 22/30/27
f 6/15/9 41/22/4 5/37/11
f 40/45/46 3/54/37 15/50/43
f 17/49/36 34/44/47 15/50/43
f 19/36/15 20/33/8 35/27/1
f 34/44/47 40/45/46 15/50/43
f 41/22/4 20/33/8 5/37/11
f 35/27/1 20/33/8 41/22/4
f 42/19/2 35/27/1 41/22/4
f 33/38/44 40/45/46 34/44/47
f 6/15/9 14/11/10 41/22/4
f 7/39/39 10/46/38 40/45/46
f 14/11/10 26/21/17 42/19/2
f 41/22/4 14/11/10 42/19/2
f 35/27/1 42/19/2 26/21/17
f 3/54/37 40/45/46 10/46/38
