#
# Wavefront OBJ file
#
# Created by the Simplygon mesh optimization tool from Microsoft.
#

mtllib hp.mtl

g default
s off
s 1
v -28.112577 7.738775 23.905069
v 45.482506 9.899667 25.460760
v -18.410826 28.622801 23.944273
v 53.521603 20.718193 -16.391382
v 45.299107 10.150148 -21.620779
v -16.021423 35.510178 -18.570684
v 28.659918 46.132523 -11.925545
v 24.803150 5.874813 -18.801838
v -27.967966 7.595636 -21.683489
v -18.521851 35.415024 -22.524622
v -15.404867 43.233089 -16.331387
v -15.701065 46.717754 15.410095
v 28.689650 44.007790 19.014324
v -10.715548 47.883076 -7.689524
v 41.630058 6.609410 15.793616
v 25.790188 6.767545 -12.987429
v 41.743298 6.706050 -12.611614
v 35.945068 -0.343882 20.596704
v 25.679451 5.851965 15.864258
v 24.605812 5.595800 22.429962
v 29.388338 0.533743 24.858099
v 55.960800 22.782469 1.538085
v 31.631540 -0.539672 -19.493238
v 56.550621 12.395057 -16.572018
v -27.423380 33.751610 -14.935636
v 54.666111 6.430304 -7.645864
v -26.853279 33.150200 17.404081
v -18.514267 33.261486 26.715719
v -27.631443 28.302406 23.283329
v 56.501282 10.390463 18.127733
v -55.150768 23.459616 17.397556
v -43.924675 18.778852 24.761154
v -37.334911 -0.506431 24.870241
v -55.167019 23.337435 -14.426139
v 60.192741 12.325831 6.112984
v 53.670612 20.772188 19.380962
v -41.807457 0.716882 -21.318113
v -54.353466 12.143950 -18.489754
v -27.975349 6.371362 18.127150
v -30.965488 6.492741 -12.930546
v -46.568146 5.742617 16.289183
v -41.841164 0.024045 18.333969
v -57.399689 9.702723 -12.503604
v -37.541435 0.087637 -15.675729
v -58.137466 10.257801 15.211759
vt 0.003856 0.088766
vt 0.017528 0.743423
vt 0.050778 0.084300
vt 0.058974 0.128268
vt 0.103189 0.208266
vt 0.179498 0.015636
vt 0.191326 0.915284
vt 0.201359 0.104100
vt 0.205865 0.072318
vt 0.220513 0.951688
vt 0.222445 0.048649
vt 0.226384 0.158359
vt 0.226512 0.599074
vt 0.227932 0.003856
vt 0.235712 0.660254
vt 0.283384 0.552412
vt 0.292493 0.149791
vt 0.299904 0.905850
vt 0.300701 0.357640
vt 0.305433 0.085564
vt 0.309328 0.588673
vt 0.310078 0.297514
vt 0.345986 0.844162
vt 0.351985 0.959338
vt 0.353227 0.878970
vt 0.356586 0.785798
vt 0.359162 0.859082
vt 0.387694 0.901129
vt 0.399303 0.082573
vt 0.422796 0.116110
vt 0.432752 0.714482
vt 0.442990 0.785289
vt 0.443453 0.056356
vt 0.444225 0.850386
vt 0.447666 0.272288
vt 0.460347 0.774013
vt 0.470131 0.739327
vt 0.485973 0.020157
vt 0.496720 0.301168
vt 0.500546 0.878139
vt 0.502754 0.314017
vt 0.505653 0.114606
vt 0.516496 0.956244
vt 0.519676 0.274790
vt 0.525168 0.836913
vt 0.526989 0.318042
vt 0.534436 0.346121
vt 0.538549 0.221366
vt 0.553850 0.906181
vt 0.573987 0.979030
vt 0.615190 0.962173
vt 0.649223 0.951354
vt 0.652683 0.993581
vt 0.661141 0.742137
vt 0.673837 0.359821
vt 0.708108 0.409624
vt 0.711906 0.523960
vt 0.715678 0.218482
vt 0.721289 0.074250
vt 0.746857 0.437187
vt 0.756356 0.756382
vt 0.776884 0.706296
vt 0.796512 0.688269
vt 0.831161 0.768829
vt 0.849147 0.737361
vt 0.856739 0.429372
vt 0.863925 0.292656
vt 0.864968 0.375849
vt 0.874077 0.865078
vt 0.885652 0.841945
vt 0.886193 0.199292
vt 0.901007 0.978324
vt 0.909862 0.303234
vt 0.919329 0.875105
vt 0.926053 0.453095
vt 0.946689 0.195676
vt 0.959033 0.274633
vt 0.991371 0.253856
vt 0.991794 0.934292
vn -0.989951 -0.028791 -0.138451
vn -0.915569 0.058547 0.397876
vn -0.743702 -0.487156 0.457806
vn -0.628651 0.753613 0.192004
vn -0.579481 0.744624 -0.331266
vn -0.526302 -0.850290 -0.003696
vn -0.485507 0.501831 0.715855
vn -0.483739 0.864725 0.135084
vn -0.467667 -0.849071 -0.245694
vn -0.440838 0.893578 -0.084741
vn -0.352753 -0.935711 -0.003276
vn -0.330494 0.065954 -0.941501
vn -0.275862 0.131383 0.952176
vn -0.255990 -0.151008 0.954812
vn -0.242588 0.865733 0.437786
vn -0.171626 -0.982843 -0.067554
vn -0.170452 -0.263435 -0.949499
vn -0.169003 0.378029 0.910237
vn -0.167622 -0.984578 -0.050097
vn -0.155098 0.984949 -0.076283
vn -0.150369 0.627098 -0.764289
vn -0.130240 -0.991410 0.011975
vn -0.115846 -0.126236 -0.985213
vn -0.082221 0.995186 0.053340
vn -0.065367 -0.065729 -0.995694
vn -0.048021 -0.998430 -0.028839
vn -0.045269 -0.998566 0.028585
vn -0.044432 -0.314903 0.948083
vn -0.040001 -0.940551 0.337288
vn -0.024599 -0.052302 0.998328
vn -0.016237 0.144027 0.989441
vn 0.017756 -0.999751 -0.013518
vn 0.032047 -0.227194 0.973322
vn 0.042726 -0.822444 0.567239
vn 0.045913 -0.681982 -0.729926
vn 0.067111 0.270981 -0.960242
vn 0.068345 0.125009 -0.989799
vn 0.109046 -0.262388 -0.958781
vn 0.117162 -0.901687 0.416213
vn 0.122448 0.098731 -0.987552
vn 0.122674 0.049871 0.991193
vn 0.124153 -0.991000 -0.050048
vn 0.127674 -0.990890 -0.042848
vn 0.175834 -0.984190 0.021277
vn 0.221939 0.679159 0.699632
vn 0.229028 -0.551090 -0.802400
vn 0.261421 -0.963565 -0.056578
vn 0.273925 0.778016 -0.565381
vn 0.372559 -0.920891 -0.114718
vn 0.420019 0.486834 -0.765883
vn 0.438265 -0.873923 -0.210196
vn 0.605123 0.522939 0.600300
vn 0.606664 -0.676647 0.417262
vn 0.742138 0.670238 -0.003546
vn 0.837506 -0.200322 -0.508385
vn 0.989185 -0.132781 0.062302
vn 0.989868 -0.064513 0.126485
usemtl (null)
f 1/72/33 2/49/41 3/69/31
f 4/23/50 5/18/40 6/2/37
f 6/46/37 7/58/48 4/67/50
f 5/18/40 8/7/25 6/2/37
f 9/57/35 10/63/36 6/62/37
f 7/58/48 6/46/37 11/44/21
f 12/42/15 13/59/45 14/48/20
f 7/58/48 11/44/21 14/48/20
f 15/15/44 16/31/27 17/26/43
f 2/49/41 18/50/47 15/43/44
f 16/31/27 15/15/44 19/21/26
f 2/49/41 1/72/33 20/52/29
f 18/50/47 2/49/41 21/51/30
f 18/50/47 21/51/9 19/53/26
f 15/15/44 18/13/47 19/21/26
f 20/52/29 19/53/26 21/51/9
f 20/16/29 9/57/35 19/21/26
f 13/59/45 7/58/48 14/48/20
f 19/21/26 9/57/35 16/31/27
f 21/51/30 2/49/41 20/52/29
f 13/59/45 12/42/15 3/38/31
f 22/71/54 7/58/48 13/59/45
f 17/26/43 23/32/39 5/27/40
f 5/18/40 23/10/23 8/7/25
f 16/31/27 23/32/39 17/26/43
f 16/31/27 8/37/22 23/32/39
f 6/62/37 8/37/25 9/57/35
f 8/37/22 16/31/27 9/57/35
f 2/49/41 13/54/45 3/69/31
f 4/67/50 7/58/48 22/71/54
f 5/18/40 24/25/55 17/24/43
f 14/48/20 25/35/10 12/42/15
f 24/25/55 26/28/49 17/24/43
f 15/43/44 17/24/43 26/28/49
f 12/42/15 25/35/10 27/30/8
f 28/70/57 3/69/57 12/64/57
f 28/70/7 29/74/18 3/69/31
f 12/42/15 29/29/18 28/33/7
f 12/42/15 27/30/8 29/29/18
f 1/72/33 3/69/31 29/74/18
f 26/28/49 30/40/53 15/43/44
f 2/49/41 15/43/44 30/40/53
f 27/30/8 25/35/10 31/17/4
f 1/72/33 29/74/18 32/79/13
f 1/14/33 32/20/13 33/11/14
f 32/20/13 29/29/18 31/17/4
f 27/30/8 31/17/4 29/29/18
f 25/35/10 34/22/5 31/17/4
f 24/25/55 5/18/40 4/23/50
f 11/44/21 25/35/10 14/48/20
f 24/73/55 4/67/50 35/76/56
f 24/73/55 35/76/56 26/77/49
f 25/65/10 11/61/21 6/62/37
f 25/65/10 6/62/24 10/63/36
f 22/36/54 13/54/45 36/45/52
f 10/39/36 34/22/5 25/35/10
f 9/57/35 37/60/17 10/63/36
f 38/66/12 10/63/36 37/60/17
f 2/49/41 36/45/52 13/54/45
f 4/67/50 22/71/54 35/76/56
f 30/40/53 36/45/52 2/49/41
f 9/1/35 39/6/32 40/3/42
f 39/47/32 20/16/29 1/41/33
f 39/6/32 1/14/33 33/11/51
f 40/3/42 39/6/32 41/8/19
f 35/34/56 36/45/52 30/40/53
f 39/6/32 42/9/46 41/8/38
f 39/6/32 33/11/51 42/9/46
f 35/34/56 22/36/54 36/45/52
f 42/9/3 33/11/6 41/8/19
f 40/3/42 41/8/19 43/5/16
f 26/28/49 35/34/56 30/40/53
f 20/16/29 39/47/32 9/57/35
f 40/55/28 43/68/28 44/56/34
f 9/1/35 40/3/42 44/4/34
f 37/60/17 44/56/34 43/68/1
f 37/60/17 9/57/35 44/56/34
f 43/68/1 38/66/12 37/60/17
f 31/17/4 45/12/2 32/20/13
f 34/22/5 45/12/2 31/17/4
f 43/68/1 34/75/5 38/66/12
f 43/68/1 45/78/2 34/75/5
f 38/19/12 34/22/5 10/39/36
f 33/11/6 45/12/11 41/8/19
f 43/5/16 41/8/19 45/12/11
f 33/11/14 32/20/13 45/12/2
