#
# Wavefront OBJ file
#
# Created by the Simplygon mesh optimization tool from Microsoft.
#

mtllib hp.mtl

g default
s off
s 1
v 57.227276 0.072753 -52.080624
v -57.319969 -3.594932 53.825302
v 57.246529 -0.516056 53.010063
v 52.810436 -21.220245 50.338711
v 32.711983 -18.595312 48.852501
v 35.333134 -22.410728 48.403648
v -54.688705 -17.059893 51.194481
v -32.546364 -18.831387 49.539284
v 34.824783 -18.226700 26.025658
v 52.424221 -22.514357 30.972002
v -34.767712 -19.219267 25.954426
v 32.692947 -18.606853 -48.716755
v 52.653652 -22.621607 -47.438992
v 35.307098 -22.438114 -47.455345
v 56.473339 -16.698654 -49.528095
v 56.636574 -16.709620 48.302124
v 52.514156 -18.605717 26.230925
v 32.757938 -18.506218 -29.675814
v -52.627247 -22.889048 -47.544777
v -57.215042 0.152441 -52.118210
v -55.113602 -12.346853 48.345970
v -54.121910 -18.368515 -27.345072
v -52.916527 -23.276512 48.781300
v -34.969986 -23.063707 48.749851
vt 0.003414 0.288188
vt 0.007111 0.109632
vt 0.007160 0.008202
vt 0.017086 0.994630
vt 0.021511 0.250758
vt 0.035990 0.536451
vt 0.036477 0.896375
vt 0.037429 0.127834
vt 0.038559 0.405758
vt 0.043066 0.518428
vt 0.045776 0.440120
vt 0.121842 0.534887
vt 0.127611 0.910018
vt 0.134883 0.130699
vt 0.140297 0.237799
vt 0.158902 0.113587
vt 0.285935 0.420359
vt 0.355244 0.822626
vt 0.360993 0.455856
vt 0.451526 0.951470
vt 0.453811 0.901778
vt 0.460835 0.441262
vt 0.465863 0.932111
vt 0.466305 0.732631
vt 0.472921 0.992170
vt 0.494317 0.328169
vt 0.509634 0.291664
vt 0.534841 0.753663
vt 0.547744 0.344431
vt 0.547997 0.111859
vt 0.568832 0.247430
vt 0.573514 0.128492
vt 0.600644 0.252854
vt 0.621608 0.263555
vt 0.673103 0.130324
vt 0.684955 0.093058
vt 0.688029 0.144599
vt 0.688822 0.062358
vt 0.695241 0.003414
vt 0.963632 0.233883
vt 0.985785 0.331008
vt 0.992499 0.757670
vn -0.989469 -0.144563 -0.007337
vn -0.987955 -0.153948 -0.015653
vn -0.987262 -0.159052 -0.004092
vn -0.986753 -0.162119 -0.005946
vn -0.979588 -0.194710 -0.049956
vn -0.963645 -0.267168 0.003060
vn -0.943783 -0.330527 0.005001
vn -0.232670 -0.961249 0.147866
vn -0.104005 -0.994351 -0.021215
vn -0.073528 -0.997274 0.006213
vn -0.057720 0.285185 0.956733
vn -0.028455 0.999577 0.005950
vn -0.027907 -0.999610 0.001080
vn -0.020192 -0.179019 0.983638
vn -0.014866 0.999677 0.020619
vn -0.013426 0.999664 0.022173
vn -0.011094 -0.187843 -0.982136
vn -0.010134 -0.999949 0.000213
vn -0.009189 -0.179523 -0.983711
vn -0.005471 -0.626558 0.779356
vn -0.005157 -0.164329 -0.986392
vn -0.001703 -0.137133 -0.990551
vn -0.001347 -0.148168 -0.988961
vn -0.000000 0.999328 0.036649
vn 0.002760 -0.220184 0.975454
vn 0.015645 -0.999288 0.034339
vn 0.020000 -0.500834 0.865313
vn 0.026059 -0.999536 -0.015802
vn 0.028030 -0.233301 0.972000
vn 0.040874 -0.979612 0.196697
vn 0.043937 -0.404576 0.913448
vn 0.053021 -0.190287 0.980296
vn 0.053891 -0.976529 0.208533
vn 0.091066 -0.992361 -0.083222
vn 0.202097 -0.966661 -0.157236
vn 0.214668 -0.966268 -0.142283
vn 0.259374 -0.846187 0.465502
vn 0.296990 -0.954492 -0.027216
vn 0.300671 -0.951818 -0.060336
vn 0.991405 -0.130794 0.002970
vn 0.997110 -0.075937 0.002459
vn 0.999796 -0.020045 -0.002315
vn 0.999975 -0.007058 -0.000042
usemtl (null)
f 1/29/15 2/42/16 3/28/12
f 4/8/37 5/16/20 6/14/8
f 7/36/11 5/16/20 3/3/29
f 5/16/20 7/36/11 8/30/30
f 9/15/18 10/5/35 6/14/8
f 9/15/18 6/14/8 5/16/20
f 5/16/20 11/31/28 9/15/18
f 12/34/23 13/27/39 14/33/9
f 13/27/39 12/34/23 15/26/21
f 1/29/22 15/26/21 12/34/23
f 15/26/40 1/29/42 16/24/41
f 14/10/9 17/19/38 18/12/10
f 13/11/39 17/19/38 14/10/9
f 11/31/28 18/17/10 9/15/18
f 12/6/13 14/10/9 18/12/10
f 13/11/39 15/9/40 17/19/38
f 17/19/38 15/9/40 16/22/41
f 9/15/18 18/17/10 17/1/38
f 9/15/18 17/1/38 10/5/35
f 16/2/41 10/5/35 17/1/38
f 12/6/13 18/12/10 11/18/28
f 19/40/17 20/41/19 12/34/23
f 12/34/23 20/41/19 1/29/22
f 21/38/14 3/3/29 2/39/27
f 6/14/8 10/5/35 4/8/37
f 10/5/35 16/2/41 4/8/37
f 16/2/32 5/16/20 4/8/37
f 16/2/32 3/3/29 5/16/20
f 1/29/15 20/41/24 2/42/16
f 3/3/29 21/38/14 7/36/11
f 22/13/1 21/20/3 20/4/2
f 7/36/11 23/35/31 8/30/30
f 24/32/25 8/30/30 23/35/31
f 11/31/28 5/16/20 8/30/30
f 11/31/28 8/30/30 24/32/36
f 11/31/28 24/32/36 23/37/34
f 16/24/41 1/29/42 3/28/43
f 12/6/13 11/18/28 22/13/26
f 19/7/33 12/6/13 22/13/26
f 20/4/2 21/20/3 2/25/4
f 7/23/6 21/20/3 22/13/1
f 22/13/26 11/18/28 23/21/34
f 22/13/1 23/21/7 7/23/6
f 19/7/5 22/13/1 20/4/2
