mtllib mesh.mtl
g default
v -1.0 0.0 1.0 
v -0.800000011920929 0.0 1.0 
v -0.6000000238418579 0.0 1.0 
v -0.4000000059604645 0.0 1.0 
v -0.20000000298023224 0.0 1.0 
v 0.0 0.0 1.0 
v 0.20000000298023224 0.0 1.0 
v 0.4000000059604645 0.0 1.0 
v 0.6000000238418579 0.0 1.0 
v 0.800000011920929 0.0 1.0 
v 1.0 0.0 1.0 
v -1.0 0.0 0.800000011920929 
v -0.800000011920929 0.0 0.800000011920929 
v -0.6000000238418579 0.0 0.800000011920929 
v -0.4000000059604645 0.0 0.800000011920929 
v -0.20000000298023224 0.0 0.800000011920929 
v 0.0 0.0 0.800000011920929 
v 0.20000000298023224 0.0 0.800000011920929 
v 0.4000000059604645 0.0 0.800000011920929 
v 0.6000000238418579 0.0 0.800000011920929 
v 0.800000011920929 0.0 0.800000011920929 
v 1.0 0.0 0.800000011920929 
v -1.0 0.0 0.6000000238418579 
v -0.800000011920929 0.0 0.6000000238418579 
v -0.6000000238418579 0.0 0.6000000238418579 
v -0.4000000059604645 0.0 0.6000000238418579 
v -0.20000000298023224 0.0 0.6000000238418579 
v 0.0 0.0 0.6000000238418579 
v 0.20000000298023224 0.0 0.6000000238418579 
v 0.4000000059604645 0.0 0.6000000238418579 
v 0.6000000238418579 0.0 0.6000000238418579 
v 0.800000011920929 0.0 0.6000000238418579 
v 1.0 0.0 0.6000000238418579 
v -1.0 0.0 0.4000000059604645 
v -0.800000011920929 0.0 0.4000000059604645 
v -0.6000000238418579 0.0 0.4000000059604645 
v -0.4000000059604645 0.0 0.4000000059604645 
v -0.20000000298023224 0.0 0.4000000059604645 
v 0.0 0.0 0.4000000059604645 
v 0.20000000298023224 0.0 0.4000000059604645 
v 0.4000000059604645 0.0 0.4000000059604645 
v 0.6000000238418579 0.0 0.4000000059604645 
v 0.800000011920929 0.0 0.4000000059604645 
v 1.0 0.0 0.4000000059604645 
v -1.0 0.0 0.20000000298023224 
v -0.800000011920929 0.0 0.20000000298023224 
v -0.6000000238418579 0.0 0.20000000298023224 
v -0.4000000059604645 0.0 0.20000000298023224 
v -0.20000000298023224 0.0 0.20000000298023224 
v 0.0 0.0 0.20000000298023224 
v 0.20000000298023224 0.0 0.20000000298023224 
v 0.4000000059604645 0.0 0.20000000298023224 
v 0.6000000238418579 0.0 0.20000000298023224 
v 0.800000011920929 0.0 0.20000000298023224 
v 1.0 0.0 0.20000000298023224 
v -1.0 0.0 0.0 
v -0.800000011920929 0.0 0.0 
v -0.6000000238418579 0.0 0.0 
v -0.4000000059604645 0.0 0.0 
v -0.20000000298023224 0.0 0.0 
v 0.0 0.0 0.0 
v 0.20000000298023224 0.0 0.0 
v 0.4000000059604645 0.0 0.0 
v 0.6000000238418579 0.0 0.0 
v 0.800000011920929 0.0 0.0 
v 1.0 0.0 0.0 
v -1.0 0.0 -0.20000000298023224 
v -0.800000011920929 0.0 -0.20000000298023224 
v -0.6000000238418579 0.0 -0.20000000298023224 
v -0.4000000059604645 0.0 -0.20000000298023224 
v -0.20000000298023224 0.0 -0.20000000298023224 
v 0.0 0.0 -0.20000000298023224 
v 0.20000000298023224 0.0 -0.20000000298023224 
v 0.4000000059604645 0.0 -0.20000000298023224 
v 0.6000000238418579 0.0 -0.20000000298023224 
v 0.800000011920929 0.0 -0.20000000298023224 
v 1.0 0.0 -0.20000000298023224 
v -1.0 0.0 -0.4000000059604645 
v -0.800000011920929 0.0 -0.4000000059604645 
v -0.6000000238418579 0.0 -0.4000000059604645 
v -0.4000000059604645 0.0 -0.4000000059604645 
v -0.20000000298023224 0.0 -0.4000000059604645 
v 0.0 0.0 -0.4000000059604645 
v 0.20000000298023224 0.0 -0.4000000059604645 
v 0.4000000059604645 0.0 -0.4000000059604645 
v 0.6000000238418579 0.0 -0.4000000059604645 
v 0.800000011920929 0.0 -0.4000000059604645 
v 1.0 0.0 -0.4000000059604645 
v -1.0 0.0 -0.6000000238418579 
v -0.800000011920929 0.0 -0.6000000238418579 
v -0.6000000238418579 0.0 -0.6000000238418579 
v -0.4000000059604645 0.0 -0.6000000238418579 
v -0.20000000298023224 0.0 -0.6000000238418579 
v 0.0 0.0 -0.6000000238418579 
v 0.20000000298023224 0.0 -0.6000000238418579 
v 0.4000000059604645 0.0 -0.6000000238418579 
v 0.6000000238418579 0.0 -0.6000000238418579 
v 0.800000011920929 0.0 -0.6000000238418579 
v 1.0 0.0 -0.6000000238418579 
v -1.0 0.0 -0.800000011920929 
v -0.800000011920929 0.0 -0.800000011920929 
v -0.6000000238418579 0.0 -0.800000011920929 
v -0.4000000059604645 0.0 -0.800000011920929 
v -0.20000000298023224 0.0 -0.800000011920929 
v 0.0 0.0 -0.800000011920929 
v 0.20000000298023224 0.0 -0.800000011920929 
v 0.4000000059604645 0.0 -0.800000011920929 
v 0.6000000238418579 0.0 -0.800000011920929 
v 0.800000011920929 0.0 -0.800000011920929 
v 1.0 0.0 -0.800000011920929 
v -1.0 0.0 -1.0 
v -0.800000011920929 0.0 -1.0 
v -0.6000000238418579 0.0 -1.0 
v -0.4000000059604645 0.0 -1.0 
v -0.20000000298023224 0.0 -1.0 
v 0.0 0.0 -1.0 
v 0.20000000298023224 0.0 -1.0 
v 0.4000000059604645 0.0 -1.0 
v 0.6000000238418579 0.0 -1.0 
v 0.800000011920929 0.0 -1.0 
v 1.0 0.0 -1.0 
vt 0.10000000149011612 0.0 
vt 0.0 0.10000002384185791 
vt 0.0 0.0 
vt 0.20000000298023224 0.0 
vt 0.10000000149011612 0.10000002384185791 
vt 0.30000001192092896 0.0 
vt 0.20000000298023224 0.10000002384185791 
vt 0.4000000059604645 0.0 
vt 0.30000001192092896 0.10000002384185791 
vt 0.5 0.0 
vt 0.4000000059604645 0.10000002384185791 
vt 0.6000000238418579 0.0 
vt 0.5 0.10000002384185791 
vt 0.699999988079071 0.0 
vt 0.6000000238418579 0.10000002384185791 
vt 0.800000011920929 0.0 
vt 0.699999988079071 0.10000002384185791 
vt 0.8999999761581421 0.0 
vt 0.800000011920929 0.10000002384185791 
vt 1.0 0.0 
vt 0.8999999761581421 0.10000002384185791 
vt 0.0 0.19999998807907104 
vt 0.10000000149011612 0.19999998807907104 
vt 0.20000000298023224 0.19999998807907104 
vt 0.30000001192092896 0.19999998807907104 
vt 0.4000000059604645 0.19999998807907104 
vt 0.5 0.19999998807907104 
vt 0.6000000238418579 0.19999998807907104 
vt 0.699999988079071 0.19999998807907104 
vt 0.800000011920929 0.19999998807907104 
vt 1.0 0.10000002384185791 
vt 0.8999999761581421 0.19999998807907104 
vt 0.0 0.30000001192092896 
vt 0.10000000149011612 0.30000001192092896 
vt 0.20000000298023224 0.30000001192092896 
vt 0.30000001192092896 0.30000001192092896 
vt 0.4000000059604645 0.30000001192092896 
vt 0.5 0.30000001192092896 
vt 0.6000000238418579 0.30000001192092896 
vt 0.699999988079071 0.30000001192092896 
vt 0.800000011920929 0.30000001192092896 
vt 1.0 0.19999998807907104 
vt 0.8999999761581421 0.30000001192092896 
vt 0.0 0.3999999761581421 
vt 0.10000000149011612 0.3999999761581421 
vt 0.20000000298023224 0.3999999761581421 
vt 0.30000001192092896 0.3999999761581421 
vt 0.4000000059604645 0.3999999761581421 
vt 0.5 0.3999999761581421 
vt 0.6000000238418579 0.3999999761581421 
vt 0.699999988079071 0.3999999761581421 
vt 0.800000011920929 0.3999999761581421 
vt 1.0 0.30000001192092896 
vt 0.8999999761581421 0.3999999761581421 
vt 0.0 0.5 
vt 0.10000000149011612 0.5 
vt 0.20000000298023224 0.5 
vt 0.30000001192092896 0.5 
vt 0.4000000059604645 0.5 
vt 0.5 0.5 
vt 0.6000000238418579 0.5 
vt 0.699999988079071 0.5 
vt 0.800000011920929 0.5 
vt 1.0 0.3999999761581421 
vt 0.8999999761581421 0.5 
vt 0.0 0.5999999940395355 
vt 0.10000000149011612 0.5999999940395355 
vt 0.20000000298023224 0.5999999940395355 
vt 0.30000001192092896 0.5999999940395355 
vt 0.4000000059604645 0.5999999940395355 
vt 0.5 0.5999999940395355 
vt 0.6000000238418579 0.5999999940395355 
vt 0.699999988079071 0.5999999940395355 
vt 0.800000011920929 0.5999999940395355 
vt 1.0 0.5 
vt 0.8999999761581421 0.5999999940395355 
vt 0.0 0.699999988079071 
vt 0.10000000149011612 0.699999988079071 
vt 0.20000000298023224 0.699999988079071 
vt 0.30000001192092896 0.699999988079071 
vt 0.4000000059604645 0.699999988079071 
vt 0.5 0.699999988079071 
vt 0.6000000238418579 0.699999988079071 
vt 0.699999988079071 0.699999988079071 
vt 0.800000011920929 0.699999988079071 
vt 1.0 0.5999999940395355 
vt 0.8999999761581421 0.699999988079071 
vt 0.0 0.7999999970197678 
vt 0.10000000149011612 0.7999999970197678 
vt 0.20000000298023224 0.7999999970197678 
vt 0.30000001192092896 0.7999999970197678 
vt 0.4000000059604645 0.7999999970197678 
vt 0.5 0.7999999970197678 
vt 0.6000000238418579 0.7999999970197678 
vt 0.699999988079071 0.7999999970197678 
vt 0.800000011920929 0.7999999970197678 
vt 1.0 0.699999988079071 
vt 0.8999999761581421 0.7999999970197678 
vt 0.0 0.8999999985098839 
vt 0.10000000149011612 0.8999999985098839 
vt 0.20000000298023224 0.8999999985098839 
vt 0.30000001192092896 0.8999999985098839 
vt 0.4000000059604645 0.8999999985098839 
vt 0.5 0.8999999985098839 
vt 0.6000000238418579 0.8999999985098839 
vt 0.699999988079071 0.8999999985098839 
vt 0.800000011920929 0.8999999985098839 
vt 1.0 0.7999999970197678 
vt 0.8999999761581421 0.8999999985098839 
vt 0.0 1.0 
vt 0.10000000149011612 1.0 
vt 0.20000000298023224 1.0 
vt 0.30000001192092896 1.0 
vt 0.4000000059604645 1.0 
vt 0.5 1.0 
vt 0.6000000238418579 1.0 
vt 0.699999988079071 1.0 
vt 0.800000011920929 1.0 
vt 1.0 0.8999999985098839 
vt 0.8999999761581421 1.0 
vt 1.0 1.0 
vn 0.0 1.0 0.0
vn 0.0 1.0 0.0
vn 0.0 1.0 0.0
vn 0.0 1.0 0.0
vn 0.0 1.0 0.0
vn 0.0 1.0 0.0
vn 0.0 1.0 0.0
vn 0.0 1.0 0.0
vn 0.0 1.0 0.0
vn 0.0 1.0 0.0
vn 0.0 1.0 0.0
vn 0.0 1.0 0.0
vn 0.0 1.0 0.0
vn 0.0 1.0 0.0
vn 0.0 1.0 0.0
vn 0.0 1.0 0.0
vn 0.0 1.0 0.0
vn 0.0 1.0 0.0
vn 0.0 1.0 0.0
vn 0.0 1.0 0.0
vn 0.0 1.0 0.0
vn 0.0 1.0 0.0
vn 0.0 1.0 0.0
vn 0.0 1.0 0.0
vn 0.0 1.0 0.0
vn 0.0 1.0 0.0
vn 0.0 1.0 0.0
vn 0.0 1.0 0.0
vn 0.0 1.0 0.0
vn 0.0 1.0 0.0
vn 0.0 1.0 0.0
vn 0.0 1.0 0.0
vn 0.0 1.0 0.0
vn 0.0 1.0 0.0
vn 0.0 1.0 0.0
vn 0.0 1.0 0.0
vn 0.0 1.0 0.0
vn 0.0 1.0 0.0
vn 0.0 1.0 0.0
vn 0.0 1.0 0.0
vn 0.0 1.0 0.0
vn 0.0 1.0 0.0
vn 0.0 1.0 0.0
vn 0.0 1.0 0.0
vn 0.0 1.0 0.0
vn 0.0 1.0 0.0
vn 0.0 1.0 0.0
vn 0.0 1.0 0.0
vn 0.0 1.0 0.0
vn 0.0 1.0 0.0
vn 0.0 1.0 0.0
vn 0.0 1.0 0.0
vn 0.0 1.0 0.0
vn 0.0 1.0 0.0
vn 0.0 1.0 0.0
vn 0.0 1.0 0.0
vn 0.0 1.0 0.0
vn 0.0 1.0 0.0
vn 0.0 1.0 0.0
vn 0.0 1.0 0.0
vn 0.0 1.0 0.0
vn 0.0 1.0 0.0
vn 0.0 1.0 0.0
vn 0.0 1.0 0.0
vn 0.0 1.0 0.0
vn 0.0 1.0 0.0
vn 0.0 1.0 0.0
vn 0.0 1.0 0.0
vn 0.0 1.0 0.0
vn 0.0 1.0 0.0
vn 0.0 1.0 0.0
vn 0.0 1.0 0.0
vn 0.0 1.0 0.0
vn 0.0 1.0 0.0
vn 0.0 1.0 0.0
vn 0.0 1.0 0.0
vn 0.0 1.0 0.0
vn 0.0 1.0 0.0
vn 0.0 1.0 0.0
vn 0.0 1.0 0.0
vn 0.0 1.0 0.0
vn 0.0 1.0 0.0
vn 0.0 1.0 0.0
vn 0.0 1.0 0.0
vn 0.0 1.0 0.0
vn 0.0 1.0 0.0
vn 0.0 1.0 0.0
vn 0.0 1.0 0.0
vn 0.0 1.0 0.0
vn 0.0 1.0 0.0
vn 0.0 1.0 0.0
vn 0.0 1.0 0.0
vn 0.0 1.0 0.0
vn 0.0 1.0 0.0
vn 0.0 1.0 0.0
vn 0.0 1.0 0.0
vn 0.0 1.0 0.0
vn 0.0 1.0 0.0
vn 0.0 1.0 0.0
vn 0.0 1.0 0.0
vn 0.0 1.0 0.0
vn 0.0 1.0 0.0
vn 0.0 1.0 0.0
vn 0.0 1.0 0.0
vn 0.0 1.0 0.0
vn 0.0 1.0 0.0
vn 0.0 1.0 0.0
vn 0.0 1.0 0.0
vn 0.0 1.0 0.0
vn 0.0 1.0 0.0
vn 0.0 1.0 0.0
vn 0.0 1.0 0.0
vn 0.0 1.0 0.0
vn 0.0 1.0 0.0
vn 0.0 1.0 0.0
vn 0.0 1.0 0.0
vn 0.0 1.0 0.0
vn 0.0 1.0 0.0
vn 0.0 1.0 0.0
vn 0.0 1.0 0.0
vn 0.0 1.0 0.0
s 1 
g pMesh1
usemtl defaultMat
f  2/1/2 12/2/12 1/3/1
f  3/4/3 13/5/13 2/1/2
f  4/6/4 14/7/14 3/4/3
f  5/8/5 15/9/15 4/6/4
f  6/10/6 16/11/16 5/8/5
f  7/12/7 17/13/17 6/10/6
f  8/14/8 18/15/18 7/12/7
f  9/16/9 19/17/19 8/14/8
f  10/18/10 20/19/20 9/16/9
f  11/20/11 21/21/21 10/18/10
f  13/5/13 23/22/23 12/2/12
f  14/7/14 24/23/24 13/5/13
f  15/9/15 25/24/25 14/7/14
f  16/11/16 26/25/26 15/9/15
f  17/13/17 27/26/27 16/11/16
f  18/15/18 28/27/28 17/13/17
f  19/17/19 29/28/29 18/15/18
f  20/19/20 30/29/30 19/17/19
f  21/21/21 31/30/31 20/19/20
f  22/31/22 32/32/32 21/21/21
f  24/23/24 34/33/34 23/22/23
f  25/24/25 35/34/35 24/23/24
f  26/25/26 36/35/36 25/24/25
f  27/26/27 37/36/37 26/25/26
f  28/27/28 38/37/38 27/26/27
f  29/28/29 39/38/39 28/27/28
f  30/29/30 40/39/40 29/28/29
f  31/30/31 41/40/41 30/29/30
f  32/32/32 42/41/42 31/30/31
f  33/42/33 43/43/43 32/32/32
f  35/34/35 45/44/45 34/33/34
f  36/35/36 46/45/46 35/34/35
f  37/36/37 47/46/47 36/35/36
f  38/37/38 48/47/48 37/36/37
f  39/38/39 49/48/49 38/37/38
f  40/39/40 50/49/50 39/38/39
f  41/40/41 51/50/51 40/39/40
f  42/41/42 52/51/52 41/40/41
f  43/43/43 53/52/53 42/41/42
f  44/53/44 54/54/54 43/43/43
f  46/45/46 56/55/56 45/44/45
f  47/46/47 57/56/57 46/45/46
f  48/47/48 58/57/58 47/46/47
f  49/48/49 59/58/59 48/47/48
f  50/49/50 60/59/60 49/48/49
f  51/50/51 61/60/61 50/49/50
f  52/51/52 62/61/62 51/50/51
f  53/52/53 63/62/63 52/51/52
f  54/54/54 64/63/64 53/52/53
f  55/64/55 65/65/65 54/54/54
f  57/56/57 67/66/67 56/55/56
f  58/57/58 68/67/68 57/56/57
f  59/58/59 69/68/69 58/57/58
f  60/59/60 70/69/70 59/58/59
f  61/60/61 71/70/71 60/59/60
f  62/61/62 72/71/72 61/60/61
f  63/62/63 73/72/73 62/61/62
f  64/63/64 74/73/74 63/62/63
f  65/65/65 75/74/75 64/63/64
f  66/75/66 76/76/76 65/65/65
f  68/67/68 78/77/78 67/66/67
f  69/68/69 79/78/79 68/67/68
f  70/69/70 80/79/80 69/68/69
f  71/70/71 81/80/81 70/69/70
f  72/71/72 82/81/82 71/70/71
f  73/72/73 83/82/83 72/71/72
f  74/73/74 84/83/84 73/72/73
f  75/74/75 85/84/85 74/73/74
f  76/76/76 86/85/86 75/74/75
f  77/86/77 87/87/87 76/76/76
f  79/78/79 89/88/89 78/77/78
f  80/79/80 90/89/90 79/78/79
f  81/80/81 91/90/91 80/79/80
f  82/81/82 92/91/92 81/80/81
f  83/82/83 93/92/93 82/81/82
f  84/83/84 94/93/94 83/82/83
f  85/84/85 95/94/95 84/83/84
f  86/85/86 96/95/96 85/84/85
f  87/87/87 97/96/97 86/85/86
f  88/97/88 98/98/98 87/87/87
f  90/89/90 100/99/100 89/88/89
f  91/90/91 101/100/101 90/89/90
f  92/91/92 102/101/102 91/90/91
f  93/92/93 103/102/103 92/91/92
f  94/93/94 104/103/104 93/92/93
f  95/94/95 105/104/105 94/93/94
f  96/95/96 106/105/106 95/94/95
f  97/96/97 107/106/107 96/95/96
f  98/98/98 108/107/108 97/96/97
f  99/108/99 109/109/109 98/98/98
f  101/100/101 111/110/111 100/99/100
f  102/101/102 112/111/112 101/100/101
f  103/102/103 113/112/113 102/101/102
f  104/103/104 114/113/114 103/102/103
f  105/104/105 115/114/115 104/103/104
f  106/105/106 116/115/116 105/104/105
f  107/106/107 117/116/117 106/105/106
f  108/107/108 118/117/118 107/106/107
f  109/109/109 119/118/119 108/107/108
f  110/119/110 120/120/120 109/109/109
f  2/1/2 13/5/13 12/2/12
f  3/4/3 14/7/14 13/5/13
f  4/6/4 15/9/15 14/7/14
f  5/8/5 16/11/16 15/9/15
f  6/10/6 17/13/17 16/11/16
f  7/12/7 18/15/18 17/13/17
f  8/14/8 19/17/19 18/15/18
f  9/16/9 20/19/20 19/17/19
f  10/18/10 21/21/21 20/19/20
f  11/20/11 22/31/22 21/21/21
f  13/5/13 24/23/24 23/22/23
f  14/7/14 25/24/25 24/23/24
f  15/9/15 26/25/26 25/24/25
f  16/11/16 27/26/27 26/25/26
f  17/13/17 28/27/28 27/26/27
f  18/15/18 29/28/29 28/27/28
f  19/17/19 30/29/30 29/28/29
f  20/19/20 31/30/31 30/29/30
f  21/21/21 32/32/32 31/30/31
f  22/31/22 33/42/33 32/32/32
f  24/23/24 35/34/35 34/33/34
f  25/24/25 36/35/36 35/34/35
f  26/25/26 37/36/37 36/35/36
f  27/26/27 38/37/38 37/36/37
f  28/27/28 39/38/39 38/37/38
f  29/28/29 40/39/40 39/38/39
f  30/29/30 41/40/41 40/39/40
f  31/30/31 42/41/42 41/40/41
f  32/32/32 43/43/43 42/41/42
f  33/42/33 44/53/44 43/43/43
f  35/34/35 46/45/46 45/44/45
f  36/35/36 47/46/47 46/45/46
f  37/36/37 48/47/48 47/46/47
f  38/37/38 49/48/49 48/47/48
f  39/38/39 50/49/50 49/48/49
f  40/39/40 51/50/51 50/49/50
f  41/40/41 52/51/52 51/50/51
f  42/41/42 53/52/53 52/51/52
f  43/43/43 54/54/54 53/52/53
f  44/53/44 55/64/55 54/54/54
f  46/45/46 57/56/57 56/55/56
f  47/46/47 58/57/58 57/56/57
f  48/47/48 59/58/59 58/57/58
f  49/48/49 60/59/60 59/58/59
f  50/49/50 61/60/61 60/59/60
f  51/50/51 62/61/62 61/60/61
f  52/51/52 63/62/63 62/61/62
f  53/52/53 64/63/64 63/62/63
f  54/54/54 65/65/65 64/63/64
f  55/64/55 66/75/66 65/65/65
f  57/56/57 68/67/68 67/66/67
f  58/57/58 69/68/69 68/67/68
f  59/58/59 70/69/70 69/68/69
f  60/59/60 71/70/71 70/69/70
f  61/60/61 72/71/72 71/70/71
f  62/61/62 73/72/73 72/71/72
f  63/62/63 74/73/74 73/72/73
f  64/63/64 75/74/75 74/73/74
f  65/65/65 76/76/76 75/74/75
f  66/75/66 77/86/77 76/76/76
f  68/67/68 79/78/79 78/77/78
f  69/68/69 80/79/80 79/78/79
f  70/69/70 81/80/81 80/79/80
f  71/70/71 82/81/82 81/80/81
f  72/71/72 83/82/83 82/81/82
f  73/72/73 84/83/84 83/82/83
f  74/73/74 85/84/85 84/83/84
f  75/74/75 86/85/86 85/84/85
f  76/76/76 87/87/87 86/85/86
f  77/86/77 88/97/88 87/87/87
f  79/78/79 90/89/90 89/88/89
f  80/79/80 91/90/91 90/89/90
f  81/80/81 92/91/92 91/90/91
f  82/81/82 93/92/93 92/91/92
f  83/82/83 94/93/94 93/92/93
f  84/83/84 95/94/95 94/93/94
f  85/84/85 96/95/96 95/94/95
f  86/85/86 97/96/97 96/95/96
f  87/87/87 98/98/98 97/96/97
f  88/97/88 99/108/99 98/98/98
f  90/89/90 101/100/101 100/99/100
f  91/90/91 102/101/102 101/100/101
f  92/91/92 103/102/103 102/101/102
f  93/92/93 104/103/104 103/102/103
f  94/93/94 105/104/105 104/103/104
f  95/94/95 106/105/106 105/104/105
f  96/95/96 107/106/107 106/105/106
f  97/96/97 108/107/108 107/106/107
f  98/98/98 109/109/109 108/107/108
f  99/108/99 110/119/110 109/109/109
f  101/100/101 112/111/112 111/110/111
f  102/101/102 113/112/113 112/111/112
f  103/102/103 114/113/114 113/112/113
f  104/103/104 115/114/115 114/113/114
f  105/104/105 116/115/116 115/114/115
f  106/105/106 117/116/117 116/115/116
f  107/106/107 118/117/118 117/116/117
f  108/107/108 119/118/119 118/117/118
f  109/109/109 120/120/120 119/118/119
f  110/119/110 121/121/121 120/120/120
