#
# Wavefront OBJ file
#
# Created by the Simplygon mesh optimization tool from Microsoft.
#

mtllib hp.mtl

g default
s off
s 1
v 3.727177 5.183554 -1.236399
v 4.028433 6.545880 0.725382
v 3.516340 4.824872 -0.716748
v 2.717765 4.677539 -0.687278
v 3.051358 4.616618 0.164205
v 3.657993 3.865444 -0.246033
v 3.536531 8.232370 -0.264635
v 2.692881 7.547864 1.056165
v 1.933638 5.686315 0.635216
v 4.280570 7.050437 -0.097200
v 3.994615 7.551719 -1.225935
v 4.081695 7.870152 -0.753261
v 3.211938 7.375258 -1.529577
v 3.683621 3.502446 -0.963149
v 3.829992 3.503250 0.401081
v 3.875889 2.688668 -0.884042
v 3.663986 1.269899 0.337606
v 3.628666 0.960038 0.773958
v 3.046302 0.557450 0.333703
v 3.498887 3.842968 -0.588922
v 3.049412 0.722345 0.914366
v 2.881809 3.836620 -0.700373
v 3.188991 1.272940 1.255996
v 2.577021 3.515082 -1.001251
v 1.892092 7.767437 0.067580
v 2.041591 7.830300 -1.061793
v 1.290206 7.022947 -0.597151
v 0.680091 7.344250 0.411748
v 0.685591 7.573967 -0.237996
v -0.439339 7.821269 -0.077879
v -0.285232 7.661339 -0.737060
v 1.953245 5.019294 -0.108543
v 1.889321 7.058812 0.794349
v 1.856870 6.332691 0.571108
v 1.790335 5.164668 -1.229839
v 2.606733 4.460536 -0.267557
v 1.585338 5.482006 1.086763
v 1.081924 6.289708 0.415912
v 1.560082 4.203636 0.232908
v 1.709843 4.498808 -0.901494
v 1.662349 6.852315 -1.041876
v 0.708142 3.940170 0.189428
v -0.307217 7.355042 0.852151
v -1.661381 5.654088 1.063197
v -0.113097 3.943013 0.462800
v -0.144905 6.359637 0.607828
v -0.759182 7.502806 0.414381
v 0.737808 4.657668 -1.405506
v 0.543937 4.145638 -0.692301
v -0.473790 7.007514 -1.292292
v 2.408398 2.683352 -0.896064
v 2.407061 1.771909 1.212672
v 2.567191 1.291373 0.355863
v 2.292985 1.107757 0.797059
v 1.741528 0.387995 0.236499
v 1.771383 1.371510 -1.093240
v 1.327792 2.463843 0.223859
v 0.838939 3.964330 -0.225238
v 1.344299 3.311189 -0.369360
v 1.395034 3.356398 0.063629
v 1.044587 2.406749 -0.674783
v 0.402027 2.968978 -0.655035
v 1.248262 0.785043 0.521690
v 0.857197 3.435567 -0.360839
v 1.097036 2.647615 0.354105
v 0.904510 3.154572 0.221825
v 0.786447 1.950910 -0.838487
v -0.163440 2.723305 0.060207
v 0.096537 2.767424 -0.259248
v 0.689113 2.033563 0.045521
v 0.487833 0.717735 0.250258
v -0.461639 4.101945 -0.724191
v -0.335120 2.866496 -0.666861
v -0.812585 3.141801 0.108206
v 0.436159 0.045028 -0.926452
v -0.875196 1.798407 -1.027467
v -0.799645 3.327548 -0.560727
v -0.683473 1.972937 0.058713
v 0.937371 0.047372 -1.233879
v 1.769896 0.045931 -1.104807
v 1.405241 0.045229 0.951849
v 0.941151 0.351013 1.177456
v 0.948352 0.076185 1.120664
v -0.497526 0.390253 0.407928
v -0.523911 0.076330 -1.079721
v -0.552998 1.396819 -1.058931
v -1.957803 7.961809 -1.255374
v -3.117817 8.235736 -0.080581
v -1.802469 7.616614 0.406306
v -3.126168 7.887650 0.705852
v -3.753601 7.885812 0.405055
v -1.619942 6.842729 -1.048032
v -3.622484 7.548163 -1.566561
v -0.611736 6.909801 0.875242
v -0.939546 6.664030 0.421737
v -1.161284 6.815820 -0.091785
v -1.866128 7.052979 0.874312
v -1.898341 6.185223 0.600795
v -1.559149 4.294274 0.260099
v -0.744684 4.104554 -0.245258
v -1.876115 5.145872 0.256513
v -1.861241 4.801126 -0.772543
v -1.763925 4.799176 -1.276147
v -3.298253 6.048223 0.970907
v -2.087487 4.941886 -0.253349
v -2.739768 4.451516 0.034758
v -2.028619 5.147985 -1.280214
v -1.892584 5.835051 -1.390625
v -2.754051 4.657944 -0.706192
v -4.221628 6.052075 0.718141
v -3.572910 4.632271 -0.122269
v -3.271350 4.010020 0.123728
v -2.283022 1.433135 1.185837
v -4.108025 7.033892 0.852361
v -3.458185 4.652272 -0.698309
v -3.761574 5.232878 -1.233302
v -2.435680 7.593324 -1.643581
v -1.168303 2.120392 0.629677
v -1.303220 0.870417 0.433615
v -1.175937 0.334383 1.164442
v -1.448323 3.292736 0.077823
v -1.667758 1.399247 -1.044169
v -1.898199 0.389210 -0.273378
v -2.493508 2.339326 -0.693128
v -2.640167 1.106780 0.328671
v -2.661483 3.526718 -0.987831
v -3.255393 1.269088 1.265695
v -2.962783 0.674540 0.952284
v -2.959556 0.544553 0.305884
v -3.766655 3.500997 0.557248
v -3.543153 0.576921 0.462733
v -3.350969 3.854249 -0.667929
v -3.762482 3.187676 -1.027973
v -3.626491 3.858892 -0.247243
v -1.335401 0.405796 -1.221219
v -1.042686 0.056361 1.090983
v -1.355322 0.076015 0.936796
v -1.819265 0.091524 -0.781933
v -4.247369 7.545488 -1.083302
v -4.569215 6.211125 -0.055354
vt 0.002863 0.102781
vt 0.002863 0.631658
vt 0.007475 0.488137
vt 0.009449 0.068738
vt 0.010675 0.250166
vt 0.021758 0.298003
vt 0.024033 0.333520
vt 0.037308 0.474351
vt 0.039868 0.424738
vt 0.041846 0.264466
vt 0.042675 0.760628
vt 0.045804 0.142302
vt 0.045832 0.801051
vt 0.045862 0.861728
vt 0.048293 0.327510
vt 0.052649 0.395214
vt 0.061394 0.002863
vt 0.063067 0.353313
vt 0.069194 0.568385
vt 0.073273 0.515812
vt 0.073670 0.089784
vt 0.073825 0.832827
vt 0.076658 0.185124
vt 0.080297 0.706478
vt 0.084397 0.742565
vt 0.086877 0.288918
vt 0.096620 0.798646
vt 0.098981 0.251352
vt 0.106843 0.125382
vt 0.107283 0.436947
vt 0.118243 0.862870
vt 0.123104 0.392573
vt 0.127507 0.059660
vt 0.132798 0.245409
vt 0.133542 0.713349
vt 0.135036 0.656572
vt 0.142729 0.188475
vt 0.143295 0.518573
vt 0.146591 0.460904
vt 0.151133 0.821037
vt 0.154813 0.526305
vt 0.165023 0.675399
vt 0.174738 0.553206
vt 0.177576 0.678644
vt 0.190059 0.085280
vt 0.191522 0.045318
vt 0.198306 0.468432
vt 0.204035 0.859950
vt 0.205039 0.109180
vt 0.210080 0.658509
vt 0.210483 0.444730
vt 0.216150 0.994083
vt 0.217770 0.923862
vt 0.217970 0.309458
vt 0.220986 0.451024
vt 0.221383 0.476730
vt 0.228633 0.148143
vt 0.231952 0.003463
vt 0.240599 0.553046
vt 0.242595 0.253305
vt 0.256640 0.679803
vt 0.260229 0.441677
vt 0.261923 0.189133
vt 0.268488 0.196996
vt 0.274438 0.499464
vt 0.282686 0.690210
vt 0.285655 0.608666
vt 0.287731 0.710427
vt 0.288492 0.042984
vt 0.290297 0.365826
vt 0.290695 0.819643
vt 0.293155 0.413171
vt 0.295493 0.089519
vt 0.296607 0.119735
vt 0.299337 0.132524
vt 0.299366 0.194181
vt 0.314599 0.773827
vt 0.320647 0.002863
vt 0.321222 0.771205
vt 0.321290 0.069113
vt 0.327576 0.279648
vt 0.327863 0.581206
vt 0.327919 0.231379
vt 0.336182 0.669335
vt 0.347695 0.622719
vt 0.353461 0.894580
vt 0.355241 0.449598
vt 0.355750 0.384177
vt 0.363589 0.687297
vt 0.364614 0.804417
vt 0.365720 0.631417
vt 0.366632 0.256558
vt 0.375580 0.524469
vt 0.379396 0.844776
vt 0.381730 0.859639
vt 0.387017 0.441236
vt 0.387303 0.072435
vt 0.392812 0.819269
vt 0.395014 0.546980
vt 0.398059 0.907363
vt 0.398798 0.977436
vt 0.400943 0.020772
vt 0.410176 0.634867
vt 0.414700 0.457481
vt 0.420437 0.539159
vt 0.420655 0.819328
vt 0.420767 0.352965
vt 0.421924 0.870340
vt 0.426700 0.932531
vt 0.428068 0.266127
vt 0.430597 0.366943
vt 0.444168 0.517041
vt 0.445671 0.216448
vt 0.449509 0.329188
vt 0.450571 0.297318
vt 0.450584 0.899032
vt 0.455870 0.434504
vt 0.459161 0.597742
vt 0.464187 0.904168
vt 0.469180 0.560259
vt 0.471522 0.870212
vt 0.471771 0.962188
vt 0.473082 0.468885
vt 0.474806 0.402651
vt 0.478275 0.671074
vt 0.484925 0.931604
vt 0.494527 0.050169
vt 0.496516 0.244450
vt 0.498975 0.316553
vt 0.505528 0.630625
vt 0.510384 0.088534
vt 0.510857 0.832264
vt 0.514589 0.197870
vt 0.517238 0.654181
vt 0.526232 0.311457
vt 0.528039 0.533201
vt 0.531221 0.579121
vt 0.533176 0.417656
vt 0.539418 0.617917
vt 0.539566 0.278006
vt 0.542406 0.029540
vt 0.544029 0.748847
vt 0.546147 0.538019
vt 0.546728 0.668648
vt 0.557699 0.806667
vt 0.559128 0.879219
vt 0.562256 0.910349
vt 0.576252 0.268891
vt 0.576361 0.237321
vt 0.576989 0.727917
vt 0.581122 0.639229
vt 0.585415 0.316663
vt 0.592707 0.800193
vt 0.599310 0.980090
vt 0.604425 0.322473
vt 0.604624 0.072521
vt 0.604811 0.848263
vt 0.605696 0.820522
vt 0.606379 0.739811
vt 0.608365 0.485751
vt 0.609098 0.702353
vt 0.617084 0.433337
vt 0.621411 0.530302
vt 0.626428 0.365705
vt 0.631769 0.406633
vt 0.632790 0.697740
vt 0.635251 0.706575
vt 0.635364 0.311557
vt 0.637078 0.354006
vt 0.638097 0.197684
vt 0.638378 0.233845
vt 0.639378 0.766535
vt 0.641441 0.641679
vt 0.654807 0.059006
vt 0.655802 0.977669
vt 0.657288 0.827781
vt 0.658042 0.458248
vt 0.667620 0.932371
vt 0.667763 0.846997
vt 0.670861 0.740038
vt 0.672067 0.893627
vt 0.672521 0.029324
vt 0.674749 0.275327
vt 0.675956 0.484751
vt 0.679304 0.779305
vt 0.695018 0.417715
vt 0.695283 0.235327
vt 0.699810 0.572991
vt 0.708506 0.824928
vt 0.711041 0.760691
vt 0.725991 0.084200
vt 0.728989 0.778272
vt 0.729212 0.142837
vt 0.729425 0.945572
vt 0.730354 0.091079
vt 0.731113 0.587873
vt 0.736124 0.698124
vt 0.739544 0.516781
vt 0.746137 0.924548
vt 0.751445 0.263255
vt 0.759107 0.652789
vt 0.759531 0.482217
vt 0.760327 0.387097
vt 0.766582 0.841869
vt 0.777710 0.974081
vt 0.789018 0.733908
vt 0.789648 0.579079
vt 0.797982 0.770902
vt 0.798923 0.561457
vt 0.805369 0.508117
vt 0.807386 0.269806
vt 0.809998 0.813965
vt 0.810866 0.206388
vt 0.812029 0.721875
vt 0.812463 0.262674
vt 0.813245 0.623687
vt 0.827136 0.572520
vt 0.827912 0.761826
vt 0.830206 0.328976
vt 0.831145 0.868465
vt 0.834958 0.826114
vt 0.839348 0.812162
vt 0.842171 0.962423
vt 0.847436 0.790393
vt 0.851023 0.003141
vt 0.855960 0.919514
vt 0.856237 0.760064
vt 0.858251 0.609779
vt 0.862022 0.797785
vt 0.863436 0.329456
vt 0.865980 0.113880
vt 0.867198 0.298408
vt 0.868219 0.868515
vt 0.886545 0.258722
vt 0.891839 0.019717
vt 0.895280 0.347854
vt 0.903312 0.935430
vt 0.904010 0.907621
vt 0.907157 0.125087
vt 0.914406 0.172383
vt 0.916175 0.850289
vt 0.919976 0.993985
vt 0.924639 0.075049
vt 0.925547 0.002863
vt 0.926406 0.851424
vt 0.930597 0.063909
vt 0.931699 0.002863
vt 0.943288 0.034278
vt 0.947003 0.097368
vt 0.986743 0.010836
vt 0.988351 0.059307
vn -0.996925 0.076435 -0.017297
vn -0.989646 0.133645 0.052341
vn -0.974482 -0.020295 0.223547
vn -0.971050 -0.047811 0.234044
vn -0.962956 0.268097 -0.028983
vn -0.952949 0.012314 0.302880
vn -0.950162 -0.216423 0.224394
vn -0.936988 -0.206293 -0.281950
vn -0.933372 -0.018847 0.358415
vn -0.932559 0.300593 0.199944
vn -0.926549 -0.279687 0.251559
vn -0.915463 0.401358 -0.028985
vn -0.896937 -0.436336 -0.071515
vn -0.871495 -0.417931 0.256576
vn -0.858087 0.315423 -0.405211
vn -0.850479 0.525994 0.004072
vn -0.844287 -0.512287 -0.157297
vn -0.830774 0.239154 -0.502614
vn -0.829383 0.140559 0.540710
vn -0.826320 -0.459747 0.325311
vn -0.812022 0.186011 0.553191
vn -0.797994 -0.237342 -0.553962
vn -0.724103 0.160902 0.670661
vn -0.713073 0.689429 0.127334
vn -0.685292 0.118597 -0.718547
vn -0.668644 0.693286 0.268830
vn -0.662787 -0.698164 -0.270703
vn -0.657712 -0.306904 -0.687913
vn -0.657217 -0.090444 0.748255
vn -0.649877 0.300279 0.698206
vn -0.633853 -0.459607 -0.622087
vn -0.628553 -0.398240 0.668077
vn -0.599368 0.335784 -0.726641
vn -0.595935 0.144095 0.789999
vn -0.576760 0.773428 0.262977
vn -0.576389 -0.809647 -0.110670
vn -0.569564 0.489655 0.660178
vn -0.564056 -0.728262 0.389199
vn -0.549473 0.196118 0.812168
vn -0.542655 0.013010 0.839855
vn -0.537920 -0.823587 0.179853
vn -0.525914 -0.464563 -0.712457
vn -0.516355 0.819791 0.247629
vn -0.505866 -0.751913 0.422760
vn -0.447302 -0.862148 0.237954
vn -0.419400 0.505699 0.753905
vn -0.405852 0.758697 -0.509572
vn -0.403893 -0.890424 -0.209800
vn -0.397264 -0.151643 0.905089
vn -0.389200 0.330011 -0.860010
vn -0.319200 -0.485764 -0.813723
vn -0.260410 0.198693 -0.944832
vn -0.257366 -0.963433 -0.074568
vn -0.235713 0.337869 -0.911199
vn -0.230139 -0.652757 -0.721765
vn -0.229450 -0.126340 0.965086
vn -0.217819 0.522751 0.824189
vn -0.212955 0.110212 -0.970826
vn -0.194502 0.122754 0.973191
vn -0.183143 -0.220499 -0.958039
vn -0.175682 0.355349 0.918076
vn -0.159531 -0.657515 -0.736358
vn -0.139693 0.679428 -0.720322
vn -0.138335 0.864229 -0.483706
vn -0.127331 -0.809762 0.572776
vn -0.109323 0.973141 0.202597
vn -0.103609 0.136814 0.985164
vn -0.102694 0.190972 -0.976209
vn -0.095870 0.417372 -0.903665
vn -0.079805 0.391776 -0.916593
vn -0.074185 -0.391539 0.917166
vn -0.072665 0.979757 0.186538
vn -0.063427 -0.702652 -0.708701
vn -0.063137 0.672302 0.737579
vn -0.047313 -0.998667 -0.020658
vn -0.045011 -0.053517 -0.997552
vn -0.036403 0.423612 0.905112
vn -0.036093 -0.255299 0.966188
vn -0.032231 -0.108316 0.993594
vn -0.031155 -0.527157 -0.849196
vn -0.027892 0.009113 -0.999569
vn -0.025028 0.999129 -0.033388
vn -0.014564 -0.007156 -0.999868
vn -0.012972 -0.323997 0.945969
vn -0.002514 0.062846 -0.998020
vn -0.000109 -0.506095 -0.862478
vn 0.000000 -1.000000 0.000000
vn 0.002958 -0.024265 -0.999701
vn 0.007183 -0.524731 -0.851238
vn 0.012707 0.249569 -0.968274
vn 0.028937 0.515995 0.856103
vn 0.042161 0.137113 -0.989658
vn 0.050092 -0.164746 -0.985063
vn 0.066465 -0.185151 -0.980460
vn 0.087917 -0.995794 0.025778
vn 0.091215 0.109321 0.989812
vn 0.114435 -0.125774 -0.985437
vn 0.116406 0.504828 0.855335
vn 0.121951 0.075020 0.989697
vn 0.130680 0.421151 0.897527
vn 0.145545 -0.010886 0.989292
vn 0.146061 0.566119 0.811280
vn 0.152702 0.283559 0.946719
vn 0.157067 -0.610622 -0.776190
vn 0.162672 -0.001043 -0.986680
vn 0.223359 0.956176 0.189310
vn 0.238601 -0.791103 0.563227
vn 0.239057 0.264968 -0.934154
vn 0.261764 -0.386239 0.884477
vn 0.263356 -0.916427 0.301338
vn 0.263501 -0.483974 -0.834468
vn 0.268449 0.940727 0.207289
vn 0.297750 -0.482490 0.823740
vn 0.302937 -0.927449 -0.219244
vn 0.313464 -0.196757 0.928993
vn 0.342513 0.059646 0.937618
vn 0.347631 -0.479005 0.806044
vn 0.358919 0.120187 0.925598
vn 0.362751 -0.873846 0.323735
vn 0.415507 -0.331779 0.846922
vn 0.453503 -0.311764 0.834948
vn 0.456913 0.882809 -0.108993
vn 0.489259 0.817592 -0.303595
vn 0.501322 -0.376088 -0.779252
vn 0.514046 -0.322823 -0.794696
vn 0.523822 0.276182 -0.805813
vn 0.530774 -0.847468 -0.008805
vn 0.542292 -0.837300 0.069621
vn 0.543778 -0.700947 0.461497
vn 0.557750 0.777915 -0.289417
vn 0.559686 0.529485 0.637493
vn 0.563399 0.609815 0.557411
vn 0.573159 -0.819334 -0.013450
vn 0.573397 0.818766 0.028961
vn 0.608146 -0.090077 0.788698
vn 0.608537 0.363582 -0.705330
vn 0.620753 0.723395 0.302268
vn 0.638377 0.364945 0.677709
vn 0.647256 0.197109 -0.736348
vn 0.664058 -0.154177 0.731612
vn 0.669905 -0.551711 -0.496832
vn 0.674433 -0.610528 -0.415205
vn 0.676629 0.265609 0.686749
vn 0.679135 -0.643869 -0.352431
vn 0.687944 0.140787 -0.711978
vn 0.697678 -0.473050 -0.538024
vn 0.699063 0.219554 -0.680520
vn 0.703025 0.605437 0.373098
vn 0.714038 0.104261 0.692300
vn 0.759718 -0.374838 -0.531343
vn 0.798070 0.215646 -0.562656
vn 0.815009 0.262154 -0.516755
vn 0.845849 -0.168640 0.506063
vn 0.874034 -0.253045 0.414769
vn 0.889545 0.455914 0.029197
vn 0.890950 -0.378865 -0.250340
vn 0.899718 0.157595 -0.407028
vn 0.908542 -0.244392 -0.338856
vn 0.914296 -0.215339 -0.343063
vn 0.921607 0.311511 -0.231519
vn 0.925338 -0.206293 0.318109
vn 0.948372 -0.296429 0.112781
vn 0.949285 0.204753 0.238609
vn 0.952337 -0.050993 0.300757
vn 0.958613 0.232672 -0.164089
vn 0.968846 -0.065854 0.238748
vn 0.982620 0.155050 -0.102066
vn 0.992132 0.116870 -0.044884
vn 0.996857 0.004518 0.079099
vn 0.999772 -0.006429 0.020350
usemtl (null)
f 1/28/125 2/54/135 3/26/158
f 3/26/158 4/10/62 1/28/125
f 5/32/79 6/18/109 2/54/135
f 2/54/135 6/18/165 3/26/158
f 2/54/135 7/81/112 8/70/100
f 9/51/84 2/54/135 8/70/100
f 10/191/169 11/174/147 12/182/130
f 1/170/125 11/174/147 10/191/169
f 1/170/125 13/156/92 11/174/147
f 14/7/139 6/18/165 15/16/143
f 16/19/170 14/20/139 15/41/143
f 17/36/146 16/19/170 15/41/143
f 17/36/146 15/41/143 18/42/154
f 19/35/73 17/36/146 18/42/154
f 6/18/165 5/32/79 15/16/143
f 20/15/126 3/26/158 6/18/165
f 6/18/165 14/7/139 20/15/126
f 19/14/73 18/13/154 21/22/65
f 22/6/70 3/26/158 20/15/126
f 3/26/158 22/6/70 4/10/62
f 14/7/139 22/6/70 20/15/126
f 15/44/143 5/61/79 23/27/116
f 18/42/154 15/41/143 23/50/116
f 23/27/116 21/22/65 18/13/154
f 16/19/89 24/3/85 14/20/139
f 8/70/100 7/81/112 25/88/43
f 25/88/43 7/81/112 26/107/47
f 27/96/12 25/88/43 26/107/47
f 28/118/131 29/120/122 30/137/66
f 29/120/122 31/143/64 30/137/66
f 9/51/84 5/32/79 2/54/135
f 5/32/79 9/51/84 32/39/38
f 8/70/100 25/88/43 33/72/23
f 8/70/100 33/72/23 34/62/29
f 8/70/100 34/62/29 9/51/84
f 32/140/38 35/133/93 36/148/4
f 36/30/4 5/32/79 32/39/38
f 35/133/93 4/149/62 36/148/4
f 37/89/101 34/91/74 38/103/102
f 37/89/101 9/84/153 34/91/74
f 39/79/129 9/84/153 37/89/101
f 39/38/129 32/39/162 9/51/153
f 39/129/129 40/128/142 32/140/162
f 33/72/23 25/88/43 27/96/12
f 27/127/12 26/141/47 41/131/68
f 33/72/23 27/96/12 34/62/29
f 37/89/101 42/90/117 39/79/129
f 27/105/134 38/103/102 34/91/74
f 27/105/134 28/118/131 38/103/102
f 28/118/131 27/105/134 29/120/122
f 31/143/64 29/120/122 27/105/134
f 43/130/98 38/103/102 28/118/131
f 37/89/101 38/103/102 44/142/56
f 42/90/117 37/89/101 45/106/71
f 43/130/98 46/125/99 38/103/102
f 38/103/102 46/125/99 44/142/56
f 28/118/131 47/139/35 43/130/98
f 26/141/47 11/174/147 13/156/92
f 4/149/62 35/133/93 1/170/125
f 1/170/125 35/133/93 13/156/92
f 41/131/68 26/141/47 13/156/92
f 13/156/92 35/133/93 41/131/68
f 40/128/142 35/133/93 32/140/162
f 35/133/93 40/128/142 48/113/94
f 35/133/93 48/113/94 41/131/68
f 48/113/94 40/128/142 49/110/104
f 27/127/134 41/131/68 31/102/64
f 41/131/68 50/97/90 31/102/64
f 41/131/68 48/113/94 50/97/90
f 16/19/89 17/36/146 51/2/86
f 22/6/70 36/5/4 4/10/62
f 23/27/116 5/61/79 52/40/39
f 52/40/39 5/61/79 36/68/4
f 52/40/39 36/68/4 24/77/1
f 36/9/63 22/8/70 24/3/85
f 17/36/146 53/24/31 51/2/86
f 54/25/14 53/24/31 19/35/73
f 51/71/2 52/40/39 24/77/1
f 52/11/39 51/2/2 53/24/31
f 52/11/39 53/24/31 54/25/14
f 55/58/166 56/33/152 57/17/163
f 39/129/129 58/115/114 40/128/142
f 49/110/104 40/128/142 58/115/114
f 57/214/163 59/227/151 60/218/148
f 61/21/136 59/4/151 57/17/163
f 62/12/76 59/4/151 61/21/136
f 57/17/163 56/33/152 61/21/136
f 55/228/166 57/214/163 63/216/103
f 58/115/114 39/129/129 42/114/117
f 59/227/151 64/224/72 60/218/148
f 59/4/151 62/12/76 64/1/145
f 57/214/163 60/218/148 65/206/67
f 65/206/67 63/216/103 57/214/163
f 66/208/96 65/206/67 60/218/148
f 66/208/96 60/218/148 64/224/72
f 64/224/145 58/222/167 66/208/96
f 66/208/96 42/212/117 45/204/71
f 58/222/167 42/212/117 66/208/96
f 61/21/136 67/29/25 62/12/76
f 66/208/96 45/204/71 68/192/121
f 65/206/67 66/208/96 68/192/121
f 65/34/67 69/23/36 70/37/6
f 65/34/67 70/37/6 71/57/9
f 63/63/103 65/34/67 71/57/9
f 64/167/145 49/159/104 58/161/167
f 62/180/76 49/159/104 64/167/145
f 68/192/75 69/190/36 65/206/87
f 49/110/104 72/92/55 48/113/94
f 49/159/104 62/180/76 73/185/81
f 45/204/71 74/189/61 68/192/121
f 69/23/36 62/12/76 67/29/25
f 70/37/6 69/23/36 67/29/25
f 75/49/27 71/57/9 70/37/6
f 69/190/36 73/185/81 62/180/76
f 69/190/36 68/192/75 73/185/81
f 76/205/108 77/226/33 73/223/81
f 76/179/108 73/185/156 68/192/121
f 68/85/121 78/82/164 76/99/108
f 24/77/85 16/94/89 51/71/86
f 22/8/70 14/20/139 24/3/85
f 67/29/25 61/21/136 56/33/152
f 79/45/58 67/29/25 56/33/152
f 79/45/58 75/49/27 67/29/25
f 70/37/6 67/29/25 75/49/27
f 49/242/104 73/223/81 72/237/55
f 52/40/39 21/22/65 23/27/116
f 54/31/14 21/22/65 52/40/39
f 21/22/65 54/31/14 19/14/73
f 17/36/146 19/35/73 53/24/31
f 80/46/133 55/58/166 81/69/95
f 80/46/133 56/33/152 55/58/166
f 80/46/133 81/69/95 75/49/27
f 81/217/138 55/228/166 63/216/103
f 81/217/138 63/216/103 82/207/57
f 75/49/27 81/69/95 83/73/41
f 83/209/115 81/217/138 82/207/57
f 83/73/41 82/74/57 71/57/9
f 63/63/103 71/57/9 82/74/57
f 75/49/27 83/73/41 71/57/9
f 84/65/161 85/87/144 86/93/157
f 80/46/105 79/45/58 56/33/152
f 75/49/27 79/45/87 80/46/133
f 87/188/123 88/173/82 89/163/137
f 89/155/137 88/171/82 90/183/91
f 91/187/26 90/183/91 88/171/82
f 89/163/137 92/198/160 87/188/123
f 87/188/123 93/201/54 88/173/82
f 47/139/35 28/118/131 30/137/66
f 46/125/99 43/130/98 94/134/49
f 47/139/35 94/134/49 43/130/98
f 47/139/35 95/144/46 94/134/49
f 31/143/64 47/139/35 30/137/66
f 47/139/35 31/143/64 96/151/24
f 46/125/99 94/134/49 95/144/46
f 1/28/125 10/60/169 2/54/135
f 96/151/24 95/144/46 47/139/35
f 92/80/69 96/78/24 31/102/64
f 95/144/46 44/142/56 46/125/99
f 45/106/71 37/89/101 44/142/56
f 89/163/137 97/160/118 96/184/155
f 89/163/137 96/184/155 92/198/160
f 96/184/155 97/160/118 98/162/120
f 96/151/24 98/150/37 95/144/46
f 10/60/169 7/81/112 2/54/135
f 95/144/46 98/150/37 44/142/56
f 44/142/56 99/132/44 45/106/71
f 99/132/44 72/119/55 100/121/53
f 44/142/56 98/150/37 101/145/11
f 99/132/44 44/142/56 101/145/11
f 99/132/44 101/145/11 102/146/13
f 103/147/51 99/132/44 102/146/13
f 103/147/51 72/119/55 99/132/44
f 89/163/137 90/136/91 97/160/118
f 104/138/78 98/162/120 97/160/118
f 101/164/113 98/162/120 104/138/78
f 105/248/127 101/247/113 106/250/140
f 102/246/110 101/247/113 105/248/127
f 105/248/17 107/249/17 102/246/17
f 107/235/111 108/225/88 102/244/159
f 108/75/88 103/76/51 102/64/13
f 106/152/140 101/164/113 104/138/78
f 105/248/127 106/250/140 109/251/150
f 107/249/111 105/248/127 109/251/150
f 97/160/118 90/136/91 104/138/78
f 10/60/169 12/83/130 7/81/112
f 104/138/78 110/124/32 106/152/140
f 106/152/140 110/124/32 111/135/20
f 106/98/140 111/108/20 112/95/77
f 113/211/149 106/169/140 112/168/77
f 104/138/78 90/136/91 114/123/30
f 104/138/78 114/123/30 110/124/32
f 115/239/42 116/231/28 109/243/150
f 50/97/90 92/80/69 31/102/64
f 50/97/90 108/75/88 92/80/69
f 48/113/94 108/75/88 50/97/90
f 103/76/51 108/75/88 48/113/94
f 48/113/94 72/92/55 103/76/51
f 117/196/97 87/188/123 92/198/160
f 108/225/88 107/235/111 116/231/28
f 107/235/111 109/243/150 116/231/28
f 117/196/97 93/201/54 87/188/123
f 93/201/54 117/196/97 92/198/69
f 108/210/88 93/201/54 92/198/69
f 108/225/88 116/231/28 93/195/54
f 118/229/59 68/241/121 74/233/61
f 84/65/161 86/93/157 78/82/164
f 74/233/61 45/245/71 100/238/10
f 72/237/55 73/223/81 77/226/33
f 68/85/121 118/67/59 78/82/164
f 86/93/157 76/99/108 78/82/164
f 77/226/33 100/238/10 72/237/55
f 74/233/61 100/238/10 77/226/33
f 84/65/161 78/82/164 118/67/59
f 84/65/161 118/67/59 119/59/34
f 120/158/132 84/172/161 119/176/34
f 121/220/16 74/233/61 77/226/106
f 121/220/16 118/229/59 74/233/61
f 118/67/59 121/66/16 119/59/34
f 100/121/53 45/106/71 99/132/44
f 121/220/16 77/226/33 122/194/18
f 122/199/18 123/181/3 121/221/16
f 124/203/124 113/211/149 125/219/141
f 126/186/168 109/165/150 113/211/149
f 124/203/124 126/186/168 113/211/149
f 127/234/40 128/232/107 113/211/149
f 113/211/149 128/232/107 129/230/128
f 125/219/141 113/211/149 129/230/128
f 109/165/150 106/169/140 113/211/149
f 7/81/112 12/83/130 26/107/47
f 11/174/147 26/141/47 12/182/130
f 127/53/40 113/48/149 130/86/21
f 131/236/80 124/203/124 125/219/141
f 126/186/83 132/177/50 109/165/150
f 113/48/149 112/95/77 130/86/21
f 131/236/80 133/202/22 124/203/124
f 129/230/52 131/236/80 125/219/141
f 115/116/42 109/126/150 132/109/50
f 132/109/50 134/100/5 115/116/42
f 130/86/21 131/52/7 127/53/40
f 128/232/107 127/234/40 131/236/7
f 134/100/5 112/95/77 111/108/20
f 134/100/5 111/108/20 115/116/42
f 134/100/5 130/86/21 112/95/77
f 132/109/50 133/101/22 134/100/5
f 76/99/108 86/93/157 135/104/60
f 76/99/108 135/104/60 122/112/18
f 76/205/108 122/194/18 77/226/33
f 126/186/83 124/203/124 133/202/22
f 126/122/83 133/101/22 132/109/50
f 84/65/161 136/56/119 85/87/144
f 120/158/132 136/153/119 84/172/161
f 137/55/45 136/56/119 120/47/19
f 85/87/144 136/56/119 137/55/45
f 119/176/34 137/157/45 120/158/19
f 119/59/34 121/66/16 123/43/3
f 137/157/45 119/176/34 123/181/3
f 138/178/48 85/154/144 137/157/45
f 138/178/48 123/181/3 122/199/18
f 123/181/3 138/178/48 137/157/45
f 129/230/128 128/232/107 131/236/7
f 86/93/157 85/87/144 135/104/60
f 138/178/48 135/175/60 85/154/144
f 122/112/18 135/104/60 138/117/48
f 114/200/30 90/183/91 91/187/26
f 139/197/15 91/166/26 88/173/82
f 116/231/28 115/239/42 111/240/20
f 116/231/28 111/240/20 139/193/15
f 139/193/15 114/200/30 91/187/26
f 114/200/30 140/213/8 110/215/32
f 139/193/15 140/213/8 114/200/30
f 111/240/20 140/213/8 139/193/15
f 111/135/20 110/124/32 140/111/8
f 139/193/15 93/195/54 116/231/28
f 93/201/54 139/197/15 88/173/82
f 133/101/22 130/86/21 134/100/5
f 131/52/7 130/86/21 133/101/22
