#
# Wavefront OBJ file
#
# Created by the Simplygon mesh optimization tool from Microsoft.
#

mtllib hp.mtl

g default
s off
s 1
v 0.126633 0.915492 -0.132319
v -0.107315 0.920244 -0.099457
v -0.042030 0.760423 0.083421
v -0.180444 0.762336 0.000834
v -0.006161 0.479637 0.083985
v -0.233311 0.762396 -0.195900
v -0.040216 0.920373 -0.262856
v -0.200551 0.429712 -0.063789
v -0.147332 0.438890 -0.324838
v 0.231991 0.762161 -0.198304
v 0.159081 0.760844 -0.325720
v -0.007132 0.480573 -0.399611
v -0.038730 0.761602 -0.385394
v 0.212389 0.435304 -0.166067
v 0.182569 0.761597 0.000231
v 0.122110 0.427231 0.028733
v 0.237624 0.355476 0.036185
v 0.243860 0.369897 -0.340556
v 0.166559 0.433415 -0.307747
v -0.214443 0.375802 0.037388
v -0.488417 -0.377188 -0.122898
v -0.487978 -0.352510 0.045387
v -0.570051 -0.287184 -0.118855
v 0.311911 -0.933769 0.044278
v 0.312229 -0.936839 -0.302443
v 0.311195 -0.780346 0.060612
v 0.307653 -0.293882 -0.338869
v 0.350903 -0.368679 -0.127041
v 0.386949 -0.254270 -0.160913
v -0.449587 -0.182254 0.016917
v -0.363541 0.312562 -0.165305
v -0.564458 -0.221489 0.039298
v -0.459056 0.103887 -0.224687
v 0.476117 0.106779 -0.220760
v 0.312598 -0.737700 -0.034347
v 0.323776 -0.325977 0.004163
v 0.394020 -0.359262 0.049528
v 0.318925 -0.149001 0.030994
v 0.468051 -0.185354 0.030078
v 0.419244 -0.363883 -0.125876
v 0.468907 -0.202957 -0.157517
v -0.361006 0.036437 -0.242513
v -0.320825 -0.293885 -0.331074
v -0.324636 -0.398862 0.007078
v -0.326475 -0.739395 -0.064331
v 0.508250 -0.362908 0.050088
v -0.332390 -0.781192 0.041300
v -0.325342 -0.400124 -0.127649
v 0.508810 -0.382857 -0.122913
v 0.578413 -0.290885 0.040225
v -0.335395 -0.907684 -0.301933
v 0.585265 -0.253752 -0.117410
v 0.483629 0.135770 -0.136606
v 0.376984 0.307596 -0.199010
v -0.327409 -0.919757 0.043629
v -0.445728 -0.197284 -0.147062
vt 0.003380 0.011506
vt 0.062294 0.165703
vt 0.075678 0.068351
vt 0.088623 0.333505
vt 0.089318 0.574385
vt 0.113336 0.155967
vt 0.177965 0.003380
vt 0.184692 0.748550
vt 0.192705 0.621641
vt 0.202377 0.453866
vt 0.218047 0.518338
vt 0.231078 0.399649
vt 0.234185 0.321346
vt 0.237806 0.877869
vt 0.237863 0.494719
vt 0.238615 0.975044
vt 0.239129 0.250916
vt 0.244098 0.446740
vt 0.266371 0.543358
vt 0.280764 0.200278
vt 0.282535 0.318062
vt 0.285978 0.337692
vt 0.287980 0.473525
vt 0.300453 0.548576
vt 0.301907 0.279673
vt 0.310840 0.951037
vt 0.313683 0.335497
vt 0.332025 0.267245
vt 0.338245 0.525699
vt 0.342230 0.470717
vt 0.342556 0.535741
vt 0.353808 0.597551
vt 0.387996 0.917667
vt 0.395998 0.875894
vt 0.459495 0.388405
vt 0.470373 0.539329
vt 0.476278 0.799093
vt 0.494985 0.884794
vt 0.495979 0.359118
vt 0.518091 0.994666
vt 0.534757 0.927713
vt 0.546438 0.006653
vt 0.553783 0.404748
vt 0.558068 0.270414
vt 0.560568 0.888339
vt 0.565748 0.836238
vt 0.567353 0.107560
vt 0.575131 0.993971
vt 0.583114 0.681877
vt 0.583458 0.986723
vt 0.585555 0.502903
vt 0.596539 0.018845
vt 0.600601 0.123318
vt 0.609300 0.932901
vt 0.635432 0.756930
vt 0.639539 0.462051
vt 0.648084 0.735032
vt 0.648319 0.856502
vt 0.652337 0.696644
vt 0.652480 0.869202
vt 0.663290 0.273327
vt 0.672064 0.973831
vt 0.672610 0.159023
vt 0.701908 0.792869
vt 0.702139 0.349127
vt 0.719552 0.459382
vt 0.725662 0.975060
vt 0.729146 0.917154
vt 0.734693 0.532604
vt 0.747208 0.196273
vt 0.750665 0.297961
vt 0.763869 0.814111
vt 0.773198 0.038927
vt 0.778661 0.131761
vt 0.792629 0.581983
vt 0.806739 0.259544
vt 0.812854 0.367323
vt 0.819996 0.616994
vt 0.842667 0.161917
vt 0.875182 0.565880
vt 0.878230 0.259201
vt 0.898397 0.065510
vt 0.932469 0.003380
vt 0.936054 0.760334
vt 0.942985 0.222080
vt 0.955103 0.658236
vt 0.968868 0.880221
vt 0.980296 0.353061
vt 0.981075 0.785469
vn -0.999795 -0.012151 -0.016168
vn -0.999564 -0.017163 0.024047
vn -0.999258 -0.033557 0.018920
vn -0.998896 -0.041466 0.022082
vn -0.994861 -0.085127 -0.054828
vn -0.981758 -0.188233 0.026809
vn -0.981201 -0.191442 0.024384
vn -0.981184 -0.191541 0.024309
vn -0.980678 -0.194366 0.022171
vn -0.970436 -0.217967 0.103656
vn -0.948917 -0.086675 -0.303389
vn -0.936089 0.183769 -0.299943
vn -0.926153 0.354551 0.128589
vn -0.900043 -0.431033 0.064289
vn -0.900007 0.278965 0.334913
vn -0.861278 0.264619 -0.433794
vn -0.842744 0.498060 0.204249
vn -0.834633 0.183851 0.519217
vn -0.797461 0.589998 0.126329
vn -0.783022 0.181582 0.594899
vn -0.764525 -0.611705 0.203270
vn -0.671838 -0.733050 0.106168
vn -0.506242 0.027095 -0.861966
vn -0.428762 -0.420053 -0.799824
vn -0.352335 0.050310 -0.934521
vn -0.342742 0.886768 0.310112
vn -0.283152 0.264457 -0.921893
vn -0.255488 -0.447048 0.857248
vn -0.255019 -0.026534 -0.966572
vn -0.156217 0.838315 -0.522326
vn -0.152088 -0.165945 -0.974337
vn -0.133473 0.007921 0.991021
vn -0.078329 -0.994803 0.065048
vn -0.062175 0.074067 0.995313
vn -0.044330 -0.998980 0.008642
vn -0.038636 -0.238919 0.970271
vn -0.037144 -0.999300 -0.004485
vn -0.029031 -0.999392 -0.019285
vn -0.027027 0.502686 0.864047
vn -0.024880 -0.020175 0.999487
vn -0.021634 -0.026445 0.999416
vn -0.021584 -0.999227 -0.032853
vn -0.018975 -0.487625 0.872847
vn -0.016150 -0.144156 0.989423
vn -0.012596 0.948568 0.316324
vn -0.010921 0.340514 0.940176
vn -0.010184 0.942842 0.333084
vn -0.009548 0.381231 0.924430
vn -0.008607 -0.064659 -0.997870
vn -0.003129 -0.070508 -0.997506
vn -0.002434 -0.112677 0.993629
vn -0.001996 -0.051297 0.998681
vn 0.004920 -0.269330 -0.963035
vn 0.077039 -0.897819 -0.433574
vn 0.085401 0.006208 0.996327
vn 0.092133 -0.185570 0.978302
vn 0.095154 0.108674 0.989513
vn 0.105922 0.071106 0.991829
vn 0.118826 0.096776 -0.988188
vn 0.174113 -0.222233 -0.959321
vn 0.179928 0.117431 0.976645
vn 0.220321 0.339725 0.914355
vn 0.241584 -0.014729 -0.970268
vn 0.437866 0.883043 0.168846
vn 0.469411 -0.074235 -0.879853
vn 0.565058 -0.819735 0.093505
vn 0.578955 0.287312 -0.763062
vn 0.618350 -0.145658 0.772287
vn 0.639152 -0.761397 0.108440
vn 0.661509 0.747346 -0.062291
vn 0.704163 0.261883 0.659978
vn 0.704897 -0.578069 -0.411044
vn 0.714563 0.162751 -0.680376
vn 0.725672 0.163518 0.668328
vn 0.802318 0.282330 0.525904
vn 0.820720 -0.048629 -0.569257
vn 0.864593 0.035226 0.501236
vn 0.881133 -0.447531 -0.152709
vn 0.923392 -0.382550 -0.031651
vn 0.945430 0.292025 0.144509
vn 0.952182 -0.024690 -0.304533
vn 0.955028 -0.268078 -0.126707
vn 0.975681 0.196260 -0.097609
vn 0.979547 -0.199136 0.028841
vn 0.980257 -0.196141 0.025009
vn 0.980296 -0.195971 0.024792
vn 0.980846 -0.193568 0.021723
vn 0.996285 -0.058210 -0.063465
vn 0.997214 0.036724 0.064924
vn 0.998751 -0.042536 -0.026199
vn 1.000000 0.000000 0.000000
usemtl (null)
f 1/70/64 2/71/26 3/61/46
f 4/65/20 5/44/32 3/61/46
f 4/65/20 3/61/46 2/71/26
f 6/77/12 4/65/20 2/71/26
f 6/77/12 2/71/26 7/76/30
f 8/66/15 5/44/32 4/65/20
f 8/66/15 4/65/20 6/77/12
f 9/88/25 8/66/15 6/77/12
f 7/76/30 2/71/26 1/70/64
f 1/70/64 10/74/83 11/79/67
f 1/70/64 11/79/67 7/76/30
f 12/85/53 13/81/27 11/79/67
f 7/76/30 11/79/67 13/81/27
f 13/81/27 6/77/12 7/76/30
f 9/88/25 6/77/12 13/81/27
f 14/73/89 10/74/83 15/63/71
f 16/53/74 14/73/89 15/63/71
f 17/52/61 18/83/59 14/73/89
f 16/53/74 17/52/61 14/73/89
f 18/83/59 19/82/73 14/73/89
f 3/61/46 15/63/71 1/70/64
f 5/44/32 17/52/61 16/53/74
f 20/84/52 17/80/61 5/86/43
f 21/54/22 22/62/21 23/50/11
f 16/53/74 15/63/71 5/44/32
f 15/63/71 3/61/46 5/44/32
f 15/63/71 10/74/83 1/70/64
f 5/44/32 8/66/15 20/56/17
f 24/43/91 25/36/90 26/39/91
f 25/36/90 27/12/63 28/27/88
f 28/31/88 27/32/63 29/24/76
f 8/89/15 30/68/13 20/84/17
f 31/26/19 8/16/15 9/14/25
f 32/67/18 8/89/15 31/87/19
f 8/89/15 32/67/18 30/68/57
f 33/33/16 32/40/18 31/26/19
f 27/32/63 18/8/59 29/24/76
f 19/82/73 11/79/67 10/74/83
f 14/73/89 19/82/73 10/74/83
f 19/82/73 12/85/53 11/79/67
f 18/8/59 34/9/65 29/24/76
f 26/39/91 25/36/90 35/35/68
f 12/85/53 19/82/73 18/83/59
f 35/35/68 25/36/90 28/27/88
f 28/27/88 36/28/56 35/35/68
f 12/85/53 9/88/25 13/81/27
f 37/25/28 36/28/56 28/27/33
f 38/20/55 36/28/56 37/25/28
f 37/25/28 39/17/62 38/20/55
f 18/83/59 9/88/25 12/85/53
f 28/27/33 40/22/54 37/25/28
f 40/29/54 28/31/88 29/24/76
f 29/24/76 34/9/65 41/19/60
f 40/29/80 29/24/79 37/30/82
f 22/48/21 32/40/18 23/41/11
f 9/14/25 42/34/23 33/33/16
f 43/37/29 42/34/23 9/14/25
f 33/33/16 31/26/19 9/14/25
f 17/7/61 30/42/41 38/20/55
f 37/30/82 29/24/79 39/23/78
f 41/19/66 39/23/78 29/24/79
f 35/35/68 36/28/56 44/47/44
f 44/58/44 45/55/36 35/78/68
f 36/28/56 38/20/55 44/47/44
f 44/47/44 38/20/55 30/42/41
f 39/23/9 41/19/7 46/18/8
f 17/80/61 20/84/52 30/68/41
f 35/78/47 47/57/39 26/75/48
f 43/37/29 48/46/5 42/34/23
f 30/68/14 48/64/5 44/72/10
f 45/55/2 44/58/10 48/46/5
f 49/15/72 50/10/77 46/18/69
f 51/49/1 45/55/2 48/46/5
f 49/15/72 41/19/60 52/11/81
f 49/15/6 46/18/8 41/19/7
f 46/21/34 50/13/77 39/17/62
f 34/9/65 52/11/81 41/19/60
f 47/57/39 35/78/47 45/55/45
f 47/57/3 45/55/2 51/49/1
f 53/6/75 39/17/62 50/13/77
f 34/2/65 53/6/75 52/4/81
f 49/15/72 52/11/81 50/10/77
f 52/11/81 53/5/75 50/10/77
f 25/51/50 51/49/49 27/32/63
f 34/2/65 18/1/59 54/3/70
f 18/8/59 43/37/29 9/14/25
f 27/32/63 43/37/29 18/8/59
f 27/32/63 51/49/49 43/37/29
f 43/37/29 51/49/1 48/46/5
f 25/51/35 24/69/37 51/49/38
f 17/7/61 54/3/70 18/1/59
f 39/17/62 53/6/75 38/20/55
f 26/75/48 47/57/39 55/59/40
f 24/69/51 26/75/48 55/59/40
f 51/49/38 24/69/37 55/59/42
f 51/49/1 55/59/4 47/57/3
f 53/6/75 17/7/61 38/20/55
f 54/3/70 53/6/75 34/2/65
f 17/7/61 53/6/75 54/3/70
f 56/60/24 48/64/5 30/68/14
f 22/62/58 30/68/57 32/67/18
f 48/46/5 56/38/24 42/34/23
f 30/68/85 21/54/86 56/60/87
f 42/34/23 23/41/11 33/33/16
f 56/38/24 23/41/11 42/34/23
f 30/68/85 22/62/84 21/54/86
f 56/38/24 21/45/31 23/41/11
f 32/40/18 33/33/16 23/41/11
