mtllib mesh.mtl
g default
v 0.007378078065812588 0.04257199913263321 0.017577871680259705 
v 0.0025577214546501637 0.033305998891592026 0.021330341696739197 
v 0.007447879761457443 0.03419199958443642 0.019324101507663727 
v -0.004140195436775684 0.043838001787662506 0.018171750009059906 
v 0.01296625193208456 0.043793000280857086 0.007340268697589636 
v 0.001289153704419732 0.044516999274492264 0.00013580522499978542 
v 0.005316401831805706 0.0438309982419014 0.01637088879942894 
v 0.011870669201016426 0.04256099462509155 0.013566398993134499 
v 0.013045157305896282 0.030178997665643692 0.014865446835756302 
v 0.009679505601525307 0.019037999212741852 0.017977502197027206 
v 0.015494280494749546 0.03642600029706955 0.009959613904356956 
v -0.007695018779486418 0.020781999453902245 0.021049082279205322 
v -0.003217600751668215 0.03286600112915039 0.021879710257053375 
v -0.011685848236083984 0.026597999036312103 0.01954668015241623 
v -0.010386930778622627 0.04254300147294998 0.018208175897598267 
v -0.013015113770961761 0.039108000695705414 0.017791345715522766 
v -0.008584229275584221 0.04042600095272064 0.019793540239334106 
v -0.01180117204785347 0.04370800033211708 0.01545426994562149 
v -0.01812276616692543 0.043650999665260315 0.0005900678224861622 
v -0.014384843409061432 0.0425649993121624 0.015403684228658676 
v -0.003863012418150902 0.04297799617052078 0.019819844514131546 
v -0.017567390576004982 0.0429610013961792 0.010898490436375141 
v -0.01837971806526184 0.03286400064826012 0.013328643515706062 
v -0.019956830888986588 0.03730800002813339 0.009515468031167984 
v -0.0010082287481054664 0.0412990003824234 0.020718254148960114 
v 0.0021237381733953953 0.043042998760938644 0.01938783749938011 
v -0.018081292510032654 0.016307000070810318 0.013511765748262405 
v -0.021199092268943787 0.02078000083565712 0.007276529911905527 
v 0.011445790529251099 0.006931999698281288 0.014892764389514923 
v 0.010199478827416897 -5.800090730190277e-05 0.012263302691280842 
v 0.013286934234201908 0.0007869992405176163 0.008652471005916595 
v 0.01582103595137596 0.013619999401271343 0.009516479447484016 
v 0.0070138955488801 0.007375999353826046 0.018423669040203094 
v 0.007467099465429783 0.0006909985095262527 0.015761833637952805 
v 0.0007843566127121449 0.004282999783754349 0.01984008029103279 
v 0.003954765386879444 -0.0002240017056465149 0.016742190346121788 
v -0.01122758537530899 0.010495999827980995 0.018907271325588226 
v -0.015404553152620792 -0.000330999493598938 0.009139107540249825 
v -0.009041480720043182 0.0005370005965232849 0.01713372766971588 
v -0.012910915538668633 0.0007909983396530151 0.014892764389514923 
v 0.00035340781323611736 -7.400102913379669e-05 -0.0127474470064044 
v -0.005045592784881592 -0.00021399930119514465 0.017636548727750778 
v -0.00679467897862196 0.007389998994767666 0.02013549953699112 
v -0.002790698315948248 0.009157001040875912 0.02099546417593956 
v -0.016360532492399216 0.00337199866771698 0.012610322795808315 
v 0.003458060324192047 0.018093999475240707 0.020993437618017197 
v 0.00948122888803482 0.043772000819444656 -0.007943796925246716 
v 0.013319306075572968 0.04297500103712082 -0.0052384547889232635 
v 0.014672850258648396 0.04296399652957916 -0.0017419485375285149 
v 0.013269736431539059 0.0386510007083416 -0.00783958937972784 
v 0.015816986560821533 0.0395440012216568 -0.0020545697771012783 
v 0.014171087183058262 0.02838899940252304 -0.007852742448449135 
v 0.009681529365479946 0.0342009998857975 -0.012330617755651474 
v 0.008930910378694534 0.041689999401569366 -0.011425129137933254 
v 0.002992717083543539 0.03598099946975708 -0.015597465448081493 
v 0.0066456664353609085 0.021676000207662582 -0.014520994387567043 
v 0.0016766032204031944 0.021674999967217445 -0.01622270792722702 
v 0.0003372221253812313 0.04297500103712082 -0.014552357606589794 
v 0.015288923867046833 0.04255999997258186 0.005968375131487846 
v 0.01693684607744217 0.01808999851346016 -0.0011652675457298756 
v 0.01711691915988922 0.029735000804066658 0.005962304770946503 
v 0.016531191766262054 0.039094001054763794 0.0019528557313606143 
v -0.017134416848421097 0.04299699887633324 -0.0065617868676781654 
v -0.019854657351970673 0.0425729975104332 -0.0002911409828811884 
v -0.019351880997419357 0.04297599941492081 0.0059754569083452225 
v -0.01883595809340477 0.03864999860525131 -0.0065101878717541695 
v -0.02091382071375847 0.028836000710725784 -0.0034052180126309395 
v -0.01310818176716566 0.042994000017642975 -0.0110598960891366 
v -0.013028264045715332 0.03819900006055832 -0.012934616766870022 
v -0.00992968026548624 0.03420799970626831 -0.015065300278365612 
v -0.015341833233833313 0.026604000478982925 -0.011847015470266342 
v -0.018806621432304382 0.02839300036430359 -0.00783958937972784 
v -0.0032307517249137163 0.03820899873971939 -0.01612861454486847 
v -0.00857107900083065 0.01272799912840128 -0.015084520913660526 
v -0.014363598078489304 0.014514999464154243 -0.01210702769458294 
v -0.006375869736075401 0.04305399954319 -0.014204324223101139 
v -0.021574407815933228 0.03419100120663643 0.00418268796056509 
v -0.02170591801404953 0.01809599995613098 0.0023909308947622776 
v -0.02090977132320404 0.016307000070810318 -0.002487586811184883 
v 0.01542650442570448 0.007375999353826046 -0.002924649976193905 
v 0.010111466981470585 0.007822997868061066 -0.010937478393316269 
v 0.011902030557394028 0.018993999809026718 -0.010595517233014107 
v 0.011101840063929558 0.0007760003209114075 -0.006962427869439125 
v 0.014208517037332058 0.0006219986826181412 0.0010483772493898869 
v 0.016171056777238846 0.006483999080955982 0.0028269824106246233 
v 0.012017355300486088 -7.599964737892151e-05 -0.00389691349118948 
v 0.0048227328807115555 0.0001529976725578308 -0.011504042893648148 
v -0.017473310232162476 0.0007859990000724792 0.00864134170114994 
v -0.01990119367837906 0.006929000839591026 0.007279565557837486 
v -0.020321015268564224 0.0060440003871917725 0.0015157923335209489 
v -0.018402986228466034 0.0003670006990432739 0.0019467852544039488 
v -0.01791032776236534 0.00871299859136343 -0.007282131351530552 
v -0.014416203834116459 0.004262998700141907 -0.010050199925899506 
v -0.01712733693420887 0.0003609992563724518 -0.003705698996782303 
v -0.014445539563894272 0.00037400051951408386 -0.007916481234133244 
v -0.009056655690073967 0.0007980000227689743 -0.012134344317018986 
v -0.004129067994654179 0.005161000415682793 -0.014916577376425266 
v 0.0052354722283780575 0.007380997762084007 -0.013904853723943233 
v -0.0027957563288509846 0.013171998783946037 -0.01616504043340683 
vt 0.048631783574819565 0.6913891434669495 
vt 0.016472360119223595 0.7255610823631287 
vt 0.11386211216449738 0.6831956803798676 
vt 0.00010901918722083792 0.7888059318065643 
vt 0.00015357603842858225 0.8749288320541382 
vt 0.20636147260665894 0.7341441810131073 
vt 0.015319669619202614 0.881616860628128 
vt 0.2512434422969818 0.76247139275074 
vt 0.0013007158413529396 0.9577534608542919 
vt 0.0003916891582775861 0.4735013246536255 
vt 0.0020767839159816504 0.6213257014751434 
vt 0.0003663774114102125 0.3311789631843567 
vt 0.2471335530281067 0.7564213573932648 
vt 0.03481445088982582 0.9974670819938183 
vt 0.0005633820546790957 0.23113101720809937 
vt 0.04073169082403183 0.3689330816268921 
vt 0.0668049082159996 0.5671193599700928 
vt 0.00277967588044703 0.13039880990982056 
vt 0.32668694853782654 0.8696105033159256 
vt 0.08644415438175201 0.9997444022446871 
vt 0.3186355531215668 0.8338206857442856 
vt 0.2206461876630783 0.6845708787441254 
vt 0.00139813928399235 0.1242978572845459 
vt 0.09432679414749146 0.29375070333480835 
vt 0.3571893274784088 0.9289248213171959 
vt 0.13928818702697754 0.4905861020088196 
vt 0.3461498022079468 0.7690755724906921 
vt 0.18940110504627228 0.999871112551773 
vt 0.08601788431406021 0.15848547220230103 
vt 0.17831319570541382 0.5629378855228424 
vt 0.15251947939395905 0.3975096344947815 
vt 0.2759524881839752 0.9997674756305059 
vt 0.4056834280490875 0.9998268495546654 
vt 0.42208874225616455 0.8740226179361343 
vt 0.03843168541789055 0.00024431943893432617 
vt 0.006395751144737005 0.01709151268005371 
vt 0.4541533291339874 0.9274889230728149 
vt 0.12546436488628387 0.09094685316085815 
vt 0.20736168324947357 0.235978364944458 
vt 0.23072005808353424 0.00021916627883911133 
vt 0.3180738091468811 0.6123560965061188 
vt 0.14484335482120514 0.02555990219116211 
vt 0.6098222732543945 0.9999240057659335 
vt 0.2693825364112854 0.180026113986969 
vt 0.28369221091270447 0.3952144980430603 
vt 0.3864426016807556 0.6747184097766876 
vt 0.45365679264068604 0.7498862445354462 
vt 0.3171866536140442 0.3402906656265259 
vt 0.6533798575401306 0.9216586500406265 
vt 0.5603185892105103 0.8382176756858826 
vt 0.33960628509521484 0.28642183542251587 
vt 0.36823350191116333 0.14887171983718872 
vt 0.37276387214660645 0.47301721572875977 
vt 0.4101405441761017 0.44233274459838867 
vt 0.44359296560287476 0.07681351900100708 
vt 0.42292872071266174 0.3636079430580139 
vt 0.4496895372867584 0.5417949259281158 
vt 0.4807198941707611 0.6026941537857056 
vt 0.453216552734375 0.2593154311180115 
vt 0.843165397644043 0.999694613943575 
vt 0.5758105516433716 0.73818039894104 
vt 0.46158355474472046 0.4385496973991394 
vt 0.470307320356369 0.3888741731643677 
vt 0.4821973741054535 0.504077136516571 
vt 0.5662426948547363 0.00010257959365844727 
vt 0.5492584109306335 0.6664260625839233 
vt 0.49783769249916077 0.3396564722061157 
vt 0.5230343341827393 0.559047281742096 
vt 0.5226675868034363 0.3539537191390991 
vt 0.539930522441864 0.25557035207748413 
vt 0.5612826943397522 0.21040773391723633 
vt 0.5493608117103577 0.31806695461273193 
vt 0.8210517168045044 0.8062500357627869 
vt 0.596433162689209 0.30860352516174316 
vt 0.6060255765914917 0.6252679824829102 
vt 0.997297465801239 0.9135035201907158 
vt 0.6543839573860168 0.6745518445968628 
vt 0.6526809930801392 0.30654197931289673 
vt 0.6655910015106201 0.15748292207717896 
vt 0.6693620681762695 0.2761274576187134 
vt 0.655370831489563 0.6186313033103943 
vt 0.6762911677360535 0.33161526918411255 
vt 0.6692642569541931 0.52035191655159 
vt 0.7055225372314453 0.3234547972679138 
vt 0.7719539403915405 0.6990702152252197 
vt 0.7684547305107117 0.1671258807182312 
vt 0.7337793707847595 0.3158729076385498 
vt 0.7065184116363525 0.6524050831794739 
vt 0.6964392066001892 0.10717195272445679 
vt 0.5832588076591492 0.013134241104125977 
vt 0.7570540904998779 0.3829994797706604 
vt 0.7691278457641602 0.37222594022750854 
vt 0.8184676766395569 0.2957603931427002 
vt 0.7585541009902954 0.6621036529541016 
vt 0.803666889667511 0.38094770908355713 
vt 0.8188947439193726 0.4251425266265869 
vt 0.6502640843391418 0.0004305243492126465 
vt 0.7583715319633484 0.06570404767990112 
vt 0.8324686288833618 0.47894287109375 
vt 0.8438947200775146 0.6172188520431519 
vt 0.8282073736190796 0.08960270881652832 
vt 0.8758640885353088 0.34863799810409546 
vt 0.8621588349342346 0.4782365560531616 
vt 0.7122436761856079 0.0004309415817260742 
vt 0.818365216255188 0.7985137552022934 
vt 0.850895881652832 0.6710719764232635 
vt 0.8904528617858887 0.558831512928009 
vt 0.8637529611587524 0.7675810009241104 
vt 0.7780900001525879 0.0001882314682006836 
vt 0.9245926737785339 0.4008033871650696 
vt 0.9191917777061462 0.19787633419036865 
vt 0.8612931370735168 0.048699915409088135 
vt 0.9429817199707031 0.6737048327922821 
vt 0.999811589717865 0.22463244199752808 
vt 0.9413668513298035 0.09023427963256836 
vt 0.9999033212661743 0.45302748680114746 
vt 0.8948822617530823 0.0002257227897644043 
vt 0.9288613796234131 0.018068373203277588 
vt 0.9995315670967102 0.9059434533119202 
vt 0.9996592402458191 0.08048206567764282 
vt 0.9606969952583313 0.0005879402160644531 
vt 0.9997880458831787 0.0003381967544555664 
vn 0.4487369954586029 0.3070756494998932 0.8392495512962341
vn 0.2502938210964203 0.08803314715623856 0.964159369468689
vn 0.5367101430892944 0.06510156393051147 0.8412513732910156
vn -0.015527882613241673 0.9982025623321533 0.057883426547050476
vn 0.10347077995538712 0.9940991401672363 0.03256649523973465
vn -0.0036099301651120186 0.9999837279319763 -0.004410068970173597
vn 0.12964436411857605 0.9760412573814392 0.17474497854709625
vn 0.7208165526390076 0.3591647744178772 0.5928103923797607
vn 0.8058443665504456 0.01626572571694851 0.5919039249420166
vn 0.5858036279678345 -0.038289617747068405 0.809548020362854
vn 0.9211626052856445 0.13103356957435608 0.3664554953575134
vn -0.24072518944740295 -0.037097591906785965 0.9698840975761414
vn -0.08018162101507187 0.021413099020719528 0.9965502023696899
vn -0.5340676307678223 0.009332765825092793 0.845390260219574
vn -0.34533941745758057 0.6112158894538879 0.7121487259864807
vn -0.6008926033973694 0.10445698350667953 0.7924751043319702
vn -0.2920209765434265 0.13243331015110016 0.9471986293792725
vn -0.12747295200824738 0.9844983220100403 0.12047303467988968
vn -0.05920679494738579 0.9977396726608276 -0.03178265318274498
vn -0.7284247875213623 0.2974928617477417 0.6171671748161316
vn -0.11833205074071884 0.5987704396247864 0.7921310067176819
vn -0.5635401010513306 0.7684456706047058 0.3031729757785797
vn -0.789337158203125 0.040219251066446304 0.6126412153244019
vn -0.9299861788749695 0.14305013418197632 0.3386183977127075
vn 0.018880672752857208 0.1988954246044159 0.9798388481140137
vn 0.24924664199352264 0.501917839050293 0.8282237648963928
vn -0.7791945338249207 -0.06589941680431366 0.6233082413673401
vn -0.9490435123443604 -0.023058036342263222 0.3143004775047302
vn 0.767585277557373 -0.1445378214120865 0.6244370341300964
vn 0.14582757651805878 -0.9858487248420715 0.08268304169178009
vn 0.8851405382156372 -0.3187677562236786 0.3389888405799866
vn 0.919291615486145 -0.07854100316762924 0.385660856962204
vn 0.44864240288734436 -0.16032131016254425 0.879213809967041
vn 0.49732527136802673 -0.3710765242576599 0.7842000722885132
vn 0.18726696074008942 -0.2685348689556122 0.944891631603241
vn 0.0368315726518631 -0.9921607971191406 0.11941646039485931
vn -0.5604413151741028 -0.12357820570468903 0.8189224004745483
vn -0.051059506833553314 -0.9986653923988342 0.007769934367388487
vn -0.37159743905067444 -0.5157723426818848 0.7719419002532959
vn -0.583161473274231 -0.42650872468948364 0.6913848519325256
vn 0.010797953233122826 -0.991829514503479 -0.12711291015148163
vn -0.015607750974595547 -0.9778353571891785 0.2087927758693695
vn -0.2457435429096222 -0.1907946914434433 0.9503722786903381
vn -0.01796911470592022 -0.10316358506679535 0.994502067565918
vn -0.7625019550323486 -0.19460731744766235 0.6170240640640259
vn 0.2524053454399109 -0.04957917705178261 0.9663506150245667
vn 0.041150759905576706 0.9938939809799194 -0.10237880796194077
vn 0.7457246780395508 0.46861401200294495 -0.47359853982925415
vn 0.5368613004684448 0.8394203186035156 -0.08457763493061066
vn 0.8077477216720581 0.14902840554714203 -0.570380687713623
vn 0.9660097360610962 0.09301499277353287 -0.2411915361881256
vn 0.8721704483032227 0.00630527688190341 -0.4891614317893982
vn 0.6076124906539917 0.06017414852976799 -0.7919508814811707
vn 0.5199713706970215 0.3571639955043793 -0.7759275436401367
vn 0.31829580664634705 0.10134407132863998 -0.9425588250160217
vn 0.4742693305015564 -0.02549303136765957 -0.8800106048583984
vn 0.16607563197612762 -0.02628079429268837 -0.9857627749443054
vn 0.20220574736595154 0.5853719711303711 -0.7851448655128479
vn 0.8897667527198792 0.42190083861351013 0.1741112917661667
vn 0.9816734194755554 -0.01005323976278305 -0.19030557572841644
vn 0.9902560114860535 0.004969513975083828 0.13916994631290436
vn 0.9880269169807434 0.14079712331295013 0.06307947635650635
vn -0.6590733528137207 0.644442617893219 -0.3877061605453491
vn -0.962346613407135 0.24623805284500122 -0.11513400077819824
vn -0.8649048805236816 0.4756501019001007 0.16030173003673553
vn -0.8302539587020874 0.14480099081993103 -0.5382481813430786
vn -0.9604524970054626 0.028758134692907333 -0.276954710483551
vn -0.4372945725917816 0.7281345725059509 -0.5278193950653076
vn -0.5999032258987427 0.1570585072040558 -0.7845054864883423
vn -0.36217641830444336 0.02809825912117958 -0.9316858649253845
vn -0.6922727227210999 0.007564042694866657 -0.721596360206604
vn -0.8359533548355103 -0.011699133552610874 -0.5486757755279541
vn -0.08245916664600372 0.050097059458494186 -0.9953345060348511
vn -0.31148841977119446 -0.0751020684838295 -0.9472774267196655
vn -0.5706819891929626 -0.06825610250234604 -0.8183295726776123
vn -0.10898776352405548 0.9263852834701538 -0.36046093702316284
vn -0.9966556429862976 0.07569242268800735 0.030794087797403336
vn -0.9989858269691467 -0.04418862983584404 -0.008638358674943447
vn -0.9532277584075928 -0.08727265894412994 -0.2893792390823364
vn 0.890227198600769 -0.14405280351638794 -0.432139128446579
vn 0.6724595427513123 -0.16656412184238434 -0.7211480736732483
vn 0.7463062405586243 -0.050439123064279556 -0.6636888384819031
vn 0.7221546769142151 -0.3549521565437317 -0.593718409538269
vn 0.7829241156578064 -0.6183213591575623 -0.06861750036478043
vn 0.9887298345565796 -0.13206452131271362 0.07051461189985275
vn 0.3203873038291931 -0.93894362449646 -0.12544666230678558
vn 0.23012393712997437 -0.8983675837516785 -0.37413710355758667
vn -0.8205276727676392 -0.47645285725593567 0.31579601764678955
vn -0.9457697868347168 -0.16442294418811798 0.2801511883735657
vn -0.9691269397735596 -0.19406959414482117 -0.1520853340625763
vn -0.8389772772789001 -0.5431872010231018 0.03263210877776146
vn -0.8540345430374146 -0.12050992250442505 -0.5060656070709229
vn -0.5753267407417297 -0.21123208105564117 -0.7901772856712341
vn -0.7524920105934143 -0.5873012542724609 -0.2980487644672394
vn -0.23530232906341553 -0.9493040442466736 -0.20845767855644226
vn -0.34059974551200867 -0.42138931155204773 -0.8404896259307861
vn -0.04354110360145569 -0.24639570713043213 -0.9681907296180725
vn 0.301557719707489 -0.16542601585388184 -0.9389873743057251
vn -0.01513324212282896 -0.062327105551958084 -0.9979410171508789
s 1 
g pMesh1
usemtl defaultMat
f  1/103/1 2/102/2 3/110/3
f  4/91/4 5/100/5 6/83/6
f  5/100/5 4/91/4 7/99/7
f  1/103/1 3/110/3 8/107/8
f  9/116/9 3/110/3 10/114/10
f  8/107/8 7/99/7 1/103/1
f  5/100/5 7/99/7 8/107/8
f  8/107/8 3/110/3 9/116/9
f  9/116/9 11/113/11 8/107/8
f  12/86/12 13/93/13 14/79/14
f  15/84/15 16/80/16 17/87/17
f  14/79/14 17/87/17 16/80/16
f  18/82/18 15/84/15 4/91/4
f  17/87/17 14/79/14 13/93/13
f  19/69/19 4/91/4 6/83/6
f  19/69/19 18/82/18 4/91/4
f  20/78/20 16/80/16 15/84/15
f  20/78/20 15/84/15 18/82/18
f  4/91/4 15/84/15 21/92/21
f  21/92/21 15/84/15 17/87/17
f  20/78/20 18/82/18 22/74/22
f  16/80/16 20/78/20 23/71/23
f  20/78/20 22/74/22 24/70/24
f  2/102/2 25/95/25 13/93/13
f  24/70/24 23/71/23 20/78/20
f  26/96/26 4/91/4 21/92/21
f  26/96/26 7/99/7 4/91/4
f  26/96/26 2/102/2 1/103/1
f  14/79/14 16/80/16 23/71/23
f  26/96/26 1/103/1 7/99/7
f  27/55/27 14/79/14 23/71/23
f  25/95/25 21/92/21 17/87/17
f  17/87/17 13/93/13 25/95/25
f  27/55/27 23/71/23 28/52/28
f  26/96/26 21/92/21 25/95/25
f  2/102/2 26/96/26 25/95/25
f  29/120/29 30/121/30 31/122/31
f  32/49/32 29/43/29 31/33/31
f  33/115/33 29/120/29 10/114/10
f  9/76/9 10/60/10 29/43/29
f  29/43/29 32/49/32 9/76/9
f  34/118/34 29/120/29 33/115/33
f  34/118/34 30/121/30 29/120/29
f  33/115/33 35/112/35 34/118/34
f  30/121/30 34/118/34 36/117/36
f  14/79/14 27/55/27 37/65/37
f  38/7/38 39/14/39 40/9/40
f  38/7/38 41/6/41 42/20/42
f  39/14/39 38/7/38 42/20/42
f  37/89/37 39/104/39 43/98/43
f  39/104/39 42/109/42 43/98/43
f  43/98/43 42/109/42 44/101/44
f  37/89/37 43/98/43 12/86/12
f  14/79/14 37/65/37 12/86/12
f  44/101/44 12/86/12 43/98/43
f  41/6/41 36/28/36 42/20/42
f  45/42/45 37/65/37 27/55/27
f  40/97/40 39/104/39 37/89/37
f  35/112/35 42/109/42 36/117/36
f  36/117/36 34/118/34 35/112/35
f  45/90/45 40/97/40 37/89/37
f  35/112/35 44/101/44 42/109/42
f  35/112/35 46/111/46 44/101/44
f  13/93/13 12/86/12 44/101/44
f  46/111/46 13/93/13 44/101/44
f  33/115/33 46/111/46 35/112/35
f  33/115/33 10/114/10 46/111/46
f  46/111/46 2/102/2 13/93/13
f  3/110/3 2/102/2 46/111/46
f  46/111/46 10/114/10 3/110/3
f  5/100/5 47/81/47 6/83/6
f  48/88/48 47/81/47 49/94/49
f  50/77/50 48/88/48 51/85/51
f  52/61/52 50/77/50 51/85/51
f  53/66/53 50/77/50 52/61/52
f  47/81/47 5/100/5 49/94/49
f  53/66/53 54/75/54 50/77/50
f  48/88/48 49/94/49 51/85/51
f  48/88/48 54/75/54 47/81/47
f  50/77/50 54/75/54 48/88/48
f  55/58/55 56/46/56 57/41/57
f  53/66/53 55/58/55 54/75/54
f  55/58/55 53/66/53 56/46/56
f  58/68/58 54/75/54 55/58/55
f  49/94/49 5/100/5 59/106/59
f  5/100/5 8/107/8 59/106/59
f  60/50/60 51/85/51 61/73/61
f  9/116/9 61/119/61 11/113/11
f  62/108/62 11/113/11 61/119/61
f  51/105/51 62/108/62 61/119/61
f  49/94/49 59/106/59 51/105/51
f  51/105/51 59/106/59 62/108/62
f  11/113/11 59/106/59 8/107/8
f  62/108/62 59/106/59 11/113/11
f  19/69/19 63/63/63 64/67/64
f  65/72/65 19/69/19 64/67/64
f  64/67/64 63/63/63 66/56/66
f  24/70/24 65/72/65 64/67/64
f  64/67/64 66/56/66 67/51/67
f  22/74/22 65/72/65 24/70/24
f  66/56/66 63/63/63 68/62/68
f  69/54/69 66/56/66 68/62/68
f  69/54/69 70/53/70 71/45/71
f  69/54/69 71/45/71 66/56/66
f  68/62/68 63/63/63 19/69/19
f  19/69/19 65/72/65 22/74/22
f  19/69/19 22/74/22 18/82/18
f  66/56/66 71/45/71 72/48/72
f  70/53/70 73/57/73 74/26/74
f  70/53/70 74/26/74 75/31/75
f  69/54/69 76/64/76 70/53/70
f  70/53/70 76/64/76 73/57/73
f  69/54/69 68/62/68 76/64/76
f  19/69/19 76/64/76 68/62/68
f  75/31/75 71/45/71 70/53/70
f  76/64/76 58/68/58 73/57/73
f  55/58/55 57/41/57 73/57/73
f  55/58/55 73/57/73 58/68/58
f  72/48/72 67/51/67 66/56/66
f  24/70/24 64/67/64 77/59/77
f  76/64/76 19/69/19 47/81/47
f  58/68/58 76/64/76 47/81/47
f  67/51/67 77/59/77 64/67/64
f  54/75/54 58/68/58 47/81/47
f  19/69/19 6/83/6 47/81/47
f  78/44/78 67/51/67 79/39/79
f  80/34/80 81/27/81 82/47/82
f  80/34/80 82/47/82 52/61/52
f  81/27/81 56/46/56 82/47/82
f  53/66/53 82/47/82 56/46/56
f  82/47/82 53/66/53 52/61/52
f  81/27/81 80/34/80 83/21/83
f  84/25/84 80/34/80 85/37/85
f  31/33/31 84/25/84 85/37/85
f  31/33/31 85/37/85 32/49/32
f  60/50/60 80/34/80 52/61/52
f  85/37/85 80/34/80 60/50/60
f  85/37/85 60/50/60 61/73/61
f  85/37/85 61/73/61 32/49/32
f  30/32/30 84/25/84 31/33/31
f  30/32/30 36/28/36 41/6/41
f  52/61/52 51/85/51 60/50/60
f  84/25/84 86/19/86 80/34/80
f  86/19/86 83/21/83 80/34/80
f  84/25/84 30/32/30 86/19/86
f  87/8/87 86/19/86 30/32/30
f  87/8/87 30/32/30 41/6/41
f  32/49/32 61/73/61 9/76/9
f  83/21/83 86/19/86 87/13/87
f  81/27/81 83/21/83 87/13/87
f  88/36/88 45/42/45 89/38/89
f  90/29/90 91/23/91 89/38/89
f  88/36/88 40/40/40 45/42/45
f  71/45/71 75/31/75 92/24/92
f  75/31/75 74/26/74 93/16/93
f  94/15/94 90/29/90 92/24/92
f  94/15/94 92/24/92 95/12/95
f  92/24/92 79/39/79 67/51/67
f  89/38/89 27/55/27 28/52/28
f  89/38/89 45/42/45 27/55/27
f  92/24/92 67/51/67 72/48/72
f  92/24/92 72/48/72 71/45/71
f  94/15/94 91/18/91 90/29/90
f  96/10/96 93/16/93 74/26/74
f  24/70/24 28/52/28 23/71/23
f  95/12/95 93/16/93 96/10/96
f  41/6/41 95/1/95 96/3/96
f  95/12/95 92/24/92 93/16/93
f  75/31/75 93/16/93 92/24/92
f  38/35/38 40/40/40 88/36/88
f  38/7/38 88/5/88 91/4/91
f  89/38/89 91/23/91 88/36/88
f  95/1/95 38/7/38 94/2/94
f  38/7/38 91/4/91 94/2/94
f  95/1/95 41/6/41 38/7/38
f  96/10/96 74/26/74 97/17/97
f  41/11/41 96/10/96 97/17/97
f  28/52/28 24/70/24 77/59/77
f  98/22/98 41/11/41 97/17/97
f  78/44/78 77/59/77 67/51/67
f  97/17/97 74/26/74 99/30/99
f  78/44/78 28/52/28 77/59/77
f  89/38/89 28/52/28 78/44/78
f  74/26/74 73/57/73 99/30/99
f  57/41/57 99/30/99 73/57/73
f  90/29/90 89/38/89 78/44/78
f  98/22/98 97/17/97 99/30/99
f  98/22/98 87/13/87 41/11/41
f  79/39/79 90/29/90 78/44/78
f  92/24/92 90/29/90 79/39/79
f  87/13/87 98/22/98 81/27/81
f  98/22/98 99/30/99 57/41/57
f  57/41/57 56/46/56 98/22/98
f  81/27/81 98/22/98 56/46/56
