#
# Wavefront OBJ file
#
# Created by the Simplygon mesh optimization tool from Microsoft.
#

mtllib hp.mtl

g default
s off
s 1
v -0.554320 0.287886 1.116996
v -0.633129 0.601137 1.071564
v -0.706460 0.063801 0.548340
v -0.674501 0.664092 -0.271888
v 0.427811 1.283234 0.125003
v 0.426574 1.190236 -0.529195
v -0.481617 1.186873 -0.465340
v -0.543654 0.831940 0.397802
v -0.374139 0.585140 -1.108215
v -0.496697 0.722161 1.119075
v -0.535035 0.745853 -0.737972
v -0.600749 0.604612 -1.219714
v -0.570340 0.209625 -1.226361
v -0.419011 1.287519 0.123471
v -0.689623 0.052685 -0.753076
v -1.392091 0.051067 1.705425
v -1.390496 -0.049893 1.703878
v 1.546240 -0.016394 1.712890
v 0.175030 0.864450 0.549987
v 0.566441 0.728568 1.080383
v 0.513195 0.210017 1.144044
v 0.325290 0.065079 0.548439
v -0.319074 0.065079 0.822658
v -0.509278 0.065079 0.426077
v 0.392127 0.065079 -0.479884
v -0.440723 0.065079 -0.882936
v -0.380444 0.065079 -0.822658
v 0.388864 0.065079 -0.822658
v -0.235062 0.057718 0.068558
v 0.519044 0.065079 0.948287
v 0.585101 0.057364 -0.885758
v 0.578926 0.210014 -1.221163
v 0.587073 0.064704 -0.420350
v -0.505190 0.060607 0.941449
v 1.546691 -0.016406 -1.713154
v 0.998806 0.057726 0.616974
v 0.518978 0.065106 0.425873
v 0.685566 0.050235 -0.752708
v 0.671988 0.668661 -0.272246
v 0.568965 0.595668 -1.237795
v -0.576822 0.064415 -0.420247
v -1.398811 0.057773 -0.959698
v -1.399607 -0.003436 -1.772003
v 0.724089 0.058667 0.822462
v 0.681241 0.684520 0.414076
v -0.384038 0.065079 -0.479884
v 0.553609 0.733338 -0.735138
v 0.575640 0.925829 0.342195
v 0.798088 0.818069 0.414363
v 0.751190 0.949171 0.410713
vt 0.003491 0.275651
vt 0.009350 0.570658
vt 0.013140 0.992393
vt 0.020719 0.580915
vt 0.042512 0.374625
vt 0.057660 0.271848
vt 0.086948 0.058880
vt 0.089765 0.420407
vt 0.118659 0.129312
vt 0.124055 0.094445
vt 0.128945 0.304139
vt 0.179536 0.365649
vt 0.183313 0.006541
vt 0.194580 0.118565
vt 0.196295 0.287403
vt 0.242072 0.173984
vt 0.250229 0.003491
vt 0.253145 0.551016
vt 0.269767 0.432545
vt 0.273011 0.103887
vt 0.289916 0.325797
vt 0.292167 0.423540
vt 0.300613 0.387000
vt 0.320417 0.208695
vt 0.335522 0.481721
vt 0.360714 0.511527
vt 0.379260 0.163072
vt 0.389890 0.417882
vt 0.390787 0.311294
vt 0.393671 0.565991
vt 0.410730 0.423044
vt 0.411995 0.413230
vt 0.419056 0.034834
vt 0.432785 0.454542
vt 0.448253 0.512520
vt 0.464169 0.455016
vt 0.487032 0.559587
vt 0.489130 0.397714
vt 0.490170 0.362303
vt 0.490355 0.182686
vt 0.490409 0.143740
vt 0.491318 0.044442
vt 0.499552 0.994231
vt 0.504343 0.354402
vt 0.507470 0.575625
vt 0.512132 0.088971
vt 0.514403 0.571382
vt 0.517814 0.414552
vt 0.519388 0.623699
vt 0.541684 0.268067
vt 0.559520 0.251584
vt 0.579857 0.222864
vt 0.586120 0.172967
vt 0.598347 0.450240
vt 0.602979 0.190885
vt 0.609695 0.073526
vt 0.623248 0.258129
vt 0.632880 0.025525
vt 0.647006 0.640088
vt 0.682589 0.132415
vt 0.684429 0.024975
vt 0.687556 0.106978
vt 0.722241 0.349742
vt 0.722241 0.483434
vt 0.722241 0.677809
vt 0.724508 0.171846
vt 0.739610 0.106535
vt 0.749291 0.468334
vt 0.753927 0.135425
vt 0.759350 0.790838
vt 0.761899 0.454198
vt 0.780458 0.839003
vt 0.781345 0.483921
vt 0.782377 0.316177
vt 0.784290 0.114166
vt 0.784606 0.701838
vt 0.785048 0.274940
vt 0.792949 0.239472
vt 0.816147 0.327827
vt 0.826977 0.601940
vt 0.827584 0.494064
vt 0.832069 0.609488
vt 0.835296 0.567225
vt 0.844590 0.035394
vt 0.852301 0.579663
vt 0.869214 0.031861
vt 0.869511 0.744688
vt 0.875618 0.203832
vt 0.875907 0.163198
vt 0.881563 0.508849
vt 0.888687 0.794169
vt 0.893179 0.723901
vt 0.899494 0.311063
vt 0.900441 0.586628
vt 0.900601 0.172900
vt 0.900905 0.195740
vt 0.901580 0.481545
vt 0.913647 0.197212
vt 0.913721 0.374827
vt 0.970102 0.195291
vt 0.972417 0.355246
vt 0.980794 0.226413
vt 0.980931 0.345255
vt 0.987725 0.175366
vt 0.989138 0.396386
vt 0.991042 0.146069
vt 0.992581 0.030129
vn -1.000000 0.000000 0.000000
vn -0.998315 -0.052510 0.024716
vn -0.990531 -0.113505 -0.077236
vn -0.985138 0.161991 -0.057116
vn -0.971774 -0.235086 0.019758
vn -0.961334 0.166926 0.219027
vn -0.872975 0.251557 -0.417893
vn -0.855492 0.458284 -0.241057
vn -0.623032 0.724944 0.293748
vn -0.533605 -0.756111 -0.378896
vn -0.457434 0.799077 -0.390167
vn -0.409967 -0.763925 0.498343
vn -0.357141 0.887877 0.290041
vn -0.304617 -0.282219 0.909704
vn -0.229044 -0.792375 0.565404
vn -0.119283 -0.076429 -0.989914
vn -0.105426 0.993426 0.044623
vn -0.096874 0.678461 0.728221
vn -0.082866 0.009758 -0.996513
vn -0.033526 -0.936927 -0.347915
vn -0.023505 -0.999722 -0.001905
vn -0.018968 0.999566 0.022549
vn -0.011189 0.999936 0.001414
vn -0.007267 0.999971 -0.002441
vn -0.007018 0.999975 -0.000098
vn -0.006228 -0.999981 -0.000505
vn -0.005573 -0.980781 -0.195034
vn -0.004065 -0.999860 -0.016222
vn -0.002646 -0.999997 -0.000214
vn -0.002436 0.999154 -0.041042
vn -0.002198 0.999980 0.006002
vn -0.002139 0.999983 0.005359
vn -0.001397 0.999984 0.005482
vn -0.000023 0.999985 0.005468
vn 0.000000 -1.000000 0.000000
vn 0.000000 0.000000 1.000000
vn 0.000000 1.000000 0.000000
vn 0.000059 0.555434 -0.831561
vn 0.001401 0.999813 -0.019284
vn 0.001896 0.999997 -0.001557
vn 0.003394 -0.980270 -0.197632
vn 0.004248 0.999963 -0.007485
vn 0.004276 -0.999950 -0.009050
vn 0.004608 0.996646 -0.081697
vn 0.005253 0.996747 -0.080416
vn 0.005868 0.999589 0.028075
vn 0.006188 -0.999953 -0.007405
vn 0.007844 0.996549 -0.082633
vn 0.014798 -0.999891 0.000000
vn 0.016994 0.907965 0.418702
vn 0.018254 0.999820 0.005236
vn 0.024354 0.997799 0.061682
vn 0.026945 0.997847 -0.059798
vn 0.036052 -0.992239 0.119006
vn 0.036258 0.193567 -0.980417
vn 0.037801 0.998513 0.039290
vn 0.050302 0.997527 -0.049079
vn 0.054590 -0.993122 0.103583
vn 0.060512 0.977792 0.200651
vn 0.066337 0.996796 0.044682
vn 0.073082 0.997179 -0.017094
vn 0.103225 0.994650 0.003919
vn 0.120578 -0.917046 -0.380115
vn 0.140041 0.980041 0.141095
vn 0.211151 -0.159641 -0.964329
vn 0.239040 -0.302512 0.922684
vn 0.240780 0.088049 0.966578
vn 0.248633 -0.091802 -0.964238
vn 0.266590 -0.058100 -0.962057
vn 0.321057 0.920897 0.221066
vn 0.359537 0.131476 -0.923822
vn 0.386749 0.803280 -0.452954
vn 0.489382 -0.785861 -0.378058
vn 0.533950 0.086334 0.841097
vn 0.534811 0.682642 -0.497974
vn 0.613604 0.727731 -0.306428
vn 0.775076 0.588872 0.229101
vn 0.783101 -0.592066 0.190290
vn 0.983989 -0.166963 0.062362
vn 0.990559 0.130839 -0.040925
vn 0.997043 -0.021162 -0.073876
vn 0.997350 -0.003293 0.072673
vn 0.999793 -0.020340 0.000191
usemtl (null)
f 1/46/14 2/41/6 3/33/2
f 2/41/6 4/20/4 3/33/2
f 5/21/70 6/15/72 7/16/11
f 4/20/4 2/41/6 8/27/9
f 6/15/72 9/9/38 7/16/11
f 2/41/6 10/40/18 8/27/9
f 7/16/11 9/9/38 11/14/8
f 12/10/7 11/14/8 9/9/38
f 13/7/55 12/10/7 9/9/38
f 7/16/11 14/24/13 5/21/70
f 7/16/11 8/27/9 14/24/13
f 8/27/9 7/16/11 11/14/8
f 4/20/4 8/27/9 11/14/8
f 12/10/7 4/20/4 11/14/8
f 12/10/7 13/7/10 15/13/3
f 15/13/3 4/20/4 12/10/7
f 10/97/18 2/90/6 1/81/14
f 16/2/36 17/4/36 18/3/36
f 14/24/13 8/27/9 19/29/50
f 20/93/74 1/81/14 21/79/66
f 22/63/54 21/79/66 23/71/58
f 10/97/18 1/81/14 20/93/74
f 19/29/50 8/27/9 10/40/18
f 24/65/35 22/80/54 23/76/58
f 25/26/32 26/32/45 27/31/31
f 28/72/27 25/70/35 24/82/35
f 29/56/40 30/67/52 22/62/23
f 31/51/48 26/44/45 28/50/39
f 25/26/32 28/25/39 26/32/45
f 29/56/40 24/58/42 30/67/52
f 25/26/32 27/31/31 29/35/40
f 28/102/27 32/98/73 31/100/63
f 25/53/32 29/56/40 33/55/34
f 23/71/58 21/79/66 34/73/15
f 34/86/33 16/107/46 30/75/52
f 23/84/37 34/86/33 30/75/52
f 24/58/42 23/61/37 30/67/52
f 35/57/57 26/44/45 31/51/48
f 29/56/40 36/66/62 33/55/34
f 25/64/35 33/68/29 37/83/26
f 33/55/34 36/66/62 38/52/61
f 32/98/73 38/104/81 31/100/63
f 38/5/81 39/12/80 33/8/79
f 38/52/61 35/57/57 31/51/48
f 21/79/66 1/81/14 34/73/15
f 38/5/81 40/6/76 39/12/80
f 35/57/57 38/52/61 36/66/62
f 3/33/2 34/42/15 1/46/14
f 24/82/35 3/85/35 41/92/35
f 29/35/40 42/48/30 24/37/42
f 4/20/4 41/17/5 3/33/2
f 16/59/46 34/49/33 3/47/25
f 24/37/42 42/48/30 3/47/25
f 3/47/25 42/48/30 16/59/46
f 43/45/28 35/43/43 17/4/47
f 25/64/35 37/83/26 24/65/35
f 37/83/26 22/80/54 24/65/35
f 30/74/12 21/79/66 22/63/54
f 37/60/53 29/56/40 22/62/23
f 30/75/52 16/107/46 18/78/60
f 17/4/47 35/43/43 18/3/49
f 30/75/52 18/78/60 44/69/56
f 30/74/12 44/77/82 21/79/66
f 29/56/40 37/60/53 36/66/62
f 44/69/56 36/66/62 37/60/53
f 44/94/21 37/83/26 33/68/29
f 44/18/82 33/8/79 45/19/83
f 18/78/60 36/66/62 44/69/56
f 45/19/83 33/8/79 39/12/80
f 44/77/82 45/88/83 20/93/74
f 36/66/62 18/78/60 35/57/57
f 13/99/10 32/98/73 28/102/27
f 13/7/55 9/9/38 32/1/19
f 28/72/27 24/82/35 46/87/35
f 27/91/41 28/72/27 46/87/35
f 47/11/75 9/9/38 6/15/72
f 46/87/35 24/82/35 41/92/35
f 13/99/10 28/102/27 27/103/41
f 26/101/20 13/99/10 27/103/41
f 41/36/22 29/35/40 46/34/51
f 27/31/31 46/34/51 29/35/40
f 40/6/16 32/1/19 9/9/38
f 40/6/76 9/9/38 47/11/75
f 41/36/22 42/48/30 29/35/40
f 41/17/5 4/20/4 15/13/3
f 13/99/10 26/101/20 15/105/3
f 15/38/24 42/48/30 41/36/22
f 38/5/81 32/1/73 40/6/76
f 40/6/76 47/11/75 39/12/80
f 15/38/24 26/44/45 42/48/30
f 39/12/80 47/11/75 48/23/77
f 6/15/72 5/21/70 48/23/77
f 49/96/67 50/95/67 19/106/67
f 6/15/72 48/23/77 47/11/75
f 19/29/50 5/21/70 14/24/13
f 44/77/82 20/93/74 21/79/66
f 50/95/71 49/96/68 48/89/69
f 43/54/44 26/44/45 35/57/57
f 19/29/50 10/40/18 20/39/59
f 48/23/77 5/21/70 19/29/50
f 17/4/1 16/2/1 42/30/1
f 20/39/59 49/28/64 19/29/50
f 48/23/77 19/29/50 50/22/17
f 39/12/80 48/23/77 45/19/83
f 45/88/65 48/89/69 49/96/68
f 20/93/74 45/88/83 49/96/78
f 43/54/44 42/48/30 26/44/45
f 43/45/1 17/4/1 42/30/1
