mtllib mesh.mtl
g default
v 57.09337615966797 -1.9848957061767578 -51.250885009765625 
v -57.42428970336914 -2.094710350036621 53.21474075317383 
v 57.2281494140625 -1.5506210327148438 52.23500442504883 
v 53.270362854003906 -22.303783416748047 50.54164123535156 
v 32.708187103271484 -19.378387451171875 48.940914154052734 
v 35.05298614501953 -23.187747955322266 47.762718200683594 
v -55.08320617675781 -16.829822540283203 51.59706115722656 
v -32.53673553466797 -18.416606903076172 48.89052963256836 
v 34.80931854248047 -18.796815872192383 25.652713775634766 
v 52.56673049926758 -22.73200225830078 30.405790328979492 
v -34.76545333862305 -18.71164321899414 25.60320281982422 
v 32.692996978759766 -17.994354248046875 -48.0013313293457 
v 52.99309539794922 -23.139169692993164 -46.85681915283203 
v 35.07710647583008 -23.068279266357422 -46.72022247314453 
v 55.51326370239258 -15.89390754699707 -48.60283279418945 
v 55.90244674682617 -16.151615142822266 47.54685592651367 
v 52.52519226074219 -18.137638092041016 25.879159927368164 
v 32.730289459228516 -18.788188934326172 -29.237707138061523 
v -52.8339958190918 -23.229690551757812 -47.70892333984375 
v -56.97013854980469 -1.735367774963379 -51.070213317871094 
v -54.64992141723633 -12.139851570129395 47.435726165771484 
v -54.41791534423828 -18.889083862304688 -26.927852630615234 
v -52.97158432006836 -22.783180236816406 48.122432708740234 
v -34.665260314941406 -23.667011260986328 48.07635498046875 
vt 0.07861310243606567 0.2731338143348694 
vt 0.0013385395286604762 0.13190019130706787 
vt 0.0021364965941756964 0.0006760358810424805 
vt 0.0017488421872258186 0.9996094164671376 
vt 0.07858636975288391 0.23966729640960693 
vt 0.0002620335726533085 0.49330759048461914 
vt 0.0012043145252391696 0.9016011208295822 
vt 0.03865082934498787 0.14049780368804932 
vt 0.08198564499616623 0.2795860171318054 
vt 0.004181141499429941 0.35057878494262695 
vt 0.06062797084450722 0.3010607361793518 
vt 0.054069746285676956 0.4516395926475525 
vt 0.13688257336616516 0.9175278544425964 
vt 0.12066853791475296 0.11762100458145142 
vt 0.16601034998893738 0.27315300703048706 
vt 0.13452722132205963 0.09259152412414551 
vt 0.34093961119651794 0.7117014527320862 
vt 0.42136913537979126 0.8030500710010529 
vt 0.26562562584877014 0.6442860662937164 
vt 0.6726261973381042 0.949573989957571 
vt 0.6625060439109802 0.8877073898911476 
vt 0.3421487808227539 0.7187175452709198 
vt 0.6887459754943848 0.923516035079956 
vt 0.34193411469459534 0.7257413864135742 
vt 0.711097002029419 0.9991837681736797 
vt 0.4503224492073059 0.23387396335601807 
vt 0.46430298686027527 0.19599676132202148 
vt 0.41671285033226013 0.7977918386459351 
vt 0.5223775506019592 0.24888020753860474 
vt 0.4850497841835022 0.08481276035308838 
vt 0.4575343728065491 0.20006507635116577 
vt 0.5006556510925293 0.09906399250030518 
vt 0.5755176544189453 0.10840249061584473 
vt 0.6016196608543396 0.10478121042251587 
vt 0.6063079833984375 0.09888243675231934 
vt 0.6090487241744995 0.0713658332824707 
vt 0.582869291305542 0.1013522744178772 
vt 0.6170729398727417 0.04713153839111328 
vt 0.6318681836128235 0.0003936290740966797 
vt 0.9947039484977722 0.0026357173919677734 
vt 0.9997793436050415 0.18393158912658691 
vt 0.9995165467262268 0.9984851297922432 
vn 0.116810642182827 0.9899169206619263 -0.08012370765209198
vn -0.04878191649913788 0.9970186948776245 0.05978315696120262
vn 0.1103883683681488 0.951145350933075 0.2883349359035492
vn 0.218523308634758 -0.8788247108459473 0.4241634011268616
vn -0.0024577518925070763 -0.8706827163696289 0.49183890223503113
vn -0.1686093509197235 -0.9855947494506836 0.01318797841668129
vn -0.3313368260860443 -0.1730538159608841 0.9275064468383789
vn 0.05837913230061531 -0.9816698431968689 0.18142861127853394
vn -0.014065093360841274 -0.9996998310089111 -0.02005908451974392
vn 0.12890641391277313 -0.9827786087989807 -0.1323985904455185
vn 0.02258005179464817 -0.9996578097343445 -0.01320883072912693
vn -0.0009020689758472145 -0.9101883172988892 -0.4141935706138611
vn 0.2359757423400879 -0.969696581363678 -0.06327638775110245
vn -0.1521294116973877 -0.9875174760818481 0.04081602394580841
vn 0.9034469723701477 -0.3738528788089752 -0.20980340242385864
vn 0.9722473621368408 -0.1982193887233734 0.12427420914173126
vn 0.12080129981040955 -0.9924365282058716 0.02183511294424534
vn -0.03317848965525627 -0.9993364810943604 0.015028372406959534
vn -0.13686665892601013 -0.8203172087669373 -0.555290162563324
vn -0.23624147474765778 0.924665629863739 -0.29863590002059937
vn -0.8500291705131531 -0.26535096764564514 0.45501580834388733
vn -0.26878154277801514 -0.9629518389701843 0.02191510610282421
vn -0.1252785176038742 -0.9918992519378662 0.02100410871207714
vn 0.19710305333137512 -0.9803754687309265 -0.0037724077701568604
s 1 
g pMesh1
usemtl defaultMat
f  1/29/1 2/42/2 3/28/3
f  4/8/4 5/16/5 6/14/6
f  7/36/7 5/16/5 3/3/3
f  5/16/5 7/36/7 8/30/8
f  9/15/9 10/5/10 6/14/6
f  9/15/9 6/14/6 5/16/5
f  5/16/5 11/31/11 9/15/9
f  12/34/12 13/27/13 14/33/14
f  13/27/13 12/34/12 15/26/15
f  1/29/1 15/26/15 12/34/12
f  15/26/15 1/29/1 16/24/16
f  14/10/14 17/19/17 18/12/18
f  13/11/13 17/19/17 14/10/14
f  11/31/11 18/17/18 9/15/9
f  12/6/12 14/10/14 18/12/18
f  13/11/13 15/9/15 17/19/17
f  17/19/17 15/9/15 16/22/16
f  9/15/9 18/17/18 17/1/17
f  9/15/9 17/1/17 10/5/10
f  16/2/16 10/5/10 17/1/17
f  12/6/12 18/12/18 11/18/11
f  19/40/19 20/41/20 12/34/12
f  12/34/12 20/41/20 1/29/1
f  21/38/21 3/3/3 2/39/2
f  6/14/6 10/5/10 4/8/4
f  10/5/10 16/2/16 4/8/4
f  16/2/16 5/16/5 4/8/4
f  16/2/16 3/3/3 5/16/5
f  1/29/1 20/41/20 2/42/2
f  3/3/3 21/38/21 7/36/7
f  22/13/22 21/20/21 20/4/20
f  7/36/7 23/35/23 8/30/8
f  24/32/24 8/30/8 23/35/23
f  11/31/11 5/16/5 8/30/8
f  11/31/11 8/30/8 24/32/24
f  11/31/11 24/32/24 23/37/23
f  16/24/16 1/29/1 3/28/3
f  12/6/12 11/18/11 22/13/22
f  19/7/19 12/6/12 22/13/22
f  20/4/20 21/20/21 2/25/2
f  7/23/7 21/20/21 22/13/22
f  22/13/22 11/18/11 23/21/23
f  22/13/22 23/21/23 7/23/7
f  19/7/19 22/13/22 20/4/20
