#
# Wavefront OBJ file
#
# Created by the Simplygon mesh optimization tool from Microsoft.
#

mtllib hp.mtl

g default
s off
s 1
v 0.046820 0.229587 0.067818
v -0.016616 0.230363 0.081655
v 0.005905 0.019676 0.080854
v 0.015044 0.020225 -0.080200
v -0.016422 0.226103 -0.082153
v 0.024221 0.225973 -0.080354
v -0.014270 0.035306 -0.065141
v 0.006465 0.230252 -0.065363
v -0.021882 0.230235 -0.061625
v -0.036334 0.019769 0.072574
v 0.006563 0.035340 0.065804
v 0.014068 0.035303 -0.065144
v -0.030732 0.036114 0.058202
v -0.068036 0.229614 0.046605
v -0.065114 0.035353 0.014024
v -0.060490 0.230128 0.025156
v -0.026560 0.230126 0.059780
v 0.006499 0.229219 0.065890
v -0.051683 0.019758 -0.062610
v -0.053104 0.230389 -0.064316
v 0.001604 0.232898 -0.080652
v 0.056770 0.225823 -0.062100
v -0.064701 0.230449 -0.017337
v -0.079689 0.231854 0.010621
v -0.050797 0.035316 -0.042812
v 0.043759 0.230245 -0.048115
v -0.065508 0.035300 -0.012669
v 0.044345 0.229602 0.049243
v 0.051061 0.002815 -0.049657
v 0.045796 0.019721 -0.067002
v 0.079758 0.019764 -0.016090
v 0.069476 0.002505 0.015024
v 0.028462 0.002020 0.064558
v 0.059404 0.019790 0.055534
v -0.016135 0.019884 -0.079765
v -0.071815 0.020095 -0.038470
v -0.071272 0.003017 0.001763
v -0.080742 0.019622 0.006102
v 0.078983 0.020449 0.024206
v -0.016386 -0.000465 0.064741
v -0.072164 0.019624 0.036853
v -0.063027 0.003024 0.032969
v 0.049413 0.035319 -0.044221
v 0.063809 0.035321 -0.019232
v 0.063820 0.035291 0.019064
v 0.010388 0.001863 -0.070398
v -0.052230 0.002392 -0.048090
v 0.066333 0.229356 -0.008156
v -0.076624 0.229590 -0.029896
v 0.075105 0.229596 -0.034557
v 0.049475 0.035329 0.044809
v 0.073439 0.229626 0.036715
v 0.078527 0.232731 0.006242
v 0.061509 0.229305 0.025528
vt 0.003509 0.009532
vt 0.004477 0.066166
vt 0.010224 0.154465
vt 0.019134 0.850687
vt 0.032355 0.260652
vt 0.038772 0.828534
vt 0.059071 0.873563
vt 0.071212 0.337036
vt 0.095142 0.851535
vt 0.114886 0.873064
vt 0.116723 0.397029
vt 0.144766 0.851713
vt 0.156127 0.879422
vt 0.181333 0.839016
vt 0.202488 0.462087
vt 0.202721 0.567962
vt 0.204909 0.855319
vt 0.232405 0.809505
vt 0.235114 0.595481
vt 0.269260 0.773144
vt 0.270054 0.807436
vt 0.279087 0.587433
vt 0.279239 0.503394
vt 0.295639 0.713212
vt 0.296029 0.652316
vt 0.316429 0.631874
vt 0.317188 0.161455
vt 0.317775 0.740267
vt 0.324072 0.688106
vt 0.326183 0.110691
vt 0.327526 0.195334
vt 0.345457 0.071236
vt 0.368893 0.234152
vt 0.396687 0.533640
vt 0.400312 0.020450
vt 0.417866 0.228061
vt 0.436046 0.003509
vt 0.484734 0.179038
vt 0.489630 0.534260
vt 0.512604 0.150261
vt 0.537462 0.104274
vt 0.587238 0.857698
vt 0.597479 0.923934
vt 0.605144 0.788112
vt 0.608977 0.539302
vt 0.612132 0.522011
vt 0.621491 0.103603
vt 0.622500 0.877996
vt 0.629907 0.505849
vt 0.630681 0.446999
vt 0.634049 0.800632
vt 0.645477 0.934633
vt 0.648647 0.328651
vt 0.649728 0.522536
vt 0.652965 0.388027
vt 0.653436 0.283385
vt 0.653670 0.223468
vt 0.654447 0.129977
vt 0.654821 0.040618
vt 0.655695 0.760381
vt 0.657931 0.607481
vt 0.658607 0.726663
vt 0.659704 0.436051
vt 0.659988 0.667643
vt 0.663265 0.489994
vt 0.664142 0.548510
vt 0.667368 0.985578
vt 0.671161 0.772493
vt 0.721230 0.993865
vt 0.727012 0.739901
vt 0.728127 0.960355
vt 0.746998 0.774126
vt 0.771497 0.751701
vt 0.777979 0.975909
vt 0.804898 0.906445
vt 0.810110 0.842791
vt 0.815513 0.792482
vt 0.951455 0.496784
vt 0.952112 0.448296
vt 0.953727 0.248625
vt 0.953784 0.302185
vt 0.954192 0.162395
vt 0.954336 0.360392
vt 0.954566 0.098959
vt 0.957754 0.541932
vt 0.958979 0.599535
vt 0.960208 0.645483
vt 0.961693 0.711790
vt 0.963837 0.759112
vt 0.984157 0.427915
vt 0.984270 0.497110
vt 0.991651 0.704059
vn -0.998946 -0.045852 0.001863
vn -0.993441 0.012994 0.113604
vn -0.975445 0.061836 0.211386
vn -0.975352 0.007941 -0.220514
vn -0.973199 -0.002080 0.229953
vn -0.941479 0.010567 -0.336906
vn -0.936285 -0.006582 -0.351181
vn -0.909218 -0.087344 -0.407055
vn -0.835854 -0.048855 0.546774
vn -0.754403 0.018717 0.656144
vn -0.700216 -0.009207 0.713872
vn -0.692248 -0.002287 0.721656
vn -0.646970 0.133957 -0.750657
vn -0.633015 0.008470 -0.774093
vn -0.603148 -0.067971 -0.794728
vn -0.591452 -0.000390 -0.806340
vn -0.489661 -0.076234 0.868574
vn -0.435908 -0.847584 0.302631
vn -0.311161 0.006544 0.950335
vn -0.286938 -0.932921 -0.217542
vn -0.248452 -0.118984 -0.961309
vn -0.225062 0.038796 -0.973572
vn -0.196948 -0.008745 0.980375
vn -0.183037 0.027620 0.982718
vn -0.181186 0.982510 -0.042963
vn -0.172509 0.007921 -0.984976
vn -0.157245 0.002258 -0.987557
vn -0.145366 -0.988531 -0.040942
vn -0.142630 0.987548 -0.066371
vn -0.087137 0.994201 -0.063015
vn -0.086761 0.995771 -0.030193
vn -0.045460 0.983822 0.173284
vn -0.044089 -0.991585 0.121714
vn -0.004842 0.998162 0.060416
vn -0.001000 0.999832 0.018320
vn -0.000356 0.999996 0.002681
vn 0.000000 -1.000000 0.000000
vn 0.000000 1.000000 0.000000
vn 0.012504 0.999907 0.005517
vn 0.016110 0.999773 0.013942
vn 0.030088 0.925742 -0.376958
vn 0.033254 0.999342 -0.014488
vn 0.046661 0.998775 0.016451
vn 0.056292 -0.964638 -0.257495
vn 0.065589 0.997771 0.012312
vn 0.141719 0.982181 0.123438
vn 0.143169 0.980884 -0.131790
vn 0.162151 -0.976602 -0.141264
vn 0.162496 -0.062177 0.984748
vn 0.166492 -0.954305 0.248157
vn 0.184245 -0.121508 -0.975341
vn 0.273995 0.047739 -0.960545
vn 0.324599 0.008226 0.945816
vn 0.414233 -0.905524 0.091856
vn 0.447728 0.018413 0.893980
vn 0.508645 -0.003996 -0.860967
vn 0.552287 -0.024694 0.833288
vn 0.579616 0.012879 -0.814788
vn 0.640833 -0.086493 0.762793
vn 0.675617 0.115159 -0.728203
vn 0.687007 -0.062236 -0.723980
vn 0.718784 0.002972 0.695227
vn 0.895257 0.013349 0.445349
vn 0.897095 -0.003814 -0.441821
vn 0.905721 0.008142 -0.423796
vn 0.918965 -0.022518 0.393695
vn 0.949958 -0.074187 -0.303439
vn 0.950751 -0.010223 -0.309786
vn 0.965312 0.010805 0.260875
vn 0.973873 -0.002352 0.227081
vn 0.999954 0.004117 0.008624
usemtl (null)
f 1/57/55 2/58/24 3/82/49
f 4/78/51 5/66/22 6/65/52
f 7/37/53 8/2/23 9/1/57
f 3/82/49 2/58/24 10/84/17
f 11/33/38 12/35/38 13/36/38
f 12/35/19 8/2/23 7/37/53
f 14/59/10 10/84/17 2/58/24
f 15/38/65 16/34/64 13/36/58
f 11/33/26 13/36/58 17/23/56
f 18/15/27 11/33/26 17/23/56
f 19/86/15 20/61/13 5/66/22
f 21/16/41 20/22/13 9/19/34
f 21/54/41 5/66/22 20/61/13
f 6/65/52 5/66/22 21/54/41
f 6/65/52 21/54/41 22/63/60
f 9/45/34 8/49/32 21/54/41
f 16/24/43 23/25/42 24/29/45
f 16/24/43 24/29/45 14/28/39
f 9/46/57 25/41/62 7/47/53
f 9/19/34 20/22/13 23/25/42
f 25/41/62 9/46/57 23/39/66
f 21/54/41 8/49/32 26/50/47
f 12/35/19 26/3/11 8/2/23
f 7/37/38 25/41/38 12/35/38
f 26/50/47 22/63/60 21/54/41
f 16/24/43 14/28/39 2/21/38
f 16/34/64 17/23/56 13/36/58
f 2/21/38 17/20/38 16/24/43
f 27/40/38 12/35/38 25/41/38
f 18/18/36 17/20/38 2/21/38
f 27/40/70 25/41/62 23/39/66
f 18/18/36 2/21/38 1/17/35
f 1/17/35 28/14/40 18/18/36
f 29/90/48 4/78/51 30/79/61
f 12/35/38 15/38/38 13/36/38
f 27/40/38 15/38/38 12/35/38
f 30/79/61 31/83/67 29/90/48
f 32/71/54 33/52/50 29/75/48
f 29/75/48 31/74/67 32/71/54
f 32/71/54 34/67/59 33/52/50
f 4/78/51 35/85/21 5/66/22
f 36/87/8 37/92/28 38/88/1
f 31/74/67 34/67/59 32/71/54
f 31/74/37 39/69/37 34/67/37
f 35/85/21 19/86/15 5/66/22
f 3/43/49 33/52/50 34/67/59
f 33/52/50 3/43/49 40/48/33
f 41/89/9 38/88/1 37/92/28
f 33/52/50 40/48/33 29/75/48
f 40/48/33 3/43/49 10/42/17
f 40/48/33 10/42/17 42/51/18
f 37/68/28 40/48/33 42/51/18
f 29/75/48 40/48/33 37/68/28
f 41/44/9 42/51/18 10/42/17
f 30/79/61 4/78/51 6/65/52
f 22/63/60 30/79/61 6/65/52
f 43/32/38 12/35/38 44/30/38
f 44/30/38 12/35/38 45/27/38
f 29/75/48 37/68/28 46/76/44
f 47/72/20 46/76/44 37/68/28
f 35/77/21 46/76/44 47/72/20
f 47/72/20 19/73/15 35/77/21
f 37/68/28 19/73/15 47/72/20
f 35/85/21 4/78/51 29/90/48
f 29/90/48 46/91/44 35/85/21
f 43/32/12 44/30/5 48/5/3
f 24/29/45 23/25/42 20/22/13
f 44/30/5 45/27/4 48/5/3
f 20/22/13 49/26/30 24/29/45
f 30/79/61 50/55/68 31/83/67
f 14/28/10 41/44/9 10/42/17
f 14/28/10 24/29/2 41/44/9
f 51/31/38 12/35/38 11/33/38
f 45/27/38 12/35/38 51/31/38
f 1/57/55 3/82/49 34/80/59
f 34/80/59 39/81/69 52/56/63
f 12/35/19 43/32/12 26/3/11
f 26/3/11 43/32/12 48/5/3
f 50/55/68 30/79/61 22/63/60
f 31/83/67 50/55/68 39/81/69
f 38/88/1 24/62/2 49/64/6
f 52/56/63 1/57/55 34/80/59
f 26/6/47 48/9/3 53/10/31
f 53/10/31 22/4/60 26/6/47
f 45/27/4 54/8/7 48/5/3
f 45/27/4 51/31/14 54/8/7
f 48/9/3 54/12/25 53/10/31
f 27/40/70 23/39/66 16/34/64
f 15/38/65 27/40/70 16/34/64
f 36/87/8 49/64/6 20/61/13
f 22/4/60 53/10/31 50/7/29
f 20/61/13 19/86/15 36/87/8
f 41/89/9 24/62/2 38/88/1
f 39/81/69 50/55/68 53/53/71
f 28/11/16 11/33/26 18/15/27
f 36/87/8 38/88/1 49/64/6
f 28/11/16 51/31/14 11/33/26
f 51/31/14 28/11/16 54/8/7
f 54/12/25 28/14/40 1/17/35
f 53/10/31 54/12/25 1/17/35
f 52/56/63 39/81/69 53/53/71
f 53/10/31 1/17/35 52/13/46
f 41/44/9 37/60/28 42/51/18
f 37/68/28 36/70/8 19/73/15
