mtllib mesh.mtl
g default
v 57.22727584838867 -0.8501796722412109 -51.34272766113281 
v -57.31996536254883 -4.226923942565918 53.086883544921875 
v 57.246524810791016 -1.3922805786132812 52.28300476074219 
v 52.81043243408203 -20.454105377197266 49.648895263671875 
v 32.711978912353516 -18.037395477294922 48.18339920043945 
v 35.333133697509766 -21.550153732299805 47.740806579589844 
v -54.68870162963867 -16.623775482177734 50.492733001708984 
v -32.54636001586914 -18.254743576049805 48.86061096191406 
v 34.82477951049805 -17.69802474975586 25.674760818481445 
v 52.42422103881836 -21.64556121826172 30.552154541015625 
v -34.76770782470703 -18.611854553222656 25.604522705078125 
v 32.69294357299805 -18.048023223876953 -48.02574920654297 
v 52.65365219116211 -21.744304656982422 -46.76579666137695 
v 35.30709457397461 -21.575366973876953 -46.781925201416016 
v 56.47333526611328 -16.29119110107422 -48.825782775878906 
v 56.636573791503906 -16.301286697387695 47.64069366455078 
v 52.51415252685547 -18.04697608947754 25.877164840698242 
v 32.7579345703125 -17.95536994934082 -29.250234603881836 
v -52.62724685668945 -21.99053192138672 -46.87010955810547 
v -57.21503829956055 -0.7768115997314453 -51.379791259765625 
v -55.11360168457031 -12.284597396850586 47.683929443359375 
v -54.12190628051758 -17.828590393066406 -26.951984405517578 
v -52.916526794433594 -22.347259521484375 48.11319351196289 
v -34.9699821472168 -22.151336669921875 48.082183837890625 
vt 0.07861310243606567 0.2731338143348694 
vt 0.0013385395286604762 0.13190019130706787 
vt 0.0021364965941756964 0.0006760358810424805 
vt 0.0017488421872258186 0.9996094164671376 
vt 0.07858636975288391 0.23966729640960693 
vt 0.0002620335726533085 0.49330759048461914 
vt 0.0012043145252391696 0.9016011208295822 
vt 0.03865082934498787 0.14049780368804932 
vt 0.08198564499616623 0.2795860171318054 
vt 0.004181141499429941 0.35057878494262695 
vt 0.06062797084450722 0.3010607361793518 
vt 0.054069746285676956 0.4516395926475525 
vt 0.13688257336616516 0.9175278544425964 
vt 0.12066853791475296 0.11762100458145142 
vt 0.16601034998893738 0.27315300703048706 
vt 0.13452722132205963 0.09259152412414551 
vt 0.34093961119651794 0.7117014527320862 
vt 0.42136913537979126 0.8030500710010529 
vt 0.26562562584877014 0.6442860662937164 
vt 0.6726261973381042 0.949573989957571 
vt 0.6625060439109802 0.8877073898911476 
vt 0.3421487808227539 0.7187175452709198 
vt 0.6887459754943848 0.923516035079956 
vt 0.34193411469459534 0.7257413864135742 
vt 0.711097002029419 0.9991837681736797 
vt 0.4503224492073059 0.23387396335601807 
vt 0.46430298686027527 0.19599676132202148 
vt 0.41671285033226013 0.7977918386459351 
vt 0.5223775506019592 0.24888020753860474 
vt 0.4850497841835022 0.08481276035308838 
vt 0.4575343728065491 0.20006507635116577 
vt 0.5006556510925293 0.09906399250030518 
vt 0.5755176544189453 0.10840249061584473 
vt 0.6016196608543396 0.10478121042251587 
vt 0.6063079833984375 0.09888243675231934 
vt 0.6090487241744995 0.0713658332824707 
vt 0.582869291305542 0.1013522744178772 
vt 0.6170729398727417 0.04713153839111328 
vt 0.6318681836128235 0.0003936290740966797 
vt 0.9947039484977722 0.0026357173919677734 
vt 0.9997793436050415 0.18393158912658691 
vt 0.9995165467262268 0.9984851297922432 
vn 0.116810642182827 0.9899169206619263 -0.08012370765209198
vn -0.04878191649913788 0.9970186948776245 0.05978315323591232
vn 0.1103883683681488 0.951145350933075 0.2883349061012268
vn 0.21852333843708038 -0.878824770450592 0.42416346073150635
vn -0.0024577456060796976 -0.8706827163696289 0.4918389916419983
vn -0.1686093509197235 -0.9855947494506836 0.013187967240810394
vn -0.3313368558883667 -0.17305412888526917 0.9275064468383789
vn 0.05837909132242203 -0.9816698431968689 0.18142861127853394
vn -0.01406507845968008 -0.9996998310089111 -0.020059101283550262
vn 0.12890639901161194 -0.9827786087989807 -0.13239862024784088
vn 0.022580038756132126 -0.9996578097343445 -0.013208843767642975
vn -0.0009020856814458966 -0.9101883769035339 -0.41419360041618347
vn 0.23597575724124908 -0.969696581363678 -0.06327639520168304
vn -0.1521294116973877 -0.9875174760818481 0.040816012769937515
vn 0.9034470915794373 -0.37385281920433044 -0.20980341732501984
vn 0.9722473621368408 -0.19821931421756744 0.12427420914173126
vn 0.12080129981040955 -0.9924365282058716 0.02183511294424534
vn -0.03317849710583687 -0.9993364810943604 0.015028364025056362
vn -0.13686662912368774 -0.8203172087669373 -0.555290162563324
vn -0.23624148964881897 0.924665629863739 -0.298635870218277
vn -0.8500291109085083 -0.265350878238678 0.45501577854156494
vn -0.26878151297569275 -0.9629518389701843 0.02191508561372757
vn -0.1252785325050354 -0.9918992519378662 0.02100411243736744
vn 0.19710300862789154 -0.9803754687309265 -0.0037723989225924015
s 1 
g pMesh1
usemtl defaultMat
f  1/29/1 2/42/2 3/28/3
f  4/8/4 5/16/5 6/14/6
f  7/36/7 5/16/5 3/3/3
f  5/16/5 7/36/7 8/30/8
f  9/15/9 10/5/10 6/14/6
f  9/15/9 6/14/6 5/16/5
f  5/16/5 11/31/11 9/15/9
f  12/34/12 13/27/13 14/33/14
f  13/27/13 12/34/12 15/26/15
f  1/29/1 15/26/15 12/34/12
f  15/26/15 1/29/1 16/24/16
f  14/10/14 17/19/17 18/12/18
f  13/11/13 17/19/17 14/10/14
f  11/31/11 18/17/18 9/15/9
f  12/6/12 14/10/14 18/12/18
f  13/11/13 15/9/15 17/19/17
f  17/19/17 15/9/15 16/22/16
f  9/15/9 18/17/18 17/1/17
f  9/15/9 17/1/17 10/5/10
f  16/2/16 10/5/10 17/1/17
f  12/6/12 18/12/18 11/18/11
f  19/40/19 20/41/20 12/34/12
f  12/34/12 20/41/20 1/29/1
f  21/38/21 3/3/3 2/39/2
f  6/14/6 10/5/10 4/8/4
f  10/5/10 16/2/16 4/8/4
f  16/2/16 5/16/5 4/8/4
f  16/2/16 3/3/3 5/16/5
f  1/29/1 20/41/20 2/42/2
f  3/3/3 21/38/21 7/36/7
f  22/13/22 21/20/21 20/4/20
f  7/36/7 23/35/23 8/30/8
f  24/32/24 8/30/8 23/35/23
f  11/31/11 5/16/5 8/30/8
f  11/31/11 8/30/8 24/32/24
f  11/31/11 24/32/24 23/37/23
f  16/24/16 1/29/1 3/28/3
f  12/6/12 11/18/11 22/13/22
f  19/7/19 12/6/12 22/13/22
f  20/4/20 21/20/21 2/25/2
f  7/23/7 21/20/21 22/13/22
f  22/13/22 11/18/11 23/21/23
f  22/13/22 23/21/23 7/23/7
f  19/7/19 22/13/22 20/4/20
