#
# Wavefront OBJ file
#
# Created by the Simplygon mesh optimization tool from Microsoft.
#

mtllib hp.mtl

g default
s off
s 1
v 7.732351 7.104991 5.559497
v 6.901428 10.076365 5.725647
v 6.892039 11.047652 6.888890
v 6.423378 7.172903 6.486576
v 5.368767 5.008408 5.415824
v 6.101398 4.579656 4.518583
v 7.548523 2.122585 -0.945581
v 6.734895 1.933309 1.008003
v 9.352320 3.354833 -1.535803
v 6.858481 -0.493134 0.395597
v 6.217681 5.424871 2.129248
v 5.871727 1.500110 4.538966
v 6.356278 2.437802 -0.133532
v 5.812222 6.389165 -0.395452
v 9.019228 1.949248 -3.595311
v 6.069555 1.986900 -0.068921
v 4.934376 11.056461 6.579756
v 4.408270 7.384023 3.102538
v 5.973910 1.503389 5.975569
v 5.434258 3.526053 -2.204779
v 4.904811 7.512902 -1.809331
v 3.410923 10.927720 -0.462210
v 5.337606 9.096507 5.229821
v 3.904098 6.655081 4.974713
v 4.419312 7.347979 0.548422
v 0.829803 9.906429 1.543289
v 3.026090 9.570609 0.011705
v -0.154512 6.295125 6.512088
v 3.763222 0.471216 8.040854
v 3.596542 6.323527 1.657606
v 1.854031 9.058762 0.092148
v 4.061926 4.592815 4.309805
v 4.336768 -2.678827 4.337007
v 9.854897 3.472442 -2.971880
v 9.484411 5.698244 -4.486831
v 9.163466 -3.016123 -3.934721
v 1.741190 -0.936410 6.991075
v 0.304567 -1.066320 8.710982
v 7.767984 -3.291981 -2.194164
v 5.685063 -4.045153 0.035017
v 6.620189 -2.463131 4.011953
v 6.657350 -3.026500 -1.896891
v 5.682548 -3.450665 4.071336
v 3.738504 -2.999293 6.664653
v 5.573729 -3.036176 -0.802055
v 6.865074 -6.192008 5.600993
v 3.829825 -5.474154 4.430939
v 6.383313 -7.064936 -0.443058
v 5.913605 -7.081371 -0.948689
v 3.858344 -7.929389 2.150311
v 3.114219 -7.110687 1.523352
v 4.161784 -7.042862 3.902698
v -7.506329 -2.444348 -1.297941
v -10.025246 3.471207 -3.025405
v -8.478910 -4.458681 -3.945600
v 0.336358 -5.930487 5.769453
v 0.739259 -4.475248 8.401238
v -0.137090 -11.877743 4.579968
v 7.990777 -4.044911 -4.648096
v 6.989782 -6.125938 -3.501338
v -3.208515 10.841384 -0.970115
v -5.505498 6.908478 0.009767
v -4.305470 7.072770 0.402823
v -7.136425 13.585862 5.142899
v -6.227348 11.544613 7.097948
v -5.102420 10.992610 6.580427
v -5.766292 9.618696 7.184362
v -5.856480 8.909628 5.001501
v -7.178563 10.607247 6.117579
v -9.348556 13.631481 4.621540
v -4.044185 0.462963 7.870787
v -5.105631 5.525428 5.511233
v -5.824039 1.968963 6.459330
v -4.523932 -3.009986 6.106582
v -0.149055 4.112124 6.052037
v -0.157536 7.377019 3.756345
v 6.518234 13.067865 5.147499
v -0.155711 -3.693415 6.344958
v -1.109407 9.795438 0.620073
v -3.182076 8.044151 0.670116
v -4.275509 7.020311 4.018856
v -3.947372 4.644121 4.640891
v -5.141209 7.022503 2.096295
v -4.870618 6.593754 5.389857
v -4.362283 -2.693029 4.338322
v -5.151865 7.006457 -1.851626
v -5.234860 3.536518 -2.074267
v -6.300866 1.929866 -0.221563
v -6.198414 5.460502 2.172424
v -7.763196 7.103265 5.529514
v -6.321767 4.028778 4.062671
v -6.764667 1.910276 1.036257
v -5.787417 -3.616563 4.579322
v -9.311954 2.967325 -3.752007
v -0.562905 -3.980005 8.827451
v -3.631658 -4.708916 4.847979
v -0.134826 -9.146206 3.783757
v -9.232118 -0.068904 -4.363780
v -7.785076 -5.024217 -4.355080
v -3.026746 -8.398124 2.596000
v -5.028129 -4.932761 4.118739
v -6.391177 -7.103843 -0.898066
v -5.368176 -2.602098 -0.850396
v -6.219321 -5.988244 5.559064
v -5.708191 -3.558532 0.036631
v -6.886222 -3.566965 -2.462578
v -7.183941 -5.578838 5.590396
v -7.262805 -5.936101 -2.902348
v -6.856480 -5.518863 -3.428364
v 9.311881 13.602948 4.635327
v -9.785231 5.834551 -4.500497
vt 0.003066 0.319908
vt 0.003066 0.147608
vt 0.005165 0.049166
vt 0.005920 0.385788
vt 0.007853 0.206450
vt 0.014933 0.452166
vt 0.022598 0.487921
vt 0.024090 0.228391
vt 0.031648 0.395190
vt 0.040176 0.767899
vt 0.045966 0.540895
vt 0.048053 0.194613
vt 0.048412 0.180801
vt 0.050364 0.721716
vt 0.050391 0.577285
vt 0.050483 0.624429
vt 0.056789 0.868997
vt 0.074522 0.186986
vt 0.076138 0.772476
vt 0.077740 0.584858
vt 0.090968 0.487276
vt 0.091636 0.263824
vt 0.091937 0.218284
vt 0.093893 0.014766
vt 0.094383 0.682887
vt 0.095902 0.495844
vt 0.109566 0.655315
vt 0.114423 0.599629
vt 0.114614 0.040776
vt 0.122081 0.709035
vt 0.122811 0.617601
vt 0.130019 0.572347
vt 0.136178 0.220268
vt 0.137805 0.243484
vt 0.138724 0.361452
vt 0.142056 0.432210
vt 0.150345 0.514785
vt 0.150668 0.478386
vt 0.151334 0.118344
vt 0.169624 0.049090
vt 0.174771 0.124622
vt 0.178542 0.162337
vt 0.185986 0.722645
vt 0.188999 0.637677
vt 0.190442 0.595201
vt 0.191100 0.319473
vt 0.192519 0.809637
vt 0.192686 0.105193
vt 0.195697 0.124061
vt 0.196426 0.590898
vt 0.196426 0.816383
vt 0.202643 0.737199
vt 0.205189 0.400140
vt 0.216333 0.515763
vt 0.217461 0.684972
vt 0.228026 0.130495
vt 0.236317 0.279826
vt 0.247376 0.810728
vt 0.254259 0.574461
vt 0.254999 0.657960
vt 0.255444 0.368688
vt 0.258125 0.665176
vt 0.259812 0.036357
vt 0.262625 0.768691
vt 0.262810 0.750821
vt 0.266498 0.215999
vt 0.273548 0.860255
vt 0.284316 0.684240
vt 0.284454 0.299509
vt 0.290679 0.713486
vt 0.294708 0.753392
vt 0.296711 0.671519
vt 0.297018 0.355547
vt 0.297166 0.703148
vt 0.299068 0.218926
vt 0.303968 0.866602
vt 0.304014 0.784315
vt 0.321517 0.822517
vt 0.322575 0.646113
vt 0.324388 0.698346
vt 0.325991 0.151487
vt 0.333871 0.037135
vt 0.349068 0.654920
vt 0.350092 0.890203
vt 0.356982 0.436099
vt 0.367131 0.265849
vt 0.371441 0.519588
vt 0.386729 0.847988
vt 0.388077 0.719495
vt 0.409407 0.306390
vt 0.413975 0.147017
vt 0.418688 0.003066
vt 0.423620 0.591116
vt 0.428796 0.653457
vt 0.429518 0.086927
vt 0.434707 0.088210
vt 0.448379 0.820360
vt 0.458431 0.852710
vt 0.458567 0.268691
vt 0.482098 0.039963
vt 0.489951 0.394954
vt 0.503366 0.837819
vt 0.504886 0.466353
vt 0.520142 0.739944
vt 0.522131 0.093008
vt 0.528240 0.887083
vt 0.532811 0.129601
vt 0.537763 0.054239
vt 0.547593 0.860383
vt 0.550450 0.537720
vt 0.553048 0.326873
vt 0.556086 0.647392
vt 0.569687 0.438740
vt 0.573705 0.707774
vt 0.582154 0.035072
vt 0.584132 0.350559
vt 0.585128 0.343192
vt 0.590415 0.205986
vt 0.591525 0.839776
vt 0.595085 0.650520
vt 0.601433 0.094398
vt 0.601435 0.125616
vt 0.608628 0.524438
vt 0.614076 0.645861
vt 0.616471 0.352134
vt 0.617227 0.909586
vt 0.623544 0.795695
vt 0.644188 0.385423
vt 0.646544 0.532539
vt 0.648979 0.287335
vt 0.650423 0.082320
vt 0.652213 0.785284
vt 0.652355 0.994554
vt 0.654841 0.184064
vt 0.657261 0.567169
vt 0.657958 0.897681
vt 0.658421 0.461036
vt 0.658472 0.242230
vt 0.660584 0.614549
vt 0.662482 0.116668
vt 0.667506 0.711470
vt 0.672567 0.346358
vt 0.683039 0.419966
vt 0.683753 0.949396
vt 0.688013 0.763634
vt 0.692780 0.854975
vt 0.702905 0.897118
vt 0.711844 0.555040
vt 0.719168 0.808877
vt 0.719877 0.074418
vt 0.727426 0.003066
vt 0.729286 0.103874
vt 0.731045 0.261688
vt 0.731582 0.287752
vt 0.735888 0.209551
vt 0.735921 0.179516
vt 0.751010 0.210324
vt 0.767424 0.774839
vt 0.773374 0.903736
vt 0.774098 0.838075
vt 0.781451 0.216964
vt 0.794040 0.179762
vt 0.795234 0.773033
vt 0.807193 0.169613
vt 0.808465 0.011794
vt 0.814228 0.095612
vt 0.818143 0.672787
vt 0.821440 0.546958
vt 0.825407 0.888217
vt 0.837234 0.286921
vt 0.838139 0.257065
vt 0.840372 0.082295
vt 0.844873 0.180595
vt 0.847611 0.838836
vt 0.850123 0.584954
vt 0.853114 0.229229
vt 0.862142 0.796335
vt 0.864389 0.941858
vt 0.864524 0.881721
vt 0.869257 0.291287
vt 0.886620 0.753374
vt 0.890623 0.566423
vt 0.898920 0.047632
vt 0.899637 0.467589
vt 0.900672 0.396094
vt 0.903571 0.914718
vt 0.922993 0.114492
vt 0.927780 0.776711
vt 0.933774 0.346222
vt 0.935102 0.247323
vt 0.938462 0.546035
vt 0.950652 0.639998
vt 0.965148 0.121596
vt 0.966468 0.736909
vt 0.967011 0.401643
vt 0.970883 0.600567
vt 0.972329 0.680697
vt 0.977676 0.271293
vt 0.985675 0.153667
vt 0.988328 0.233988
vt 0.989360 0.298737
vt 0.989387 0.241348
vt 0.992686 0.069473
vn -0.986865 -0.109357 0.118905
vn -0.980101 -0.053747 0.191083
vn -0.977048 -0.116749 0.178179
vn -0.966782 -0.129367 0.220446
vn -0.956686 0.104121 -0.271866
vn -0.953203 -0.028449 0.300990
vn -0.949246 0.016801 -0.314086
vn -0.946372 -0.127932 -0.296671
vn -0.935422 -0.317732 0.155023
vn -0.921817 0.285628 -0.262051
vn -0.916813 0.022375 -0.398689
vn -0.907927 0.369217 -0.198361
vn -0.907577 -0.043616 0.417614
vn -0.907319 -0.358019 -0.220440
vn -0.906236 -0.368067 -0.207997
vn -0.904978 -0.320924 0.279327
vn -0.898728 0.246608 -0.362592
vn -0.885933 0.021552 -0.463312
vn -0.877051 0.021861 -0.479900
vn -0.874717 -0.180357 -0.449823
vn -0.871382 0.105666 -0.479091
vn -0.857418 0.123462 0.499591
vn -0.854407 -0.402138 -0.329049
vn -0.850414 0.285121 0.442155
vn -0.838231 0.501612 -0.213903
vn -0.828723 -0.026726 -0.559021
vn -0.814804 0.166011 -0.555459
vn -0.801556 -0.557849 0.215205
vn -0.796615 -0.249677 0.550515
vn -0.794722 0.236196 -0.559131
vn -0.789215 0.182555 -0.586356
vn -0.780708 -0.182492 0.597655
vn -0.779998 0.207602 -0.590343
vn -0.769311 0.139720 -0.623409
vn -0.765755 0.614580 -0.189500
vn -0.758978 -0.543335 0.358804
vn -0.749698 0.091615 -0.655408
vn -0.746314 -0.265076 -0.610533
vn -0.739728 -0.489593 0.461629
vn -0.734094 0.495284 -0.464543
vn -0.732822 0.677555 0.062385
vn -0.726709 -0.033586 -0.686124
vn -0.721952 -0.023707 -0.691537
vn -0.699259 0.002516 -0.714864
vn -0.666559 -0.043460 0.744184
vn -0.659365 -0.258646 -0.705932
vn -0.631134 0.033145 -0.774966
vn -0.593578 -0.291057 0.750301
vn -0.564556 0.511083 0.648128
vn -0.550903 -0.548148 -0.629316
vn -0.550072 -0.815149 0.181529
vn -0.546982 -0.305615 -0.779365
vn -0.522423 0.685456 -0.507173
vn -0.500169 -0.325970 -0.802231
vn -0.497367 0.862417 -0.094148
vn -0.493151 0.410004 -0.767267
vn -0.455193 -0.398438 0.796271
vn -0.427026 0.399991 0.810960
vn -0.424830 0.172495 0.888687
vn -0.409858 0.882477 0.230761
vn -0.380158 0.789238 0.482269
vn -0.374191 0.882951 -0.283512
vn -0.367545 -0.636685 0.677896
vn -0.351391 -0.790165 -0.502159
vn -0.345462 0.131960 0.929108
vn -0.340141 -0.467361 0.816013
vn -0.305991 0.060722 0.950096
vn -0.293739 0.509688 -0.808663
vn -0.281215 0.956665 0.075571
vn -0.221263 -0.843619 -0.489233
vn -0.212078 0.371025 0.904081
vn -0.179360 0.106803 0.977969
vn -0.174197 -0.821678 -0.542680
vn -0.158848 0.397045 0.903948
vn -0.138517 -0.186364 -0.972667
vn -0.117235 -0.446989 0.886824
vn -0.102163 0.935922 0.337066
vn -0.084938 -0.790382 -0.606697
vn -0.071293 0.709271 0.701321
vn -0.059844 -0.174290 -0.982874
vn -0.046905 -0.418491 -0.907009
vn -0.042621 -0.391498 0.919192
vn -0.042223 0.701054 0.711857
vn -0.041070 -0.295305 0.954520
vn -0.040614 -0.313620 -0.948680
vn -0.027076 -0.181954 -0.982934
vn -0.015007 0.131452 0.991209
vn -0.009344 -0.762325 -0.647127
vn -0.008346 -0.869042 -0.494668
vn -0.003543 0.208748 -0.977963
vn 0.000000 0.707107 0.707107
vn 0.001789 0.575852 0.817552
vn 0.014153 -0.476074 0.879292
vn 0.019296 -0.171386 0.985015
vn 0.056053 0.931066 0.360520
vn 0.072902 0.719766 0.690378
vn 0.086018 0.813211 0.575578
vn 0.106799 -0.286664 0.952060
vn 0.109546 -0.849401 -0.516253
vn 0.128706 0.303518 0.944093
vn 0.131596 0.134744 -0.982103
vn 0.172023 -0.140133 -0.975075
vn 0.186257 -0.962909 -0.195228
vn 0.203514 0.973738 0.102064
vn 0.208492 -0.321296 -0.923742
vn 0.210095 -0.425304 -0.880327
vn 0.228296 -0.027022 -0.973217
vn 0.273920 0.947696 -0.163831
vn 0.323509 0.152633 0.933834
vn 0.327318 -0.758970 -0.562875
vn 0.330620 0.153228 0.931242
vn 0.356185 -0.861422 -0.362056
vn 0.372130 -0.182867 -0.909988
vn 0.380607 0.042970 -0.923738
vn 0.383581 0.292791 0.875864
vn 0.386958 -0.286940 0.876316
vn 0.396533 -0.236123 -0.887134
vn 0.413203 0.797418 -0.439758
vn 0.422126 0.530398 0.735179
vn 0.431554 -0.534144 0.726947
vn 0.467027 -0.523772 0.712424
vn 0.508181 0.029804 -0.860735
vn 0.517965 -0.265844 0.813043
vn 0.536132 -0.147113 -0.831216
vn 0.547743 -0.609817 -0.572801
vn 0.611260 0.749061 0.255479
vn 0.639476 -0.341867 -0.688620
vn 0.646499 -0.136574 -0.750591
vn 0.650218 -0.631489 0.422419
vn 0.656119 -0.738198 -0.156756
vn 0.663607 0.275331 -0.695571
vn 0.670864 -0.401815 0.623287
vn 0.674433 -0.256627 -0.692303
vn 0.686046 -0.691436 -0.226402
vn 0.690286 0.045460 0.722107
vn 0.702719 -0.229254 0.673520
vn 0.709192 -0.228654 -0.666906
vn 0.712729 -0.229987 0.662664
vn 0.719458 -0.354885 0.597024
vn 0.719657 0.268186 -0.640446
vn 0.721222 0.339682 -0.603702
vn 0.733240 0.521255 0.436637
vn 0.736036 0.520726 0.432546
vn 0.750340 0.201124 -0.629713
vn 0.755567 0.119040 -0.644165
vn 0.757009 -0.232721 0.610556
vn 0.766172 0.239873 -0.596189
vn 0.775294 0.266331 -0.572702
vn 0.775993 0.137311 -0.615614
vn 0.778207 0.258120 -0.572511
vn 0.799709 -0.234419 0.552733
vn 0.807262 0.309908 -0.502280
vn 0.821490 0.384614 -0.420983
vn 0.830911 -0.459457 0.313825
vn 0.834508 0.193597 -0.515865
vn 0.846086 -0.063951 0.529197
vn 0.854786 -0.138769 0.500085
vn 0.879747 0.048597 -0.472951
vn 0.882677 -0.333223 0.331427
vn 0.897457 -0.337477 -0.284043
vn 0.900476 -0.172170 0.399376
vn 0.900851 -0.023808 -0.433476
vn 0.902919 -0.125058 0.411214
vn 0.905035 0.067406 -0.419961
vn 0.911707 0.367286 -0.184095
vn 0.914362 -0.396438 0.082338
vn 0.918832 -0.351522 -0.179389
vn 0.919938 0.042460 0.389759
vn 0.925883 0.088086 -0.367399
vn 0.929127 0.328826 -0.169102
vn 0.930392 0.193110 -0.311575
vn 0.935204 0.140889 -0.324874
vn 0.935857 0.287451 -0.203823
vn 0.948156 -0.225017 -0.224425
vn 0.949680 0.126688 -0.286457
vn 0.956340 -0.176958 0.232592
vn 0.961637 0.025583 0.273131
vn 0.965392 -0.041772 0.257437
vn 0.968424 -0.249264 -0.004726
vn 0.999232 -0.038845 -0.005109
usemtl (null)
f 1/122/180 2/107/171 3/105/111
f 4/121/84 1/122/180 3/105/111
f 4/121/84 5/131/115 1/122/180
f 6/140/176 1/122/180 5/131/115
f 7/80/60 8/68/69 9/83/61
f 8/200/177 10/190/161 9/199/157
f 1/122/180 11/134/173 2/107/171
f 1/122/180 6/140/176 11/134/173
f 12/152/178 8/156/177 6/140/176
f 13/155/169 14/138/165 8/156/177
f 12/152/178 10/162/161 8/156/177
f 7/80/60 13/74/169 8/68/69
f 7/80/40 15/89/31 16/70/11
f 3/105/111 17/108/24 4/121/84
f 11/134/173 14/138/165 18/118/108
f 8/156/177 14/138/165 11/134/173
f 19/150/156 6/140/176 5/131/115
f 11/134/173 6/140/176 8/156/177
f 6/140/176 19/150/156 12/152/178
f 20/153/158 14/138/165 13/155/169
f 13/74/56 7/80/40 16/70/11
f 16/157/125 20/153/158 13/155/169
f 21/77/153 22/76/143 14/64/165
f 17/108/24 5/131/32 4/121/84
f 2/107/171 11/134/173 18/118/108
f 23/44/113 2/45/102 24/55/117
f 25/58/126 18/51/108 14/64/165
f 21/130/153 14/138/165 20/153/158
f 5/131/32 17/108/24 23/115/7
f 5/43/115 23/44/72 24/55/96
f 18/182/108 25/191/126 26/192/95
f 24/55/96 2/45/41 18/60/108
f 20/153/14 27/125/20 21/130/42
f 20/153/14 25/142/15 27/125/20
f 5/168/115 24/175/96 28/167/92
f 5/131/115 29/151/109 19/150/156
f 25/58/126 14/64/165 22/76/143
f 21/130/42 27/125/20 22/117/43
f 30/123/23 31/137/73 25/129/15
f 20/124/14 30/123/23 25/129/15
f 16/112/11 32/110/46 30/123/23
f 20/124/14 16/112/11 30/123/23
f 16/112/11 33/93/33 32/110/46
f 25/58/126 22/76/143 27/67/100
f 25/191/126 31/196/118 26/192/95
f 18/182/108 26/192/95 24/175/96
f 31/137/73 30/123/23 32/110/46
f 34/193/168 35/203/97 9/199/157
f 34/193/128 15/187/122 35/203/137
f 9/83/61 35/94/97 7/80/60
f 15/187/122 34/193/128 36/173/179
f 35/94/19 15/89/31 7/80/40
f 37/135/116 29/148/109 38/139/87
f 9/199/157 10/190/161 36/173/179
f 39/176/132 36/173/179 10/190/161
f 39/176/132 10/190/161 40/180/159
f 10/162/161 12/152/178 41/166/163
f 39/176/70 40/180/64 42/171/26
f 41/166/163 43/172/166 10/162/161
f 12/152/178 44/165/123 41/166/163
f 43/172/166 41/166/163 44/165/123
f 45/170/37 42/171/26 40/180/64
f 16/154/11 42/171/26 45/170/37
f 46/183/142 43/172/166 44/165/123
f 47/185/106 43/189/166 46/195/106
f 40/38/172 48/26/131 49/21/147
f 40/180/159 10/190/161 43/189/166
f 45/36/175 40/38/172 49/21/147
f 48/26/103 50/11/130 49/21/52
f 12/152/178 19/150/156 44/165/123
f 16/46/11 45/36/37 51/7/34
f 46/195/63 44/184/123 47/185/120
f 33/93/33 16/112/11 51/79/34
f 43/189/166 47/185/120 40/180/159
f 52/20/139 40/38/159 47/28/120
f 53/22/29 54/9/22 55/8/9
f 50/11/130 40/38/159 52/20/139
f 40/38/159 50/11/130 48/26/135
f 51/7/34 45/36/37 49/21/52
f 49/21/52 50/11/130 51/7/34
f 19/150/156 29/151/109 44/165/123
f 52/95/139 47/91/120 56/81/93
f 29/61/109 37/69/116 44/86/123
f 44/86/123 37/69/116 57/75/121
f 29/148/109 5/168/115 28/167/92
f 58/50/81 51/79/34 50/72/130
f 34/193/168 9/199/157 36/173/179
f 36/173/179 59/164/127 15/187/122
f 60/161/129 59/164/127 36/173/179
f 36/173/179 39/176/132 60/161/129
f 16/70/11 15/89/31 59/88/27
f 60/161/129 39/176/132 42/171/76
f 16/70/11 59/88/27 42/78/26
f 42/78/26 59/88/27 60/84/21
f 61/62/71 62/71/71 63/65/71
f 64/16/79 65/27/74 66/25/170
f 66/25/170 65/27/74 67/30/94
f 64/16/140 66/25/170 68/14/152
f 64/178/85 69/169/47 70/186/105
f 68/159/68 69/169/47 64/178/85
f 65/27/74 64/16/79 70/15/58
f 38/139/87 28/167/92 71/141/67
f 28/167/92 72/158/65 71/141/67
f 71/141/67 72/158/65 73/145/13
f 74/42/48 71/33/67 73/18/13
f 75/103/86 76/113/88 32/110/46
f 17/108/24 77/100/30 23/115/7
f 32/110/46 78/87/90 75/103/86
f 26/143/95 31/137/118 79/128/62
f 24/175/96 26/192/95 28/167/92
f 32/110/46 76/113/88 31/137/73
f 76/113/88 80/116/110 31/137/73
f 80/116/53 79/128/62 31/137/118
f 26/192/95 81/181/77 28/167/92
f 76/113/88 75/103/86 82/101/133
f 63/111/160 80/116/110 76/113/88
f 76/113/88 82/101/133 63/111/160
f 83/188/55 26/192/95 79/197/62
f 77/100/83 17/108/24 3/105/111
f 84/163/119 72/158/65 28/167/92
f 83/188/55 79/197/62 80/194/53
f 77/32/80 2/45/102 23/44/113
f 84/19/119 28/17/92 81/10/77
f 78/87/90 82/101/133 75/103/86
f 85/85/148 82/101/133 78/87/90
f 61/133/25 86/126/10 62/136/12
f 80/144/53 62/136/12 83/147/55
f 62/202/107 80/201/110 63/198/160
f 68/14/152 84/19/119 81/10/77
f 81/181/77 26/192/95 83/188/55
f 87/47/167 61/62/174 63/65/160
f 61/62/174 87/47/167 86/52/114
f 82/101/133 87/99/167 63/111/160
f 68/14/152 66/25/170 84/19/119
f 81/181/77 83/188/55 68/177/152
f 86/126/10 87/119/18 88/127/35
f 66/25/170 67/30/94 84/19/119
f 72/158/65 84/163/119 67/174/94
f 89/146/5 68/159/68 83/147/55
f 62/136/12 86/126/10 88/127/35
f 87/99/167 82/101/133 88/90/162
f 68/159/68 89/146/5 69/169/47
f 67/174/94 90/160/4 72/158/65
f 62/136/12 89/146/5 83/147/55
f 88/127/35 89/146/5 62/136/12
f 74/42/48 73/18/13 91/2/3
f 91/149/3 72/158/65 90/160/4
f 91/149/3 89/146/5 88/127/35
f 73/145/13 72/158/65 91/149/3
f 91/149/3 88/127/35 92/132/6
f 93/39/2 91/2/3 92/3/6
f 90/160/4 89/146/5 91/149/3
f 90/160/4 67/174/94 69/169/45
f 67/174/94 65/179/74 69/169/45
f 90/160/4 69/169/47 89/146/5
f 94/114/104 92/132/104 88/127/35
f 38/139/87 29/148/109 28/167/92
f 44/86/123 57/75/121 56/81/93
f 95/66/57 56/81/93 57/75/121
f 38/57/87 95/66/57 57/75/121
f 74/42/48 56/81/93 95/66/57
f 38/57/87 57/75/121 37/69/116
f 47/91/120 44/86/123 56/81/93
f 33/93/33 78/87/90 32/110/46
f 56/81/93 58/82/82 52/95/139
f 58/82/82 56/81/93 96/56/66
f 33/93/33 97/59/101 78/87/90
f 98/1/8 99/5/50 55/8/9
f 97/59/101 33/93/33 51/79/34
f 97/59/101 51/79/34 58/50/81
f 56/81/93 74/42/48 96/56/66
f 95/66/57 38/57/87 74/42/48
f 97/59/101 58/50/81 100/54/89
f 97/59/101 85/85/148 78/87/90
f 96/56/66 101/48/28 100/63/39
f 97/59/101 100/54/89 102/53/16
f 100/63/39 101/48/28 102/40/16
f 71/33/67 74/42/48 38/57/87
f 103/73/155 85/85/148 97/59/101
f 96/56/66 74/42/48 104/49/98
f 101/48/28 96/56/112 104/49/78
f 105/29/1 102/40/16 101/48/28
f 85/85/148 88/90/162 82/101/133
f 103/73/155 88/90/162 85/85/148
f 93/39/2 105/29/1 101/48/28
f 102/53/124 103/73/155 97/59/101
f 103/109/155 105/106/134 106/102/145
f 105/29/1 103/24/17 102/40/16
f 103/109/155 98/104/144 88/127/162
f 93/39/2 74/42/48 91/2/3
f 93/39/2 92/3/6 105/29/1
f 105/34/1 92/35/6 53/22/29
f 105/34/1 53/22/29 106/23/51
f 107/41/59 104/49/98 74/42/48
f 107/41/54 101/48/28 104/49/78
f 93/39/2 107/41/59 74/42/48
f 107/41/54 93/39/2 101/48/28
f 98/104/144 94/114/149 88/127/162
f 53/22/29 92/35/6 54/9/22
f 55/8/9 108/12/36 53/22/29
f 98/104/144 103/109/155 106/102/145
f 108/12/146 109/13/151 106/23/138
f 106/23/138 53/22/136 108/12/146
f 99/97/150 106/102/145 109/98/141
f 77/100/83 3/105/111 110/96/91
f 99/5/50 109/13/99 108/12/36
f 58/82/82 50/92/130 52/95/139
f 100/63/39 58/82/82 96/56/66
f 70/15/58 69/31/45 65/27/74
f 94/114/164 111/120/164 92/132/164
f 92/35/6 111/6/49 54/9/22
f 94/4/44 98/1/8 54/9/22
f 54/9/22 111/6/38 94/4/44
f 98/1/8 55/8/9 54/9/22
f 2/107/171 110/96/154 3/105/111
f 77/32/80 110/37/75 2/45/102
f 106/102/145 99/97/150 98/104/144
f 108/12/36 55/8/9 99/5/50
