#
# Wavefront OBJ file
#
# Created by the Simplygon mesh optimization tool from Microsoft.
#

mtllib hp.mtl

g default
s off
s 1
v -3.764241 26.952240 0.460462
v 1.307270 23.841795 -9.684772
v -7.898472 20.273376 -10.723239
v 1.319144 26.044065 5.452464
v -9.916527 21.025894 7.513716
v -12.253738 19.483473 -6.708303
v 5.314038 25.975212 -3.609727
v -10.873439 22.804354 -0.556983
v 13.597004 -0.290213 15.746695
v 10.450314 17.434288 10.848255
v 2.301246 4.932957 20.125963
v 3.351385 21.324055 11.572057
v -2.804259 14.252962 16.772047
v 7.472490 -22.884169 -6.648997
v 7.441967 -24.238020 1.420419
v -2.818528 -25.190367 -3.573944
v 13.561330 -19.731165 3.441915
v 3.322794 -19.386850 13.756511
v -10.980164 13.298718 13.624025
v 13.513554 -19.406300 -4.632988
v -17.064831 12.577889 5.574657
v -16.104332 3.887093 12.730401
v 10.482543 -16.512821 -12.816522
v 2.266784 -14.733683 -17.537436
v 4.366438 -3.368109 -20.406576
v 12.541554 -2.326600 -16.667807
v 9.445494 14.329007 -14.240049
v -19.275799 -7.503891 6.586663
v -21.072105 -1.303384 -0.627685
v -18.776426 -11.596657 -3.633526
v 19.743132 -6.492112 -5.665263
v 1.311574 15.366648 -16.537216
v -10.983542 13.371190 -13.791566
v 18.659885 -12.684909 1.459435
v -3.820014 0.764988 -20.497290
v -13.051876 -1.292454 -16.385723
v -16.028351 7.009515 -11.816443
v 19.790936 -1.302257 6.608846
v 0.302699 -10.629524 19.446287
v 7.413620 -11.653320 17.552195
v -18.941345 -4.412601 -8.747239
v -6.874829 -17.848064 13.708149
v -2.797023 -25.239305 3.446527
v -9.018651 -3.378405 18.862749
v 14.586767 -10.806411 12.737218
v -10.940638 -19.400074 8.607711
v -16.115896 -6.432938 12.725639
v -3.799017 -18.021666 -14.913153
v 11.490996 19.480177 -7.733887
v -16.019472 -16.768370 2.486856
v -9.411399 -22.939232 -1.620276
v -9.811317 -20.912750 -7.682306
v 17.661438 7.029168 -8.756356
v -15.098662 -9.521254 -12.858171
v -3.782028 -12.725946 -18.294895
v 18.307032 11.156850 1.506775
v 16.640285 11.159773 7.556697
v 7.282849 24.769104 3.480939
v -19.905521 5.935026 -3.653467
vt 0.003364 0.003364
vt 0.005276 0.126644
vt 0.034635 0.200131
vt 0.058052 0.679766
vt 0.083059 0.090536
vt 0.104112 0.041513
vt 0.106499 0.588988
vt 0.108488 0.814520
vt 0.109749 0.284112
vt 0.120912 0.663919
vt 0.121135 0.206559
vt 0.148680 0.078784
vt 0.163702 0.753244
vt 0.163840 0.419353
vt 0.171807 0.224818
vt 0.174874 0.291478
vt 0.176873 0.599940
vt 0.176996 0.149187
vt 0.188355 0.497505
vt 0.220551 0.698722
vt 0.226300 0.840013
vt 0.238317 0.264602
vt 0.251419 0.423097
vt 0.259704 0.482853
vt 0.259717 0.355898
vt 0.260708 0.030470
vt 0.278142 0.203372
vt 0.279852 0.675040
vt 0.288770 0.099139
vt 0.297625 0.817379
vt 0.307500 0.576901
vt 0.327416 0.289301
vt 0.338404 0.857231
vt 0.346623 0.371357
vt 0.375226 0.161277
vt 0.387349 0.654876
vt 0.394528 0.774920
vt 0.411818 0.454681
vt 0.414578 0.237018
vt 0.422848 0.286793
vt 0.435664 0.887521
vt 0.439041 0.084508
vt 0.440609 0.012171
vt 0.460396 0.677453
vt 0.468330 0.566248
vt 0.483499 0.152427
vt 0.487275 0.318599
vt 0.513177 0.437716
vt 0.516691 0.970442
vt 0.520290 0.709324
vt 0.533860 0.695180
vt 0.539775 0.872561
vt 0.546219 0.343167
vt 0.547199 0.250307
vt 0.549938 0.473484
vt 0.552034 0.348702
vt 0.562647 0.183418
vt 0.566605 0.111688
vt 0.579904 0.796631
vt 0.582324 0.796830
vt 0.594289 0.278619
vt 0.612137 0.631701
vt 0.622307 0.925378
vt 0.642112 0.556979
vt 0.644220 0.353462
vt 0.655325 0.739205
vt 0.670350 0.994608
vt 0.679293 0.188911
vt 0.681266 0.267294
vt 0.686967 0.802012
vt 0.694416 0.405862
vt 0.703303 0.662546
vt 0.732218 0.855842
vt 0.732280 0.542921
vt 0.732525 0.939575
vt 0.732677 0.867103
vt 0.756818 0.388066
vt 0.769641 0.715244
vt 0.771102 0.468122
vt 0.782482 0.222884
vt 0.798041 0.620489
vt 0.809817 0.301266
vt 0.836143 0.855711
vt 0.885926 0.398186
vt 0.894710 0.572735
vt 0.920898 0.714741
vt 0.953001 0.335656
vt 0.989560 0.590575
vt 0.991498 0.721196
vn -0.994204 0.026282 0.104250
vn -0.938932 0.302933 -0.163211
vn -0.930666 -0.182670 0.317007
vn -0.901421 -0.072575 -0.426817
vn -0.891659 0.393993 0.222968
vn -0.880095 -0.432837 -0.195152
vn -0.800112 0.258717 -0.541190
vn -0.798077 -0.589882 0.122931
vn -0.760831 0.588848 -0.272752
vn -0.751622 0.190484 0.631491
vn -0.710436 -0.250362 0.657723
vn -0.701790 0.712368 -0.004673
vn -0.661302 -0.375921 -0.649125
vn -0.580949 -0.677875 0.450537
vn -0.551683 0.000673 -0.834054
vn -0.551105 -0.834412 -0.006253
vn -0.546081 -0.694629 -0.468280
vn -0.545143 0.395233 0.739331
vn -0.511515 0.699013 0.499733
vn -0.452389 0.379761 -0.806924
vn -0.388784 -0.030037 0.920839
vn -0.348828 0.707585 -0.614527
vn -0.340234 -0.597956 0.725734
vn -0.262220 -0.297942 -0.917862
vn -0.257147 0.966331 -0.008969
vn -0.207901 -0.710241 -0.672559
vn -0.191510 0.114034 -0.974844
vn -0.120451 0.454233 0.882703
vn -0.096324 -0.945469 0.311143
vn -0.055533 -0.944306 -0.324350
vn -0.046549 -0.265663 0.962941
vn -0.023523 0.899277 0.436746
vn 0.021551 0.804649 -0.593360
vn 0.034847 0.410926 -0.911002
vn 0.089204 0.672961 0.734279
vn 0.165515 0.208765 0.963858
vn 0.199676 -0.747286 0.633793
vn 0.211028 -0.478571 -0.852313
vn 0.235399 -0.036677 -0.971206
vn 0.251593 -0.867230 -0.429665
vn 0.327058 -0.924339 0.196548
vn 0.357435 0.903817 -0.235277
vn 0.381666 -0.283503 0.879748
vn 0.490323 0.376827 -0.785866
vn 0.553834 0.487160 0.675235
vn 0.582632 -0.467150 -0.665064
vn 0.591665 0.101986 0.799707
vn 0.630660 0.757158 0.170232
vn 0.632568 -0.039120 -0.773516
vn 0.643808 -0.685441 0.340119
vn 0.717129 -0.383377 0.582020
vn 0.718747 0.620997 -0.312673
vn 0.746337 -0.598280 -0.291620
vn 0.805786 0.376528 0.457094
vn 0.877658 0.221032 -0.425278
vn 0.921972 0.387209 -0.006072
vn 0.925075 -0.364029 0.108258
vn 0.935176 -0.134205 -0.327772
vn 0.964665 0.014373 0.263088
usemtl (null)
f 1/69/25 2/82/33 3/77/22
f 4/76/32 1/75/25 5/63/19
f 3/77/22 6/71/9 1/69/25
f 7/80/42 2/82/33 1/69/25
f 8/67/12 5/63/19 1/75/25
f 4/68/32 7/80/42 1/69/25
f 9/34/47 10/47/45 11/38/36
f 10/47/45 12/53/35 13/48/28
f 12/70/35 5/63/19 13/60/28
f 11/38/36 10/47/45 13/48/28
f 12/70/35 4/76/32 5/63/19
f 14/11/40 15/9/41 16/3/30
f 17/16/50 18/14/37 15/9/41
f 19/52/18 13/60/28 5/63/19
f 15/9/41 20/15/53 17/16/50
f 21/49/5 19/52/18 5/63/19
f 19/52/18 22/41/10 13/59/28
f 23/18/46 24/12/38 25/26/39
f 26/29/49 25/26/39 27/42/44
f 28/51/3 29/62/1 30/66/6
f 23/18/46 25/26/39 26/29/49
f 31/27/58 23/18/46 26/29/49
f 3/77/22 2/82/33 32/84/34
f 14/11/40 23/18/46 20/15/53
f 14/11/40 20/15/53 15/9/41
f 23/18/46 31/27/58 20/15/53
f 33/79/20 6/71/9 3/77/22
f 21/55/5 5/56/19 8/65/12
f 8/65/12 1/69/25 6/71/9
f 34/22/57 17/16/50 20/15/53
f 34/22/57 20/15/53 31/27/58
f 25/88/39 35/85/27 32/84/34
f 32/84/34 35/85/27 33/79/20
f 33/79/20 3/77/22 32/84/34
f 35/85/27 36/81/15 33/79/20
f 33/79/20 36/81/15 37/74/7
f 34/22/57 31/27/58 38/32/59
f 39/24/31 40/23/43 11/38/36
f 30/66/6 29/62/1 41/72/4
f 18/14/37 40/23/43 39/24/31
f 40/23/43 9/34/47 11/38/36
f 42/28/23 43/17/29 18/31/37
f 39/36/31 42/28/23 18/31/37
f 11/50/36 13/59/28 44/37/21
f 18/14/37 17/16/50 45/25/51
f 45/25/51 40/23/43 18/14/37
f 13/59/28 22/41/10 44/37/21
f 39/36/31 11/50/36 44/37/21
f 44/37/21 42/28/23 39/36/31
f 43/17/29 42/28/23 46/20/14
f 45/25/51 9/34/47 40/23/43
f 47/33/11 44/37/21 22/41/10
f 17/16/50 34/22/57 45/25/51
f 45/25/51 34/22/57 38/32/59
f 48/5/26 24/12/38 14/11/40
f 27/42/44 25/26/39 32/43/34
f 48/5/26 14/11/40 16/3/30
f 2/82/33 27/87/44 32/84/34
f 49/46/52 27/42/44 2/58/33
f 46/20/14 50/13/8 51/10/16
f 52/4/17 51/10/16 50/13/8
f 26/29/49 27/42/44 53/35/55
f 27/42/44 49/46/52 53/35/55
f 36/81/15 54/78/13 41/72/4
f 54/78/13 52/73/17 30/66/6
f 23/18/46 14/11/40 24/12/38
f 24/89/38 35/85/27 25/88/39
f 24/89/38 55/86/24 35/85/27
f 26/29/49 53/35/55 31/27/58
f 24/12/38 48/5/26 55/6/24
f 55/86/24 36/81/15 35/85/27
f 53/35/55 49/46/52 56/39/56
f 57/40/54 56/39/56 58/54/48
f 10/47/45 57/40/54 58/54/48
f 56/39/56 49/46/52 58/54/48
f 48/5/26 54/1/13 55/6/24
f 55/86/24 54/78/13 36/81/15
f 15/19/41 18/31/37 43/17/29
f 16/7/30 15/19/41 43/17/29
f 48/5/26 16/3/30 52/2/17
f 52/73/17 54/78/13 48/83/26
f 31/27/58 53/35/55 56/39/56
f 31/27/58 56/39/56 38/32/59
f 16/7/30 43/17/29 51/10/16
f 52/4/17 16/7/30 51/10/16
f 43/17/29 46/20/14 51/10/16
f 9/34/47 57/40/54 10/47/45
f 58/54/48 12/53/35 10/47/45
f 22/41/10 19/52/18 21/49/5
f 28/51/3 47/44/11 22/45/10
f 28/51/3 22/45/10 21/55/5
f 6/71/9 33/79/20 37/74/7
f 37/74/7 36/81/15 41/72/4
f 6/71/9 21/55/5 8/65/12
f 37/74/7 59/64/2 6/71/9
f 6/71/9 59/64/2 21/55/5
f 9/34/47 45/25/51 38/32/59
f 57/40/54 9/34/47 38/32/59
f 29/62/1 21/55/5 59/64/2
f 59/64/2 37/74/7 41/72/4
f 29/62/1 59/64/2 41/72/4
f 28/51/3 21/55/5 29/62/1
f 44/37/21 47/30/11 42/28/23
f 56/39/56 57/40/54 38/32/59
f 46/20/14 42/28/23 47/30/11
f 46/20/14 47/30/11 28/21/3
f 50/13/8 46/20/14 28/21/3
f 7/57/42 4/61/32 58/54/48
f 49/46/52 2/58/33 7/57/42
f 41/72/4 54/78/13 30/66/6
f 58/54/48 49/46/52 7/57/42
f 50/13/8 28/21/3 30/8/6
f 4/61/32 12/53/35 58/54/48
f 52/4/17 50/13/8 30/8/6
