#
# Wavefront OBJ file
#
# Created by the Simplygon mesh optimization tool from Microsoft.
#

mtllib hp.mtl

g default
s off
s 1
v 2.673098 -0.130779 0.549338
v 3.048164 -0.341864 0.578744
v 2.908581 -0.404698 0.455695
v 2.670079 -0.078059 0.740038
v 2.804226 -0.407643 0.950053
v 2.439916 -0.406783 1.169322
v 2.281996 -0.120136 0.522463
v 2.283613 -0.255555 1.087196
v 2.735978 -0.046014 0.333132
v 2.387975 -0.396536 0.457926
v 3.373274 -0.701219 1.255571
v 2.782592 -0.652079 1.006984
v 2.279924 -0.652318 1.220036
v 2.280401 -0.232505 0.456679
v 2.349136 -0.091841 0.326549
v 1.935506 -0.654538 0.566114
v 2.049792 -0.628265 0.403413
v 2.235394 -0.189437 -0.000153
v 1.269564 0.127756 0.105959
v 1.488225 -0.628805 0.278148
v 2.833258 -0.139017 -0.100127
v 3.184816 -0.659148 -0.351764
v 2.620502 -0.560816 -0.866077
v 2.569509 -0.152775 -0.394750
v 2.109690 -0.538266 -0.117853
v 2.961500 -0.593457 0.521460
v 1.933047 -0.677013 -0.411809
v 3.016977 -0.302185 0.389028
v 1.517332 -0.634453 0.176251
v 2.840509 -0.698899 -1.052596
v 3.374037 -0.702221 -0.982434
v 3.363533 -1.016400 -1.035737
v 2.784942 -0.636069 -1.156920
v 2.502208 -0.646235 -1.058212
v 2.507575 -1.036305 -1.033886
v 2.340257 -0.637208 -1.146788
v 2.225793 -0.665277 -1.034126
v 1.456182 -0.690537 -1.049206
v 3.131204 -0.660327 0.575454
v 3.384582 -1.015629 1.257623
v 1.474813 -1.008616 -1.040109
v 2.680902 -1.011307 1.329138
v 0.591838 0.629893 -0.144916
v 0.686282 0.631317 -0.226416
v 1.465886 -0.690352 1.322144
v 1.454901 -1.014478 1.258485
v 1.113790 -0.272965 0.108963
v 1.161285 -0.097785 0.101812
v 1.221750 -0.096164 0.071827
v 0.933829 0.143445 -0.137290
v 0.465185 0.544217 -0.190556
v 0.482164 0.592141 -0.295975
vt 0.003675 0.012829
vt 0.005387 0.391581
vt 0.053573 0.375143
vt 0.062143 0.003675
vt 0.069122 0.167123
vt 0.075788 0.185463
vt 0.128675 0.745863
vt 0.129725 0.541330
vt 0.130575 0.990440
vt 0.135213 0.290723
vt 0.142777 0.118736
vt 0.148658 0.412434
vt 0.153914 0.499320
vt 0.165943 0.426801
vt 0.175807 0.251501
vt 0.180336 0.159756
vt 0.188267 0.431101
vt 0.192459 0.005203
vt 0.219746 0.448810
vt 0.220402 0.403184
vt 0.232187 0.457592
vt 0.233793 0.238535
vt 0.261105 0.316071
vt 0.274541 0.171859
vt 0.279562 0.205827
vt 0.300027 0.480322
vt 0.315184 0.534564
vt 0.317530 0.161710
vt 0.319864 0.303109
vt 0.336852 0.238460
vt 0.357415 0.395335
vt 0.395323 0.262979
vt 0.408365 0.242419
vt 0.444934 0.276756
vt 0.470175 0.299585
vt 0.556628 0.198632
vt 0.574002 0.281489
vt 0.610724 0.324076
vt 0.627413 0.130627
vt 0.666998 0.219467
vt 0.672520 0.534925
vt 0.673781 0.994371
vt 0.689374 0.029448
vt 0.692670 0.702959
vt 0.698987 0.212206
vt 0.733156 0.596898
vt 0.736113 0.470698
vt 0.743393 0.051461
vt 0.762622 0.174742
vt 0.769957 0.854561
vt 0.770243 0.617052
vt 0.777695 0.059242
vt 0.792298 0.217246
vt 0.799238 0.885305
vt 0.811778 0.839741
vt 0.819952 0.375633
vt 0.823427 0.093231
vt 0.830227 0.632744
vt 0.848498 0.834266
vt 0.855237 0.747441
vt 0.868215 0.619698
vt 0.870004 0.380484
vt 0.884384 0.747449
vt 0.887990 0.160926
vt 0.894227 0.347818
vt 0.894883 0.592330
vt 0.914083 0.258233
vt 0.920415 0.602420
vt 0.924248 0.280381
vt 0.927138 0.498874
vt 0.927269 0.003675
vt 0.930521 0.337659
vt 0.933203 0.169550
vt 0.937208 0.072098
vt 0.975046 0.031335
vt 0.978596 0.580804
vt 0.980753 0.094030
vt 0.981841 0.841003
vt 0.983201 0.255888
vt 0.984171 0.374360
vn -0.999538 -0.028872 -0.009497
vn -0.998502 0.054630 0.003034
vn -0.866638 0.498040 -0.029908
vn -0.836086 0.543654 0.073482
vn -0.772588 0.575737 0.267648
vn -0.735615 0.471536 0.486338
vn -0.732978 0.629440 -0.257971
vn -0.718377 0.646304 -0.257343
vn -0.652084 0.148408 0.743479
vn -0.612725 -0.757718 -0.224570
vn -0.610952 0.653621 0.446672
vn -0.584163 -0.686662 -0.432723
vn -0.572983 -0.723560 -0.384904
vn -0.563340 0.825508 0.034434
vn -0.560567 0.826219 -0.055924
vn -0.543382 0.050156 0.837986
vn -0.526209 0.056325 0.848488
vn -0.505524 0.828224 -0.241848
vn -0.453051 0.891473 0.004471
vn -0.450289 0.111767 0.885860
vn -0.355056 0.091185 0.930387
vn -0.307666 0.134010 0.942010
vn -0.289385 0.288858 -0.912588
vn -0.274128 0.952365 0.133621
vn -0.272747 0.123521 0.954123
vn -0.167839 0.430423 0.886885
vn -0.160132 0.834595 -0.527076
vn -0.151137 -0.304084 -0.940580
vn -0.147774 0.985277 -0.085974
vn -0.125545 0.988802 -0.080682
vn -0.101551 -0.413145 -0.904985
vn -0.078099 -0.054005 -0.995482
vn -0.063929 -0.156546 0.985600
vn -0.054923 0.997294 0.048865
vn -0.046094 0.998416 -0.032257
vn -0.026020 0.948931 0.314408
vn -0.019718 -0.999715 0.013461
vn -0.018830 -0.060659 -0.997981
vn -0.011942 -0.999768 0.017930
vn -0.001180 -0.999987 0.004983
vn -0.000078 -0.999996 -0.002909
vn 0.000000 0.000000 -1.000000
vn 0.000198 -0.999995 -0.003049
vn 0.008894 0.315461 -0.948897
vn 0.014363 0.211548 -0.977262
vn 0.028022 0.137696 0.990078
vn 0.035560 -0.999367 -0.000334
vn 0.059806 0.994077 0.090739
vn 0.060026 0.323455 0.944338
vn 0.073544 0.045808 -0.996239
vn 0.089625 0.226720 0.969828
vn 0.094521 0.902844 -0.419450
vn 0.103099 -0.441455 -0.891341
vn 0.109442 -0.099856 -0.988965
vn 0.111344 0.003188 0.993777
vn 0.140527 0.147397 -0.979044
vn 0.159391 0.986805 0.028480
vn 0.179708 0.654231 -0.734634
vn 0.193142 0.926181 0.323858
vn 0.199545 0.218014 -0.955328
vn 0.214405 0.976549 0.019543
vn 0.225498 0.921440 0.316385
vn 0.247492 0.954980 -0.163586
vn 0.272217 0.365894 0.889955
vn 0.287203 0.282965 -0.915121
vn 0.288724 -0.111068 -0.950948
vn 0.335670 0.096418 -0.937032
vn 0.360517 -0.006591 -0.932729
vn 0.377222 0.852457 0.361968
vn 0.399982 0.024966 -0.916183
vn 0.417729 0.039978 -0.907692
vn 0.435694 0.051698 -0.898609
vn 0.466343 0.870153 -0.159242
vn 0.535869 0.122624 -0.835349
vn 0.546841 0.727773 0.413897
vn 0.553635 0.383593 -0.739151
vn 0.596393 0.759266 -0.260443
vn 0.632086 0.402742 0.662017
vn 0.632979 0.000011 0.774169
vn 0.826980 0.169832 0.535967
vn 0.836675 0.376572 0.397705
vn 0.846246 0.512264 0.146470
vn 0.901405 0.368956 0.226583
vn 0.924283 0.379725 -0.038849
vn 0.952424 -0.071946 0.296164
vn 0.999232 -0.038056 -0.009391
vn 0.999758 0.022001 -0.000153
usemtl (null)
f 1/73/58 2/74/82 3/77/65
f 2/74/82 1/73/58 4/64/62
f 5/57/78 4/64/62 6/49/64
f 7/67/18 8/53/11 4/64/62
f 1/73/58 7/67/18 4/64/62
f 6/49/64 4/64/62 8/53/11
f 3/33/49 9/30/59 10/28/51
f 11/37/81 12/36/48 13/39/36
f 3/77/65 10/79/45 1/73/58
f 6/49/64 13/45/9 12/52/79
f 10/79/45 7/67/18 1/73/58
f 14/24/5 9/30/59 15/25/24
f 14/69/76 7/67/18 10/79/45
f 10/28/51 9/30/59 14/24/5
f 6/49/64 8/53/11 13/45/9
f 8/53/11 7/67/18 14/69/5
f 8/53/11 16/56/4 13/45/9
f 14/69/5 16/56/4 8/53/11
f 16/56/4 14/69/5 17/62/15
f 17/16/15 14/24/5 18/22/8
f 16/56/75 17/62/75 19/58/75
f 16/56/16 19/58/22 20/47/17
f 6/49/64 12/52/79 5/57/78
f 21/29/77 22/31/73 23/20/52
f 24/23/27 9/30/59 21/29/77
f 23/20/52 24/23/27 21/29/77
f 15/25/24 9/30/59 24/23/27
f 24/23/27 18/22/8 15/25/24
f 14/24/5 15/25/24 18/22/8
f 24/23/27 23/20/52 18/22/8
f 18/22/8 23/20/52 25/15/7
f 26/75/72 3/77/65 2/74/82
f 25/15/7 17/16/15 18/22/8
f 23/20/52 27/10/30 25/15/7
f 28/32/83 21/29/77 9/30/59
f 27/10/30 17/16/15 25/15/7
f 27/10/30 29/6/35 17/16/15
f 30/21/63 23/20/52 22/31/73
f 31/26/84 30/21/63 22/31/73
f 31/26/56 32/27/50 30/21/54
f 30/21/63 33/19/60 23/20/52
f 23/20/52 33/19/60 34/17/44
f 33/19/60 35/13/38 34/17/44
f 30/21/54 35/13/38 33/19/60
f 34/17/44 36/14/23 23/20/52
f 36/14/23 34/17/44 35/13/38
f 36/14/23 37/12/29 23/20/52
f 37/12/32 36/14/23 35/13/38
f 35/13/38 38/3/42 37/12/32
f 39/35/57 22/31/73 26/34/61
f 26/34/85 22/31/73 28/32/83
f 12/52/79 39/71/80 5/57/78
f 3/33/49 28/32/83 9/30/59
f 28/32/83 3/33/49 26/34/85
f 2/74/82 4/64/62 5/57/78
f 40/38/87 32/27/86 31/26/84
f 40/41/40 41/9/37 35/7/39
f 41/9/37 40/41/40 42/44/41
f 42/40/46 40/38/55 11/37/81
f 21/29/77 28/32/83 22/31/73
f 35/7/39 32/8/47 40/41/40
f 32/27/50 35/13/38 30/21/54
f 43/55/26 19/58/22 44/59/69
f 11/37/81 13/39/36 45/43/6
f 42/40/46 11/37/81 45/43/6
f 45/4/6 13/18/36 16/11/34
f 20/5/14 45/4/6 16/11/34
f 40/38/87 31/26/84 11/37/81
f 20/5/14 29/6/35 38/3/3
f 38/3/3 45/4/6 20/5/14
f 38/3/3 46/1/2 45/4/6
f 47/46/21 20/47/17 48/51/25
f 22/31/73 11/37/81 31/26/84
f 38/3/3 29/6/35 27/10/30
f 17/78/71 49/68/68 19/76/74
f 49/68/68 17/78/71 29/63/66
f 20/60/10 47/61/28 29/63/66
f 19/58/22 48/51/25 20/47/17
f 19/76/74 49/68/68 50/70/53
f 47/61/28 49/68/68 29/63/66
f 19/76/74 50/70/53 44/80/70
f 49/68/68 48/66/12 50/70/53
f 49/68/68 47/61/28 48/66/12
f 19/58/22 43/55/26 48/51/25
f 2/74/82 39/71/67 26/75/72
f 51/65/13 50/70/53 48/66/12
f 48/51/25 43/55/26 51/50/20
f 50/70/53 51/65/13 52/72/31
f 37/12/29 27/10/30 23/20/52
f 37/12/29 38/3/3 27/10/30
f 35/13/38 41/2/42 38/3/42
f 46/42/43 41/9/37 42/44/41
f 42/40/46 45/43/6 46/48/33
f 5/57/78 39/71/80 2/74/82
f 52/54/19 51/50/20 43/55/26
f 39/35/57 12/36/48 11/37/81
f 22/31/73 39/35/57 11/37/81
f 38/3/3 41/2/1 46/1/2
f 52/54/19 43/55/26 44/59/69
f 52/72/31 44/80/70 50/70/53
